<?xml version="1.0" encoding="utf-8"?>
<!-- Generator: Adobe Illustrator 24.1.0, SVG Export Plug-In . SVG Version: 6.00 Build 0)  -->
<svg version="1.1" id="Layer_1" xmlns="http://www.w3.org/2000/svg" xmlns:xlink="http://www.w3.org/1999/xlink" x="0px" y="0px"
	 width="500px" height="130.1px" viewBox="0 0 500 130.1" style="enable-background:new 0 0 500 130.1;" xml:space="preserve">
<style type="text/css">
	.st0{fill:#FA0F00;}
</style>
<g>
	<path class="st0" d="M216,86.7l-5.4,16.6c-0.1,0.6-0.7,0.9-1.2,0.9h-13c-0.8,0-1-0.4-0.9-1.1l22.4-64.6c0.7-2.2,1.1-4.5,1.1-6.8
		c0-0.4,0.3-0.7,0.7-0.8h17.9c0.6,0,0.8,0.1,0.9,0.7l25.4,71.6c0.2,0.6,0.1,1-0.6,1h-14.5c-0.6,0.1-1.1-0.2-1.2-0.8l-5.7-16.7H216z
		 M237.7,72.7c-2.2-7.4-6.7-20.9-8.8-28.9h-0.1c-1.8,7.5-5.8,19.8-8.8,28.9H237.7z"/>
	<path class="st0" d="M265.7,76.8c0-16,12-29.4,32.5-29.4c0.9,0,2,0.1,3.7,0.2v-22c0-0.4,0.2-0.7,0.6-0.8c0.1,0,0.1,0,0.2,0h14.1
		c0.6,0,0.7,0.2,0.7,0.7v66.1c0,2.7,0.1,5.5,0.4,8.2c0,0.6-0.1,0.8-0.8,1c-7,3-14.5,4.5-22,4.5C278.4,105.3,265.7,95.9,265.7,76.8z
		 M301.8,61c-1.3-0.4-2.7-0.6-4.1-0.6c-8.6,0-16,5.3-16,15.7c0,11.1,6.4,15.9,14.9,15.9c1.8,0.1,3.6-0.2,5.3-0.7L301.8,61z"/>
	<path class="st0" d="M381.4,76.1c0,17.6-11.4,29.2-27.5,29.2c-19.1,0-27.6-14.4-27.6-28.9c0-15.9,10.6-29,27.9-29
		C372.1,47.4,381.4,61,381.4,76.1z M342,76.2c0,9.9,4.6,16.1,12.1,16.1c6.5,0,11.4-5.6,11.4-15.9c0-8.8-3.6-16-12.1-16
		C347,60.4,342,66.2,342,76.2z"/>
	<path class="st0" d="M404.9,24.8c0.9,0,1.1,0.1,1.1,0.9v22.9c3.1-0.8,6.2-1.2,9.4-1.2c16.5,0,26.9,11.6,26.9,26.6
		c0,20.9-16.6,31.2-33.6,31.2c-6,0-11.9-0.8-17.6-2.6c-0.4-0.2-0.7-0.6-0.7-1.1v-76c0-0.6,0.2-0.8,0.8-0.8L404.9,24.8z M412.6,60.6
		c-2.2,0-4.4,0.3-6.6,0.9v30.4c1.4,0.3,2.7,0.5,4.1,0.4c8.5,0,16.2-5.1,16.2-16.8C426.4,65.3,420.5,60.6,412.6,60.6L412.6,60.6z"/>
	<path class="st0" d="M464.2,80.4c0.6,6.4,5,11.6,16,11.6c4.7,0.1,9.4-0.8,13.8-2.6c0.3-0.2,0.7-0.1,0.7,0.6v10.6
		c0,0.8-0.2,1.1-0.8,1.3c-4.5,2.1-9.4,3.3-17.1,3.3c-21,0-28.4-14.4-28.4-28.3c0-15.4,9.5-29.5,27.1-29.5
		c16.9,0,23.6,13.1,23.6,24.1c0.1,2.5-0.1,5-0.6,7.5c0,0.5-0.4,0.9-0.9,0.9c-3.8,0.4-7.7,0.5-11.5,0.4L464.2,80.4z M478.7,69.6
		c1.9,0.1,3.7,0,5.6-0.2v-0.8c-0.1-5-4.3-9-9.3-8.9c-0.1,0-0.1,0-0.2,0c-7,0-10.1,5.3-10.7,9.9L478.7,69.6z"/>
	<polygon class="st0" points="93.3,0.3 147.5,0.3 147.5,129.9 	"/>
	<polygon class="st0" points="55.2,0.3 1,0.3 1,129.9 	"/>
	<polygon class="st0" points="74.3,48 108.8,129.9 86.2,129.9 75.8,103.8 50.6,103.8 	"/>
</g>
</svg>
