<?xml version="1.0" encoding="UTF-8"?><svg id="Logos" xmlns="http://www.w3.org/2000/svg" width="463.86" height="72" viewBox="0 0 463.86 72"><defs><style>.cls-1{fill:#f24c53;}.cls-1,.cls-2{stroke-width:0px;}.cls-2{fill:#fff;}</style></defs><path class="cls-1" d="M66.32,7.26c-.1-.9-.2-1.4-.4-1.8-.4-.8-1.1-1.5-2-2-.4-.2-.9-.3-1.8-.4-.8-.1-1.9-.1-3.5-.1H10.22c-1.6,0-2.7,0-3.5.1-.9.1-1.4.2-1.8.4-.8.4-1.5,1.1-2,2-.2.4-.3.9-.4,1.8-.1.9-.1,2-.1,3.5v48.4c0,1.6,0,2.7.1,3.5.1.9.2,1.4.4,1.8.4.8,1.1,1.5,2,2,.4.2.9.3,1.8.4.9.1,2,.1,3.5.1h48.4c1.6,0,2.7,0,3.5-.1.9-.1,1.4-.2,1.8-.4.8-.4,1.5-1.1,2-2,.2-.4.3-.9.4-1.8.1-.9.1-2,.1-3.5V10.76c0-1.6,0-2.7-.1-3.5ZM23.57,52.51h-2.6v-2.6h2.6v2.6ZM44.77,52.51h-19.5v-2.6h5.4v-1.6h-2.6v-2.6h12.4l-5.8-10,5.8-10h-12.7v13.7h-6.9v-20.7h23.6l3.9,6.8-5.7,10.1,5.9,10.3-3.8,6.6ZM23.67,48.31v-2.6h2.6v2.6h-2.6Z"/><path class="cls-2" d="M88.07,22.91h10.59c6.62,0,10.15,2.37,10.15,6.86,0,2.93-1.77,5.06-5.02,5.62v.56c3.73.6,6.06,3.05,6.06,6.78,0,5.66-3.57,8.27-10.19,8.27h-11.6v-28.09ZM98.54,34.79c3.25,0,5.06-.96,5.06-3.77s-1.81-3.81-5.06-3.81h-5.34v7.58h5.34ZM99.31,46.71c3.41,0,5.34-1.04,5.34-3.97s-1.93-4.01-5.34-4.01h-6.1v7.99h6.1Z"/><path class="cls-2" d="M112.63,40.81c0-6.22,4.29-10.67,10.35-10.67s10.39,4.45,10.39,10.67-4.37,10.63-10.39,10.63-10.35-4.41-10.35-10.63ZM128.36,40.81c0-3.93-2.13-6.58-5.38-6.58s-5.38,2.65-5.38,6.58,2.17,6.58,5.38,6.58,5.38-2.65,5.38-6.58Z"/><path class="cls-2" d="M150.39,30.57h5.02v20.43h-4.9v-.84c0-1.04.08-1.81.32-3.25l-.44-.16c-1.24,3.01-3.17,4.7-6.66,4.7-4.46,0-6.82-2.77-6.82-7.54v-13.32h5.02v12.88c0,2.69,1.16,4.05,3.73,4.05,2.73,0,4.74-2.09,4.74-5.7v-11.24Z"/><path class="cls-2" d="M165.16,51h-5.02v-20.43h4.9v.84c0,1.08-.08,1.81-.36,3.29l.48.12c1.24-2.97,3.17-4.69,6.66-4.69,4.45,0,6.82,2.81,6.82,7.58v13.28h-5.02v-13.12c0-2.41-1.2-3.77-3.61-3.77-2.69,0-4.86,2.05-4.86,5.74v11.16Z"/><path class="cls-2" d="M182.25,40.81c0-6.54,3.93-10.67,8.95-10.67,3.05,0,5.3,1.56,6.54,4.86l.48-.12c-.28-1.65-.36-2.37-.36-3.29v-9.47h5.02v28.89h-4.9v-1c0-.88.04-1.65.32-3.25l-.44-.16c-1.28,3.29-3.61,4.86-6.66,4.86-5.02,0-8.95-4.05-8.95-10.63ZM197.94,40.81c0-4.09-2.25-6.58-5.34-6.58s-5.38,2.49-5.38,6.58,2.25,6.58,5.38,6.58,5.34-2.53,5.34-6.58Z"/><path class="cls-2" d="M206.37,45.54c0-4.21,3.01-5.58,6.58-6.42l6.18-1.44v-.44c0-2.13-1.41-3.45-3.57-3.45s-3.45,1.2-3.89,3.13l-4.41-.52c.68-3.81,3.89-6.26,8.51-6.26,5.06,0,8.35,3.17,8.35,7.83v8.39c0,.52.16.72.52.72h1.12v3.93h-3.01c-1.97,0-2.81-.6-2.81-2.25,0-.48.08-1.08.28-1.81l-.44-.12c-1.44,3.09-3.57,4.49-6.66,4.49-4.05,0-6.74-2.25-6.74-5.78ZM214.43,47.67c2.77,0,4.7-2.01,4.7-5.18v-1.56l-4.54,1.08c-2.25.52-3.21,1.28-3.21,3.05,0,1.61,1.2,2.61,3.05,2.61Z"/><path class="cls-2" d="M229.2,30.57h4.66v.84c0,1.12-.04,2.01-.36,3.61l.48.12c.76-2.69,2.17-4.57,5.46-4.57h1.48v4.9h-2.05c-3.01,0-4.66,1.85-4.66,5.22v10.31h-5.02v-20.43Z"/><path class="cls-2" d="M245.49,55.25h2.97c1.32,0,1.85-.4,2.25-1.61l.8-2.65h-3.69l-5.86-20.43h5.22l4.66,16.45h.68l4.58-16.45h4.94l-6.86,23.64c-1,3.49-2.37,5.02-6.34,5.02h-3.33v-3.97Z"/><path class="cls-2" d="M272.98,22.91h19.42v4.37h-14.29v7.3h11.24v4.37h-11.24v7.67h14.29v4.37h-19.42v-28.09Z"/><path class="cls-2" d="M301.39,51h-5.02v-20.43h4.9v.84c0,1.08-.08,1.81-.36,3.29l.48.12c1.24-2.97,3.17-4.69,6.66-4.69,4.45,0,6.82,2.81,6.82,7.58v13.28h-5.02v-13.12c0-2.41-1.2-3.77-3.61-3.77-2.69,0-4.86,2.05-4.86,5.74v11.16Z"/><path class="cls-2" d="M321.33,45.86v-11.28h-3.65v-4.01h3.65v-5.18h5.02v5.18h5.06v4.01h-5.06v10.67c0,1.28.48,1.77,1.53,1.77h3.53v3.97h-4.45c-3.93,0-5.62-1.56-5.62-5.14Z"/><path class="cls-2" d="M333.37,40.81c0-6.38,4.25-10.67,9.95-10.67s9.95,4.05,9.95,10.23v1.85h-14.97c.28,3.17,2.13,5.38,5.22,5.38,2.37,0,3.69-1.08,4.49-3.05l4.62.72c-1.12,3.77-4.01,6.18-9.11,6.18-5.94,0-10.15-4.41-10.15-10.63ZM338.39,38.76h9.87c-.36-3.01-2.17-4.78-4.94-4.78-2.61,0-4.49,1.85-4.94,4.78Z"/><path class="cls-2" d="M357.09,30.57h4.66v.84c0,1.12-.04,2.01-.36,3.61l.48.12c.76-2.69,2.17-4.57,5.46-4.57h1.49v4.9h-2.05c-3.01,0-4.66,1.85-4.66,5.22v10.31h-5.02v-20.43Z"/><path class="cls-2" d="M371.66,30.57h4.94v1c0,.92-.08,1.65-.36,3.29l.48.12c1.24-3.29,3.61-4.86,6.62-4.86,5.02,0,8.95,4.09,8.95,10.63s-3.93,10.67-8.95,10.67c-3.01,0-5.26-1.56-6.54-4.86l-.44.16c.24,1.61.32,2.37.32,3.25v9.23h-5.02v-28.65ZM387.31,40.81c0-4.09-2.25-6.58-5.34-6.58s-5.34,2.49-5.34,6.58,2.21,6.58,5.34,6.58,5.34-2.53,5.34-6.58Z"/><path class="cls-2" d="M396.05,30.57h4.66v.84c0,1.12-.04,2.01-.36,3.61l.48.12c.76-2.69,2.17-4.57,5.46-4.57h1.48v4.9h-2.05c-3.01,0-4.65,1.85-4.65,5.22v10.31h-5.02v-20.43Z"/><path class="cls-2" d="M417.04,51h-5.02v-16.41h-2.93v-4.01h7.95v20.43ZM411.3,25.08c0-1.69,1.4-3.09,3.05-3.09s3.09,1.4,3.09,3.09-1.36,3.13-3.09,3.13-3.05-1.36-3.05-3.13Z"/><path class="cls-2" d="M421.17,45.46l4.7-.96c.52,2.25,2.33,3.37,4.65,3.37s3.69-1,3.69-2.57c0-1.65-1.57-1.97-4.53-2.53-3.57-.56-8.31-1.2-8.31-6.22,0-3.81,3.25-6.42,8.47-6.42,4.65,0,8.27,1.97,9.11,5.9l-4.74.76c-.48-2.01-2.17-3.09-4.37-3.09-2.41,0-3.61,1.04-3.61,2.41,0,1.65,1.61,2.01,4.54,2.53,3.61.56,8.31,1.24,8.31,6.26,0,3.93-3.21,6.54-8.55,6.54-4.9,0-8.47-1.97-9.35-5.98Z"/><path class="cls-2" d="M441.68,40.81c0-6.38,4.25-10.67,9.95-10.67s9.95,4.05,9.95,10.23v1.85h-14.97c.28,3.17,2.13,5.38,5.22,5.38,2.37,0,3.69-1.08,4.49-3.05l4.62.72c-1.12,3.77-4.01,6.18-9.11,6.18-5.94,0-10.15-4.41-10.15-10.63ZM446.69,38.76h9.87c-.36-3.01-2.17-4.78-4.94-4.78-2.61,0-4.49,1.85-4.94,4.78Z"/></svg>