<?xml version="1.0" encoding="UTF-8"?><svg id="Logos" xmlns="http://www.w3.org/2000/svg" width="458.72" height="72" viewBox="0 0 458.72 72"><defs><style>.cls-1{fill:#f24c53;}.cls-1,.cls-2{stroke-width:0px;}.cls-2{fill:#000;}</style></defs><path class="cls-1" d="M66.32,7.26c-.1-.9-.2-1.4-.4-1.8-.4-.8-1.1-1.5-2-2-.4-.2-.9-.3-1.8-.4-.8-.1-1.9-.1-3.5-.1H10.22c-1.6,0-2.7,0-3.5.1-.9.1-1.4.2-1.8.4-.8.4-1.5,1.1-2,2-.2.4-.3.9-.4,1.8-.1.9-.1,2-.1,3.5v48.4c0,1.6,0,2.7.1,3.5.1.9.2,1.4.4,1.8.4.8,1.1,1.5,2,2,.4.2.9.3,1.8.4.9.1,2,.1,3.5.1h48.4c1.6,0,2.7,0,3.5-.1.9-.1,1.4-.2,1.8-.4.8-.4,1.5-1.1,2-2,.2-.4.3-.9.4-1.8.1-.9.1-2,.1-3.5V10.76c0-1.6,0-2.7-.1-3.5ZM23.57,52.51h-2.6v-2.6h2.6v2.6ZM44.77,52.51h-19.5v-2.6h5.4v-1.6h-2.6v-2.6h12.4l-5.8-10,5.8-10h-12.7v13.7h-6.9v-20.7h23.6l3.9,6.8-5.7,10.1,5.9,10.3-3.8,6.6ZM23.67,48.31v-2.6h2.6v2.6h-2.6Z"/><path class="cls-2" d="M88.09,22.84h10.67c6.7,0,10.23,2.37,10.23,6.82,0,2.93-1.76,5.09-5.05,5.61v.56c3.69.6,6.1,3.01,6.1,6.78,0,5.65-3.57,8.3-10.27,8.3h-11.67v-28.07ZM98.63,34.63c3.13,0,4.93-.92,4.93-3.65s-1.8-3.69-4.93-3.69h-5.21v7.34h5.21ZM99.4,46.46c3.33,0,5.21-1,5.21-3.85s-1.88-3.89-5.21-3.89h-5.97v7.74h5.97Z"/><path class="cls-2" d="M112.35,40.68c0-6.22,4.37-10.67,10.43-10.67s10.43,4.45,10.43,10.67-4.37,10.71-10.43,10.71-10.43-4.49-10.43-10.71ZM127.99,40.68c0-3.85-2.04-6.42-5.21-6.42s-5.21,2.57-5.21,6.42,2.08,6.46,5.21,6.46,5.21-2.57,5.21-6.46Z"/><path class="cls-2" d="M149.76,30.5h5.21v20.41h-5.09v-.8c0-1.04.08-1.8.32-3.29l-.44-.12c-1.24,2.97-3.17,4.69-6.66,4.69-4.45,0-6.78-2.81-6.78-7.58v-13.31h5.21v12.87c0,2.61,1.12,3.89,3.61,3.89,2.65,0,4.61-2.01,4.61-5.57v-11.19Z"/><path class="cls-2" d="M164.48,50.91h-5.21v-20.41h5.09v.8c0,1.04-.08,1.76-.36,3.25l.48.16c1.24-2.97,3.13-4.69,6.62-4.69,4.45,0,6.82,2.81,6.82,7.58v13.31h-5.21v-13.15c0-2.33-1.16-3.61-3.49-3.61-2.65,0-4.73,2-4.73,5.53v11.23Z"/><path class="cls-2" d="M181.12,40.72c0-6.58,3.93-10.71,8.9-10.71,3.01,0,5.25,1.56,6.5,4.81l.48-.12c-.28-1.64-.36-2.37-.36-3.29v-9.38h5.21v28.87h-5.09v-.96c0-.88.04-1.64.32-3.25l-.44-.16c-1.28,3.29-3.61,4.85-6.62,4.85-4.97,0-8.9-4.09-8.9-10.67ZM196.72,40.68c0-3.97-2.17-6.42-5.21-6.42s-5.21,2.45-5.21,6.42,2.17,6.46,5.21,6.46,5.21-2.45,5.21-6.46Z"/><path class="cls-2" d="M204.94,45.45c0-4.21,2.97-5.61,6.58-6.46l6.1-1.4v-.48c0-2.04-1.32-3.33-3.45-3.33s-3.37,1.16-3.77,3.09l-4.57-.52c.68-3.85,3.93-6.34,8.54-6.34,5.09,0,8.42,3.21,8.42,7.9v8.22c0,.52.16.68.52.68h1.12v4.09h-3.13c-1.96,0-2.85-.64-2.85-2.25,0-.48.08-1.04.28-1.76l-.44-.16c-1.44,3.13-3.57,4.49-6.58,4.49-4.13,0-6.78-2.29-6.78-5.77ZM213.08,47.46c2.65,0,4.53-1.92,4.53-4.97v-1.6l-4.37,1.04c-2.21.52-3.13,1.28-3.13,2.97s1.16,2.57,2.97,2.57Z"/><path class="cls-2" d="M227.43,30.5h4.81v.8c0,1.08-.04,1.96-.36,3.61l.48.12c.76-2.69,2.17-4.53,5.45-4.53h1.48v5.05h-2.12c-2.93,0-4.53,1.76-4.53,5.01v10.35h-5.21v-20.41Z"/><path class="cls-2" d="M243.55,55h3.05c1.32,0,1.84-.4,2.21-1.56l.76-2.53h-3.81l-5.77-20.41h5.41l4.53,16.32h.68l4.45-16.32h5.13l-6.74,23.58c-1,3.53-2.45,5.05-6.46,5.05h-3.45v-4.13Z"/><path class="cls-2" d="M270.3,22.84h19.53v4.53h-14.2v7.06h11.15v4.53h-11.15v7.42h14.2v4.53h-19.53v-28.07Z"/><path class="cls-2" d="M298.61,50.91h-5.21v-20.41h5.09v.8c0,1.04-.08,1.76-.36,3.25l.48.16c1.24-2.97,3.13-4.69,6.62-4.69,4.45,0,6.82,2.81,6.82,7.58v13.31h-5.21v-13.15c0-2.33-1.16-3.61-3.49-3.61-2.65,0-4.73,2-4.73,5.53v11.23Z"/><path class="cls-2" d="M318.06,45.74v-11.11h-3.61v-4.13h3.61v-5.17h5.21v5.17h4.97v4.13h-4.97v10.47c0,1.24.44,1.68,1.44,1.68h3.53v4.13h-4.53c-3.97,0-5.65-1.6-5.65-5.17Z"/><path class="cls-2" d="M329.81,40.68c0-6.34,4.25-10.67,9.99-10.67s10.02,4.09,10.02,10.23v1.92h-14.88c.28,3.05,2.04,5.21,5.05,5.21,2.33,0,3.61-1.04,4.37-2.97l4.81.8c-1.12,3.69-4.01,6.18-9.18,6.18-5.93,0-10.19-4.49-10.19-10.71ZM335.02,38.64h9.58c-.36-2.93-2.08-4.61-4.81-4.61-2.49,0-4.33,1.72-4.77,4.61Z"/><path class="cls-2" d="M353.23,30.5h4.81v.8c0,1.08-.04,1.96-.36,3.61l.48.12c.76-2.69,2.17-4.53,5.45-4.53h1.48v5.05h-2.12c-2.93,0-4.53,1.76-4.53,5.01v10.35h-5.21v-20.41Z"/><path class="cls-2" d="M367.54,30.5h5.13v.92c0,.92-.08,1.64-.36,3.29l.48.12c1.24-3.25,3.57-4.81,6.58-4.81,4.97,0,8.9,4.09,8.9,10.67s-3.93,10.71-8.9,10.71c-3.01,0-5.21-1.56-6.5-4.85l-.44.16c.24,1.6.32,2.37.32,3.25v9.18h-5.21v-28.63ZM383.1,40.68c0-3.97-2.17-6.42-5.21-6.42s-5.21,2.45-5.21,6.42,2.17,6.46,5.21,6.46,5.21-2.45,5.21-6.46Z"/><path class="cls-2" d="M391.64,30.5h4.81v.8c0,1.08-.04,1.96-.36,3.61l.48.12c.76-2.69,2.17-4.53,5.45-4.53h1.48v5.05h-2.12c-2.93,0-4.53,1.76-4.53,5.01v10.35h-5.21v-20.41Z"/><path class="cls-2" d="M412.57,50.91h-5.21v-16.28h-2.89v-4.13h8.1v20.41ZM406.64,25.04c0-1.76,1.4-3.21,3.13-3.21s3.17,1.44,3.17,3.21-1.4,3.17-3.17,3.17-3.13-1.4-3.13-3.17Z"/><path class="cls-2" d="M416.22,45.37l4.89-.96c.52,2.17,2.25,3.25,4.53,3.25s3.57-.92,3.57-2.49-1.52-1.88-4.41-2.41c-3.65-.56-8.38-1.24-8.38-6.3,0-3.81,3.25-6.46,8.54-6.46,4.69,0,8.34,1.96,9.18,5.93l-4.93.8c-.44-2-2.08-3.05-4.25-3.05-2.37,0-3.49,1-3.49,2.37,0,1.56,1.56,1.88,4.45,2.41,3.61.56,8.34,1.24,8.34,6.3,0,3.97-3.21,6.62-8.62,6.62-4.89,0-8.54-2.01-9.42-6.02Z"/><path class="cls-2" d="M436.43,40.68c0-6.34,4.25-10.67,9.98-10.67s10.03,4.09,10.03,10.23v1.92h-14.88c.28,3.05,2.04,5.21,5.05,5.21,2.33,0,3.61-1.04,4.37-2.97l4.81.8c-1.12,3.69-4.01,6.18-9.18,6.18-5.94,0-10.19-4.49-10.19-10.71ZM441.65,38.64h9.58c-.36-2.93-2.08-4.61-4.81-4.61-2.49,0-4.33,1.72-4.77,4.61Z"/></svg>