<?xml version="1.0" encoding="UTF-8"?>
<svg id="Layer_1" data-name="Layer 1" xmlns="http://www.w3.org/2000/svg" version="1.1" viewBox="0 0 318 123">
  <defs>
    <style>
      .cls-1 {
        fill: #000;
      }

      .cls-1, .cls-2, .cls-3 {
        stroke-width: 0px;
      }

      .cls-2 {
        fill: #ee0c5d;
      }

      .cls-3 {
        fill: #231f20;
      }
    </style>
  </defs>
  <g>
    <g>
      <path class="cls-3" d="M94.9,66.1h0c0-4.9,3.6-8.8,8.8-8.8s5.1,1.1,6.7,2.6l-2.4,2.7c-1.3-1.2-2.6-1.9-4.3-1.9-2.9,0-4.9,2.4-4.9,5.3h0c0,2.9,2,5.4,4.9,5.4s3.1-.8,4.5-2l2.4,2.4c-1.7,1.9-3.7,3-6.9,3-5,0-8.7-3.9-8.7-8.7Z"/>
      <path class="cls-3" d="M113.5,57.6h3.7s0,6.7,0,6.7h6.9s0-6.7,0-6.7h3.7s0,16.9,0,16.9h-3.7s0-6.8,0-6.8h-6.9s0,6.8,0,6.8h-3.7s0-16.9,0-16.9Z"/>
      <path class="cls-3" d="M132.3,57.7h12.8s0,3.3,0,3.3h-9.1s0,3.4,0,3.4h8s0,3.3,0,3.3h-8s0,3.5,0,3.5h9.2s0,3.3,0,3.3h-12.9s0-17,0-17Z"/>
      <path class="cls-3" d="M147.7,66.2h0c0-4.9,3.7-8.8,8.8-8.8s5.1,1.1,6.7,2.6l-2.4,2.7c-1.3-1.2-2.6-1.9-4.3-1.9-2.9,0-4.9,2.4-4.9,5.3h0c0,2.9,2,5.4,4.9,5.4,1.9,0,3.1-.8,4.5-2l2.4,2.4c-1.7,1.9-3.7,3-6.9,3-5,0-8.7-3.9-8.7-8.7Z"/>
      <path class="cls-3" d="M166.1,57.8h3.7s0,7.4,0,7.4l6.9-7.4h4.5s-6.9,7.2-6.9,7.2l7.2,9.8h-4.5s-5.2-7.2-5.2-7.2l-2,2v5.2s-3.7,0-3.7,0v-16.9Z"/>
      <path class="cls-3" d="M191.6,57.8h6.9c4,0,6.5,2.4,6.5,5.9h0c0,4-3.1,6-6.9,6h-2.8s0,5.1,0,5.1h-3.7s0-16.9,0-16.9ZM198.2,66.4c1.9,0,2.9-1.1,3-2.6h0c0-1.7-1.2-2.6-3-2.6h-2.9s0,5.2,0,5.2h3Z"/>
      <path class="cls-3" d="M207.4,66.4h0c0-4.9,3.8-8.8,9-8.8s9,3.9,8.9,8.7h0c0,4.9-3.8,8.8-9,8.8-5.2,0-9-3.9-8.9-8.7ZM221.5,66.4h0c0-2.9-2.1-5.4-5.1-5.4s-5.1,2.4-5.1,5.3h0c0,2.9,2.1,5.4,5.1,5.4s5.1-2.4,5.1-5.3Z"/>
      <path class="cls-3" d="M229,57.9h3.7s0,16.9,0,16.9h-3.7s0-16.9,0-16.9Z"/>
      <path class="cls-3" d="M237.4,57.9h3.4s7.9,10.4,7.9,10.4v-10.4s3.7,0,3.7,0v16.9s-3.2,0-3.2,0l-8.2-10.8v10.8s-3.7,0-3.7,0v-16.9Z"/>
      <path class="cls-3" d="M260.9,61.4h-5.1s0-3.4,0-3.4h14s0,3.5,0,3.5h-5.1s0,13.5,0,13.5h-3.7s0-13.5,0-13.5Z"/>
    </g>
    <polygon class="cls-1" points="73.1 44.7 73.1 44.7 73.1 44.7 73.1 44.7"/>
    <polygon class="cls-1" points="81.5 56.9 81.5 56.9 81.5 56.9 81.5 56.9"/>
    <path class="cls-3" d="M91.9,44.9c-2.7,3.3-7.5,3.8-10.8,1.2-3.3-2.7-3.8-7.5-1.2-10.8,2.7-3.3,7.5-3.8,10.8-1.2,3.3,2.7,3.8,7.5,1.2,10.8Z"/>
    <path class="cls-2" d="M81.5,56.9c-2.1,1-4.7,1-6.9-.3l-6,8c.8.9,1.2,2,1.2,3.1,0,1-.2,2-.8,2.9-1.5,2.3-4.7,3-7,1.5-.2-.2-.5-.3-.7-.5,0,0-.1-.1-.2-.2-.1-.1-.3-.3-.4-.5,0,0-.1-.1-.2-.2-.1-.2-.3-.4-.4-.7,0,0,0-.1,0-.2,0-.2-.2-.4-.2-.6,0,0,0-.1,0-.2,0-.2,0-.5-.1-.7,0,0,0-.1,0-.2,0-.2,0-.5,0-.7,0,0,0,0,0-.1,0-.3,0-.5.2-.8,0,0,0-.1,0-.2,0-.3.2-.5.3-.8l-4.9-3.7-1.5,2-5.6-4.2,4.2-5.6,5.6,4.2-1.5,2,4.9,3.7c1.5-1.3,3.7-1.6,5.6-.6l6-8c-2.4-2.4-3-6.1-1.2-9.2.3-.6.8-1.1,1.2-1.6-3.3-2.2-7.2-3.5-11.5-3.6-11.3,0-20.5,9.1-20.6,20.5,0,11.3,9.1,20.5,20.5,20.6,11.3,0,20.5-9.1,20.6-20.5,0-1.7-.2-3.3-.6-4.8Z"/>
  </g>
  <g>
    <path class="cls-3" d="M273.3,60.4h-.4s0-2,0-2h-.7s0-.4,0-.4h1.9s0,.4,0,.4h-.7s0,2,0,2Z"/>
    <path class="cls-3" d="M275.8,59.8h0s-.7-1.1-.7-1.1v1.7s-.4,0-.4,0v-2.3s.4,0,.4,0l.7,1.1.7-1.1h.4s0,2.3,0,2.3h-.4s0-1.7,0-1.7l-.7,1.1Z"/>
  </g>
</svg>