<?xml version="1.0" encoding="UTF-8"?><svg id="Logos" xmlns="http://www.w3.org/2000/svg" width="449.39" height="72" viewBox="0 0 449.39 72"><defs><style>.cls-1{fill:#000;}.cls-1,.cls-2{stroke-width:0px;}.cls-2{fill:#e03875;}</style></defs><path class="cls-1" d="M86.86,36.92c0-8.42,5.53-14.52,13.55-14.52,6.74,0,11.35,3.89,12.59,9.18l-5.29,1.28c-1-3.69-3.45-5.77-7.3-5.77-4.89,0-7.98,4.05-7.98,9.82s3.21,9.82,8.18,9.82c3.93,0,6.34-2.12,7.34-6.05l5.01.56c-1.2,6.29-5.85,10.19-12.43,10.19-8.1,0-13.67-6.1-13.67-14.52Z"/><path class="cls-1" d="M115.13,40.73c0-6.22,4.37-10.67,10.43-10.67s10.43,4.45,10.43,10.67-4.37,10.71-10.43,10.71-10.43-4.49-10.43-10.71ZM130.77,40.73c0-3.85-2.05-6.42-5.21-6.42s-5.21,2.57-5.21,6.42,2.09,6.46,5.21,6.46,5.21-2.57,5.21-6.46Z"/><path class="cls-1" d="M144.48,50.96h-5.21v-20.41h5.09v.8c0,1.04-.08,1.76-.36,3.25l.48.16c1.24-2.97,3.13-4.69,6.62-4.69,4.45,0,6.82,2.81,6.82,7.58v13.31h-5.21v-13.15c0-2.33-1.16-3.61-3.49-3.61-2.65,0-4.73,2-4.73,5.53v11.23Z"/><path class="cls-1" d="M160.92,45.43l4.89-.96c.52,2.17,2.25,3.25,4.53,3.25s3.57-.92,3.57-2.49-1.52-1.88-4.41-2.41c-3.65-.56-8.38-1.24-8.38-6.3,0-3.81,3.25-6.46,8.54-6.46,4.69,0,8.34,1.96,9.18,5.93l-4.93.8c-.44-2-2.08-3.05-4.25-3.05-2.37,0-3.49,1-3.49,2.37,0,1.56,1.56,1.88,4.45,2.41,3.61.56,8.34,1.24,8.34,6.3,0,3.97-3.21,6.62-8.62,6.62-4.89,0-8.54-2.01-9.42-6.02Z"/><path class="cls-1" d="M195.41,30.55h5.21v20.41h-5.09v-.8c0-1.04.08-1.8.32-3.29l-.44-.12c-1.24,2.97-3.17,4.69-6.66,4.69-4.45,0-6.78-2.81-6.78-7.58v-13.31h5.21v12.87c0,2.61,1.12,3.89,3.61,3.89,2.65,0,4.61-2,4.61-5.57v-11.19Z"/><path class="cls-1" d="M211.29,45.87c0,.76.28,1,.84,1h2.37v4.09h-4.81c-2.37,0-3.61-1.32-3.61-3.77v-20.97h-2.89v-4.13h8.1v23.78Z"/><path class="cls-1" d="M224.08,36.92c0-8.42,5.53-14.52,13.55-14.52,6.74,0,11.35,3.89,12.59,9.18l-5.29,1.28c-1-3.69-3.45-5.77-7.3-5.77-4.89,0-7.98,4.05-7.98,9.82s3.21,9.82,8.18,9.82c3.93,0,6.34-2.12,7.34-6.05l5.01.56c-1.2,6.29-5.85,10.19-12.43,10.19-8.1,0-13.67-6.1-13.67-14.52Z"/><path class="cls-1" d="M252.35,40.73c0-6.22,4.37-10.67,10.43-10.67s10.43,4.45,10.43,10.67-4.37,10.71-10.43,10.71-10.43-4.49-10.43-10.71ZM267.99,40.73c0-3.85-2.05-6.42-5.21-6.42s-5.21,2.57-5.21,6.42,2.09,6.46,5.21,6.46,5.21-2.57,5.21-6.46Z"/><path class="cls-1" d="M276.49,30.55h5.09v.8c0,1.08-.08,1.8-.36,3.25l.48.16c1.04-3.17,3.05-4.69,6.26-4.69s5.37,1.48,6.14,4.61h.48c1.04-3.09,3.09-4.61,6.1-4.61,4.25,0,6.46,2.73,6.46,7.42v13.47h-4.89v-13.27c0-2.25-1.12-3.49-3.17-3.49-2.65,0-4.49,2.21-4.49,5.45v11.31h-5.21v-13.27c0-2.25-1.12-3.49-3.13-3.49-2.65,0-4.53,2.21-4.53,5.45v11.31h-5.21v-20.41Z"/><path class="cls-1" d="M311.26,30.55h5.09v.8c0,1.08-.08,1.8-.36,3.25l.48.16c1.04-3.17,3.05-4.69,6.26-4.69s5.37,1.48,6.14,4.61h.48c1.04-3.09,3.09-4.61,6.1-4.61,4.25,0,6.46,2.73,6.46,7.42v13.47h-4.89v-13.27c0-2.25-1.12-3.49-3.17-3.49-2.65,0-4.49,2.21-4.49,5.45v11.31h-5.21v-13.27c0-2.25-1.12-3.49-3.13-3.49-2.65,0-4.53,2.21-4.53,5.45v11.31h-5.21v-20.41Z"/><path class="cls-1" d="M359.3,30.55h5.21v20.41h-5.09v-.8c0-1.04.08-1.8.32-3.29l-.44-.12c-1.24,2.97-3.17,4.69-6.66,4.69-4.45,0-6.78-2.81-6.78-7.58v-13.31h5.21v12.87c0,2.61,1.12,3.89,3.61,3.89,2.65,0,4.61-2,4.61-5.57v-11.19Z"/><path class="cls-1" d="M374.01,50.96h-5.21v-20.41h5.09v.8c0,1.04-.08,1.76-.36,3.25l.48.16c1.24-2.97,3.13-4.69,6.62-4.69,4.45,0,6.82,2.81,6.82,7.58v13.31h-5.21v-13.15c0-2.33-1.16-3.61-3.49-3.61-2.65,0-4.73,2-4.73,5.53v11.23Z"/><path class="cls-1" d="M397.99,50.96h-5.21v-16.28h-2.89v-4.13h8.1v20.41ZM392.06,25.09c0-1.76,1.4-3.21,3.13-3.21s3.17,1.44,3.17,3.21-1.4,3.17-3.17,3.17-3.13-1.4-3.13-3.17Z"/><path class="cls-1" d="M404.61,45.79v-11.11h-3.61v-4.13h3.61v-5.17h5.21v5.17h4.97v4.13h-4.97v10.47c0,1.24.44,1.68,1.44,1.68h3.53v4.13h-4.53c-3.97,0-5.65-1.6-5.65-5.17Z"/><path class="cls-1" d="M419.77,55.05h3.05c1.32,0,1.84-.4,2.21-1.56l.76-2.53h-3.81l-5.77-20.41h5.41l4.53,16.32h.68l4.45-16.32h5.13l-6.74,23.58c-1,3.53-2.45,5.05-6.46,5.05h-3.45v-4.13Z"/><path class="cls-2" d="M41.06,64.56c-4.57,0-9.06-1.11-13.1-3.24-4.04-2.13-7.5-5.21-10.08-8.98-2.58-3.77-4.2-8.11-4.72-12.64-.52-4.54.07-9.13,1.73-13.38,1.66-4.25,4.33-8.04,7.78-11.03,3.45-2.99,7.58-5.09,12.03-6.12,4.45-1.03,9.08-.96,13.49.21,4.41,1.17,8.48,3.39,11.84,6.48h0l-6.66,6.96c-2.65-2.39-5.93-3.96-9.45-4.52-3.52-.56-7.13-.09-10.39,1.36-3.26,1.45-6.03,3.81-7.97,6.8-1.94,2.99-2.98,6.48-2.98,10.05s1.03,7.06,2.98,10.05c1.94,2.99,4.71,5.35,7.97,6.8,3.26,1.45,6.87,1.92,10.39,1.36,3.52-.56,6.81-2.13,9.45-4.52l6.66,6.96c-5.17,4.76-11.95,7.41-18.98,7.4h0Z"/><path class="cls-2" d="M63.63,50.53c-.45,0-.9-.13-1.28-.39-.38-.25-.67-.61-.85-1.03-.17-.42-.22-.88-.13-1.33.09-.45.31-.86.63-1.18.32-.32.73-.54,1.18-.63.45-.09.91-.04,1.33.13s.78.47,1.03.85c.25.38.39.82.39,1.28,0,.61-.24,1.19-.67,1.62-.43.43-1.02.67-1.62.67h0Z"/><path class="cls-2" d="M40.88,42.59c-1.2,0-2.38-.35-3.38-1.01-1-.67-1.79-1.61-2.25-2.72-.46-1.11-.59-2.33-.36-3.51.23-1.18.81-2.27,1.66-3.12.85-.85,1.93-1.43,3.11-1.67,1.18-.24,2.4-.12,3.52.34,1.11.46,2.06,1.24,2.73,2.24.67,1,1.02,2.18,1.02,3.38,0,1.61-.64,3.15-1.77,4.28-1.13,1.14-2.67,1.78-4.28,1.79h0Z"/><path class="cls-2" d="M66.27,42.7c-.45,0-.9-.13-1.28-.39-.38-.25-.67-.61-.85-1.03-.17-.42-.22-.88-.13-1.33.09-.45.31-.86.63-1.18s.73-.54,1.18-.63c.45-.09.91-.04,1.33.13.42.17.78.47,1.03.85.25.38.39.82.39,1.28,0,.61-.24,1.19-.67,1.62s-1.02.67-1.62.67Z"/><path class="cls-2" d="M59.43,42.41c-.46,0-.9-.14-1.28-.39-.38-.25-.67-.61-.85-1.04-.17-.42-.22-.89-.13-1.33.09-.45.31-.86.64-1.18.32-.32.74-.54,1.18-.62.45-.09.91-.04,1.33.14.42.18.78.48,1.03.86.25.38.38.83.37,1.28,0,.61-.25,1.18-.68,1.61-.43.43-1.01.66-1.62.66h0Z"/><path class="cls-2" d="M66.27,34.95c-.45,0-.9-.14-1.28-.39-.38-.25-.67-.61-.85-1.03-.17-.42-.22-.88-.13-1.33.09-.45.31-.86.63-1.18.32-.32.73-.54,1.18-.63.45-.09.91-.04,1.33.13.42.17.78.47,1.03.85.25.38.39.82.39,1.28,0,.61-.24,1.19-.67,1.62-.43.43-1.02.67-1.62.67Z"/><path class="cls-2" d="M59.43,35.21c-.45,0-.9-.13-1.28-.39-.38-.25-.67-.61-.85-1.03-.17-.42-.22-.88-.13-1.33.09-.45.31-.86.63-1.18.32-.32.73-.54,1.18-.63.45-.09.91-.04,1.33.13.42.17.78.47,1.03.85.25.38.39.82.39,1.28,0,.61-.24,1.19-.67,1.63-.43.43-1.02.67-1.63.67h0Z"/><path class="cls-2" d="M63.76,27.22c-.45,0-.9-.13-1.28-.38-.38-.25-.67-.61-.85-1.03-.17-.42-.22-.88-.13-1.33.09-.45.31-.86.63-1.18.32-.32.73-.54,1.18-.63.45-.09.91-.04,1.33.13.42.17.78.47,1.03.85.25.38.39.82.39,1.28,0,.61-.24,1.19-.67,1.62-.43.43-1.01.67-1.62.68Z"/></svg>