<?xml version="1.0"?><svg xmlns="http://www.w3.org/2000/svg" viewBox="0 0 575.48 132.35"><defs><style>.cls-1{fill:#cc2a2e;}</style></defs><title>CouchbaseLogo</title><path d="M210.31,120.94c-20.32,0-30.52-14.65-30.52-30.76s10.56-30.59,30.72-30.59c7.73,0,13.22,1.69,17.87,4.73L222.6,73.8a21.31,21.31,0,0,0-12.29-3.45c-10.87,0-16.71,8.67-16.71,19.47,0,11.14,5.58,20.27,16.91,20.27a20.77,20.77,0,0,0,13.32-4.51l5.33,9.11C226.14,117.43,219,120.94,210.31,120.94Z" transform="translate(-11.62 -24.09)"/><path d="M253.38,84.51c-6.52,0-8.63,5.47-8.63,13.45s2.56,13.73,9.07,13.73,8.83-5.35,8.83-13.36S260,84.51,253.38,84.51Zm0.24,36.43c-15.16,0-21.85-11.4-21.85-22.6s6.6-22.9,21.76-22.9S275.63,86.75,275.63,98C275.63,109,268.87,120.94,253.62,120.94Z" transform="translate(-11.62 -24.09)"/><path d="M294.83,76.51v27.83c0,4.27,1.49,6.4,5.65,6.4,4.38,0,7.74-4.16,8.62-5.22v-29h12.25v30.63a64.25,64.25,0,0,0,1.17,12.74H310.45a31.68,31.68,0,0,1-.89-5.76,17.36,17.36,0,0,1-14,6.82c-9.56,0-13-6.13-13-14.09V76.51h12.25Z" transform="translate(-11.62 -24.09)"/><path d="M351.34,120.94c-14,0-22.65-9.13-22.65-22.7,0-14.58,9.74-22.8,23-22.8,7,0,11.22,2.09,13.27,3.42l-3.89,8.36a15.94,15.94,0,0,0-9-2.51c-6.81,0-10.42,5.27-10.42,13.15s3.44,13.63,10.69,13.63a17,17,0,0,0,9.24-2.58l3.71,8.16C363.28,118.38,359.28,120.94,351.34,120.94Z" transform="translate(-11.62 -24.09)"/><path d="M398.07,119.88V92c0-4.27-1.49-6.4-5.58-6.4-4.45,0-7.81,4.09-8.69,5.24v29H371.55v-64H383.8V81.69a17.79,17.79,0,0,1,13.49-6.25c9.56,0,13,6.09,13,14.11v30.32H398.07Z" transform="translate(-11.62 -24.09)"/><path d="M432.54,110.45a16.57,16.57,0,0,0,5.83.93c6.33,0,10.18-4.62,10.18-13.52,0-8-2.71-12.78-8.89-12.78a9.94,9.94,0,0,0-7.11,3.23v22.14Zm0-54.59v24a15.32,15.32,0,0,1,10.58-4.47c10.78,0,18.4,7.38,18.4,22.43s-10,23.07-23.16,23.07c-9.89,0-15.94-2.46-18.07-3.46V55.86h12.25Z" transform="translate(-11.62 -24.09)"/><path d="M490.56,100.76h-1.49c-6.73,0-11.38,2-11.38,6.91,0,3.09,2.47,4.42,5.16,4.42a10.25,10.25,0,0,0,7.71-3.65v-7.69Zm1.38,19.12a23.78,23.78,0,0,1-.73-4.6,15.73,15.73,0,0,1-12.11,5.67c-7.4,0-13.14-4.44-13.14-12.25,0-11.27,11.58-15.43,23.12-15.43h1.49V90.89c0-3.6-1.47-5.8-6.91-5.8a18.35,18.35,0,0,0-11,4l-5.29-7.42c2.62-2.36,8.4-6.27,17.72-6.27,12,0,17.67,4.58,17.67,16.16v15.23a60.42,60.42,0,0,0,1.24,13h-12Z" transform="translate(-11.62 -24.09)"/><path d="M524.76,120.94c-7.84,0-12.85-2.31-15.51-4.09l4.09-8.53A20.32,20.32,0,0,0,524,111.87c4.47,0,7-1.26,7-3.73,0-2.84-4.92-3.6-11.07-6.55-6-2.87-9.51-6.23-9.51-12.76,0-8.2,6.51-13.38,16.38-13.38a27,27,0,0,1,14,3.45l-4.25,8.34a18.2,18.2,0,0,0-9.25-2.71c-4.13,0-5.87,1.45-5.87,3.67,0,2.85,4,3.54,9,5.54,6.85,2.76,11.71,6,11.71,13.25C542.1,116.14,535.54,120.94,524.76,120.94Z" transform="translate(-11.62 -24.09)"/><path d="M575.14,92.91c-0.09-4.8-2-8.69-7.25-8.69-4.85,0-7.6,3.08-8.4,8.69h15.65Zm-4.67,19a22.2,22.2,0,0,0,11.25-3l3.91,7.85c-2.89,1.62-7.31,4.18-16.29,4.18-14.58,0-22.87-9.09-22.87-23S556,75.44,568.08,75.44c13.67,0,20.27,9.49,18.83,25.7H559.56C560.14,107.61,563.47,111.87,570.47,111.87Z" transform="translate(-11.62 -24.09)"/><path class="cls-1" d="M77.79,24.09A66.17,66.17,0,1,0,144,90.27,66.18,66.18,0,0,0,77.79,24.09Zm44.73,77.77a8,8,0,0,1-6.81,8.29c-7.81,1.36-24.18,2.19-37.91,2.19s-30.11-.83-37.92-2.19a8,8,0,0,1-6.81-8.29V76a8.61,8.61,0,0,1,6.81-8.3A86.91,86.91,0,0,1,51.77,67a2.92,2.92,0,0,1,2.87,3.14V88.16c8.07,0,15.07-.48,23.16-0.48s15.09,0.46,23.16.48V70.09A2.92,2.92,0,0,1,103.82,67a86.88,86.88,0,0,1,11.89.77,8.61,8.61,0,0,1,6.81,8.3v25.84Z" transform="translate(-11.62 -24.09)"/></svg>