<?xml version="1.0" encoding="UTF-8"?><svg id="Logos" xmlns="http://www.w3.org/2000/svg" width="240.72" height="72" viewBox="0 0 240.72 72"><defs><style>.cls-1{fill:#000;}.cls-1,.cls-2,.cls-3{stroke-width:0px;}.cls-2,.cls-3{fill:#02a8ef;}.cls-3{fill-rule:evenodd;}</style></defs><path class="cls-1" d="M88.13,1.75h2.18v4.68h4.99V1.75h2.19v11.45h-2.19v-4.81h-4.99v4.81h-2.18V1.75Z"/><path class="cls-1" d="M98.88,10.98c0-1.72,1.21-2.29,2.68-2.63l2.49-.57v-.2c0-.83-.54-1.36-1.41-1.36s-1.37.47-1.54,1.26l-1.86-.21c.28-1.57,1.6-2.58,3.48-2.58,2.08,0,3.43,1.31,3.43,3.22v3.35c0,.21.07.28.21.28h.46v1.67h-1.28c-.8,0-1.16-.26-1.16-.92,0-.2.03-.43.11-.72l-.18-.07c-.59,1.28-1.46,1.83-2.68,1.83-1.68,0-2.76-.93-2.76-2.36ZM102.2,11.8c1.08,0,1.85-.79,1.85-2.03v-.65l-1.78.43c-.9.21-1.28.52-1.28,1.21s.47,1.05,1.21,1.05Z"/><path class="cls-1" d="M107.6,10.95l2-.39c.21.88.92,1.33,1.85,1.33s1.46-.38,1.46-1.01-.62-.77-1.8-.98c-1.49-.23-3.42-.51-3.42-2.57,0-1.55,1.32-2.63,3.48-2.63,1.91,0,3.4.8,3.75,2.42l-2.01.33c-.18-.82-.85-1.24-1.73-1.24-.97,0-1.42.41-1.42.96,0,.64.64.77,1.82.98,1.47.23,3.4.51,3.4,2.57,0,1.62-1.31,2.7-3.52,2.7-2,0-3.48-.82-3.84-2.45Z"/><path class="cls-1" d="M118.38,13.2h-2.13V1.43h2.13v3.66c0,.43-.08.83-.2,1.44l.2.07c.51-1.21,1.28-1.91,2.7-1.91,1.82,0,2.78,1.14,2.78,3.09v5.43h-2.13v-5.37c0-.95-.47-1.47-1.42-1.47-1.08,0-1.93.82-1.93,2.26v4.58Z"/><path class="cls-1" d="M128.23,11.09c0,.33.11.42.36.42h.93v1.69h-1.93c-.97,0-1.49-.54-1.49-1.54v-5.1h-1.18v-1.68h3.3v6.22ZM125.81,2.65c0-.72.59-1.31,1.29-1.31s1.29.59,1.29,1.31-.57,1.29-1.29,1.29-1.29-.57-1.29-1.29Z"/><path class="cls-1" d="M130.23,7.48c0-3.44,2.26-5.92,5.53-5.92,2.75,0,4.63,1.59,5.14,3.75l-2.16.52c-.41-1.5-1.41-2.36-2.98-2.36-2,0-3.25,1.65-3.25,4.01s1.31,4.01,3.34,4.01c1.6,0,2.58-.87,2.99-2.47l2.04.23c-.49,2.57-2.39,4.15-5.07,4.15-3.3,0-5.58-2.49-5.58-5.92Z"/><path class="cls-1" d="M141.76,9.03c0-2.54,1.78-4.35,4.25-4.35s4.25,1.82,4.25,4.35-1.78,4.37-4.25,4.37-4.25-1.83-4.25-4.37ZM148.14,9.03c0-1.57-.83-2.62-2.13-2.62s-2.13,1.05-2.13,2.62.85,2.63,2.13,2.63,2.13-1.05,2.13-2.63Z"/><path class="cls-1" d="M151.61,4.88h1.96v.33c0,.44-.02.8-.15,1.47l.2.05c.31-1.1.88-1.85,2.22-1.85h.61v2.06h-.87c-1.19,0-1.85.72-1.85,2.04v4.22h-2.13V4.88Z"/><path class="cls-1" d="M157.45,4.88h2.09v.38c0,.38-.03.67-.15,1.34l.2.05c.51-1.33,1.46-1.96,2.68-1.96,2.03,0,3.63,1.67,3.63,4.35s-1.6,4.37-3.63,4.37c-1.23,0-2.13-.64-2.65-1.98l-.18.07c.1.65.13.96.13,1.32v3.75h-2.13V4.88ZM163.8,9.03c0-1.62-.88-2.62-2.13-2.62s-2.13,1-2.13,2.62.88,2.63,2.13,2.63,2.13-1,2.13-2.63Z"/><path class="cls-1" d="M88.09,22.94h10.03c6.86,0,11.15,3.29,11.15,9.3s-4.29,9.3-11.15,9.3h-4.69v9.46h-5.33v-28.07ZM98.12,37.09c3.73,0,5.73-1.6,5.73-4.85s-2.01-4.81-5.73-4.81h-4.69v9.66h4.69Z"/><path class="cls-1" d="M110.47,45.55c0-4.21,2.97-5.61,6.58-6.46l6.1-1.4v-.48c0-2.04-1.32-3.33-3.45-3.33s-3.37,1.16-3.77,3.09l-4.57-.52c.68-3.85,3.93-6.34,8.54-6.34,5.09,0,8.42,3.21,8.42,7.9v8.22c0,.52.16.68.52.68h1.12v4.09h-3.13c-1.97,0-2.85-.64-2.85-2.25,0-.48.08-1.04.28-1.76l-.44-.16c-1.44,3.13-3.57,4.49-6.58,4.49-4.13,0-6.78-2.29-6.78-5.77ZM118.61,47.56c2.65,0,4.53-1.92,4.53-4.97v-1.6l-4.37,1.04c-2.21.52-3.13,1.28-3.13,2.97s1.16,2.57,2.97,2.57Z"/><path class="cls-1" d="M131.96,40.78c0-6.1,4.33-10.67,10.27-10.67,5.05,0,8.3,2.81,9.38,6.58l-4.89,1.28c-.72-2.41-2.25-3.61-4.53-3.61-3.01,0-5.01,2.57-5.01,6.42s2.01,6.46,5.13,6.46c2.49,0,4.09-1.36,4.77-3.85l4.57.48c-1.16,4.73-4.33,7.62-9.46,7.62-5.85,0-10.23-4.61-10.23-10.71Z"/><path class="cls-1" d="M154.66,22.13h5.21v16.4h2.05l5.73-7.94h5.33l-7.06,9.62,8.14,10.79h-5.9l-6.26-8.38h-2.05v8.38h-5.21v-28.87Z"/><path class="cls-1" d="M173.59,40.78c0-6.34,4.25-10.67,9.98-10.67s10.03,4.09,10.03,10.23v1.92h-14.88c.28,3.05,2.05,5.21,5.05,5.21,2.33,0,3.61-1.04,4.37-2.97l4.81.8c-1.12,3.69-4.01,6.18-9.18,6.18-5.94,0-10.19-4.49-10.19-10.71ZM178.8,38.74h9.58c-.36-2.93-2.08-4.61-4.81-4.61-2.49,0-4.33,1.72-4.77,4.61Z"/><path class="cls-1" d="M197,30.6h4.81v.8c0,1.08-.04,1.96-.36,3.61l.48.12c.76-2.69,2.17-4.53,5.45-4.53h1.48v5.05h-2.12c-2.93,0-4.53,1.76-4.53,5.01v10.35h-5.21v-20.41Z"/><path class="cls-3" d="M31.88,14.27l18.6,10.8v39.7l-18.6-10.8V14.27Z"/><path class="cls-2" d="M59.68,18.87l-20.2-11.6v8.1l13.7,8v24.3l6.5,3.7c4,2.3,7.3,1,7.3-3.1v-17.9c-.1-4-3.4-9.2-7.3-11.5Z"/></svg>