<?xml version="1.0" encoding="UTF-8"?><svg id="Logos" xmlns="http://www.w3.org/2000/svg" width="241.99" height="72" viewBox="0 0 241.99 72"><defs><style>.cls-1,.cls-2,.cls-3{stroke-width:0px;}.cls-1,.cls-3{fill:#02a8ef;}.cls-2{fill:#fff;}.cls-3{fill-rule:evenodd;}</style></defs><path class="cls-2" d="M88.13,1.75h2.09v4.71h5.1V1.75h2.09v11.45h-2.09v-4.84h-5.1v4.84h-2.09V1.75Z"/><path class="cls-2" d="M98.63,10.98c0-1.72,1.23-2.27,2.68-2.62l2.52-.59v-.18c0-.87-.57-1.41-1.46-1.41s-1.41.49-1.59,1.28l-1.8-.21c.28-1.55,1.59-2.55,3.47-2.55,2.06,0,3.4,1.29,3.4,3.19v3.42c0,.21.07.29.21.29h.46v1.6h-1.23c-.8,0-1.15-.25-1.15-.92,0-.2.03-.44.11-.74l-.18-.05c-.59,1.26-1.46,1.83-2.72,1.83-1.65,0-2.75-.92-2.75-2.36ZM101.92,11.84c1.13,0,1.91-.82,1.91-2.11v-.64l-1.85.44c-.92.21-1.31.52-1.31,1.24,0,.65.49,1.06,1.24,1.06Z"/><path class="cls-2" d="M107.14,10.95l1.91-.39c.21.92.95,1.37,1.9,1.37s1.5-.41,1.5-1.05c0-.67-.64-.8-1.85-1.03-1.46-.23-3.39-.49-3.39-2.54,0-1.55,1.32-2.62,3.45-2.62,1.9,0,3.37.8,3.71,2.4l-1.93.31c-.2-.82-.88-1.26-1.78-1.26-.98,0-1.47.43-1.47.98,0,.67.65.82,1.85,1.03,1.47.23,3.39.51,3.39,2.55,0,1.6-1.31,2.67-3.48,2.67-2,0-3.45-.8-3.81-2.44Z"/><path class="cls-2" d="M117.61,13.2h-2.04V1.43h2.04v3.7c0,.43-.08.83-.2,1.44l.2.05c.51-1.21,1.29-1.91,2.72-1.91,1.82,0,2.78,1.15,2.78,3.09v5.41h-2.04v-5.35c0-.98-.49-1.54-1.47-1.54-1.1,0-1.98.83-1.98,2.34v4.55Z"/><path class="cls-2" d="M127.25,11.16c0,.33.11.41.36.41h.95v1.64h-1.88c-.97,0-1.47-.52-1.47-1.5v-5.19h-1.19v-1.64h3.24v6.28ZM124.91,2.64c0-.69.57-1.26,1.24-1.26.7,0,1.26.57,1.26,1.26s-.56,1.28-1.26,1.28-1.24-.56-1.24-1.28Z"/><path class="cls-2" d="M129.1,7.48c0-3.44,2.24-5.92,5.51-5.92,2.72,0,4.6,1.59,5.12,3.76l-2.08.49c-.43-1.54-1.44-2.42-3.04-2.42-2.04,0-3.34,1.7-3.34,4.09s1.34,4.09,3.4,4.09c1.64,0,2.63-.9,3.06-2.54l1.98.23c-.51,2.55-2.4,4.14-5.07,4.14-3.27,0-5.55-2.49-5.55-5.92Z"/><path class="cls-2" d="M140.42,9.05c0-2.54,1.75-4.35,4.22-4.35s4.24,1.82,4.24,4.35-1.78,4.33-4.24,4.33-4.22-1.8-4.22-4.33ZM146.83,9.05c0-1.6-.87-2.68-2.19-2.68s-2.19,1.08-2.19,2.68.88,2.68,2.19,2.68,2.19-1.08,2.19-2.68Z"/><path class="cls-2" d="M150.04,4.88h1.9v.34c0,.46-.02.82-.15,1.47l.2.05c.31-1.1.88-1.86,2.22-1.86h.61v2h-.83c-1.23,0-1.9.75-1.9,2.13v4.2h-2.04V4.88Z"/><path class="cls-2" d="M155.63,4.88h2.01v.41c0,.38-.03.67-.15,1.34l.2.05c.51-1.34,1.47-1.98,2.7-1.98,2.04,0,3.65,1.67,3.65,4.33s-1.6,4.35-3.65,4.35c-1.23,0-2.14-.64-2.67-1.98l-.18.07c.1.65.13.96.13,1.33v3.76h-2.04V4.88ZM162.01,9.05c0-1.67-.92-2.68-2.18-2.68s-2.18,1.01-2.18,2.68.9,2.68,2.18,2.68,2.18-1.03,2.18-2.68Z"/><path class="cls-2" d="M88.13,22.92h9.91c6.82,0,11.08,3.29,11.08,9.23s-4.25,9.27-11.08,9.27h-4.78v9.59h-5.14v-28.09ZM98.05,37.12c3.85,0,5.86-1.65,5.86-4.98s-2.01-4.9-5.86-4.9h-4.78v9.87h4.78Z"/><path class="cls-2" d="M110.73,45.55c0-4.21,3.01-5.58,6.58-6.42l6.18-1.44v-.44c0-2.13-1.4-3.45-3.57-3.45s-3.45,1.2-3.89,3.13l-4.41-.52c.68-3.81,3.89-6.26,8.51-6.26,5.06,0,8.35,3.17,8.35,7.83v8.39c0,.52.16.72.52.72h1.12v3.93h-3.01c-1.97,0-2.81-.6-2.81-2.25,0-.48.08-1.08.28-1.81l-.44-.12c-1.44,3.09-3.57,4.5-6.66,4.5-4.05,0-6.74-2.25-6.74-5.78ZM118.79,47.68c2.77,0,4.7-2.01,4.7-5.18v-1.56l-4.53,1.08c-2.25.52-3.21,1.28-3.21,3.05,0,1.61,1.2,2.61,3.05,2.61Z"/><path class="cls-2" d="M132.56,40.81c0-6.14,4.29-10.67,10.19-10.67,4.98,0,8.23,2.77,9.35,6.5l-4.74,1.28c-.72-2.45-2.33-3.69-4.66-3.69-3.09,0-5.18,2.65-5.18,6.58s2.09,6.58,5.3,6.58c2.57,0,4.21-1.4,4.9-3.93l4.41.48c-1.2,4.7-4.33,7.5-9.43,7.5-5.82,0-10.15-4.53-10.15-10.63Z"/><path class="cls-2" d="M155.59,22.11h5.02v16.49h2.09l5.86-8.03h5.18l-7.14,9.67,8.19,10.75h-5.7l-6.34-8.43h-2.13v8.43h-5.02v-28.89Z"/><path class="cls-2" d="M174.73,40.81c0-6.38,4.25-10.67,9.95-10.67s9.95,4.05,9.95,10.23v1.85h-14.97c.28,3.17,2.13,5.38,5.22,5.38,2.37,0,3.69-1.08,4.49-3.05l4.61.72c-1.12,3.77-4.01,6.18-9.11,6.18-5.94,0-10.15-4.41-10.15-10.63ZM179.75,38.77h9.87c-.36-3.01-2.17-4.78-4.94-4.78-2.61,0-4.49,1.85-4.94,4.78Z"/><path class="cls-2" d="M198.45,30.58h4.66v.84c0,1.12-.04,2.01-.36,3.61l.48.12c.76-2.69,2.17-4.57,5.46-4.57h1.48v4.9h-2.05c-3.01,0-4.65,1.85-4.65,5.22v10.31h-5.02v-20.43Z"/><path class="cls-3" d="M31.88,14.27l18.6,10.8v39.7l-18.6-10.8V14.27Z"/><path class="cls-1" d="M59.68,18.87l-20.2-11.6v8.1l13.7,8v24.3l6.5,3.7c4,2.3,7.3,1,7.3-3.1v-17.9c-.1-4-3.4-9.2-7.3-11.5Z"/></svg>