<?xml version="1.0" encoding="UTF-8"?><svg id="Logos" xmlns="http://www.w3.org/2000/svg" width="275.96" height="72" viewBox="0 0 275.96 72"><defs><style>.cls-1{fill:#7b42bc;fill-rule:evenodd;}.cls-1,.cls-2{stroke-width:0px;}.cls-2{fill:#000;}</style></defs><path class="cls-1" d="M33.29,17.55l15.5,9v18l-15.5-9v-18Z"/><path class="cls-1" d="M50.49,26.55v18l15.5-9v-18l-15.5,9Z"/><path class="cls-1" d="M15.99,7.45v18l15.5,9v-18L15.99,7.45Z"/><path class="cls-1" d="M33.29,55.55l15.5,9v-18l-15.5-9v18Z"/><path class="cls-2" d="M84.02,1.67h2.18v4.68h4.99V1.67h2.19v11.45h-2.19v-4.81h-4.99v4.81h-2.18V1.67Z"/><path class="cls-2" d="M94.77,10.89c0-1.72,1.21-2.29,2.68-2.63l2.49-.57v-.2c0-.83-.54-1.36-1.41-1.36s-1.37.47-1.54,1.26l-1.86-.21c.28-1.57,1.6-2.58,3.48-2.58,2.08,0,3.43,1.31,3.43,3.22v3.35c0,.21.07.28.21.28h.46v1.67h-1.28c-.8,0-1.16-.26-1.16-.92,0-.2.03-.43.11-.72l-.18-.07c-.59,1.28-1.46,1.83-2.68,1.83-1.68,0-2.76-.93-2.76-2.36ZM98.09,11.71c1.08,0,1.85-.79,1.85-2.03v-.65l-1.78.43c-.9.21-1.28.52-1.28,1.21s.47,1.05,1.21,1.05Z"/><path class="cls-2" d="M103.49,10.86l2-.39c.21.88.92,1.33,1.85,1.33s1.46-.38,1.46-1.01-.62-.77-1.8-.98c-1.49-.23-3.42-.51-3.42-2.57,0-1.55,1.32-2.63,3.48-2.63,1.91,0,3.4.8,3.75,2.42l-2.01.33c-.18-.82-.85-1.24-1.73-1.24-.97,0-1.42.41-1.42.96,0,.64.64.77,1.82.98,1.47.23,3.4.51,3.4,2.57,0,1.62-1.31,2.7-3.52,2.7-2,0-3.48-.82-3.84-2.45Z"/><path class="cls-2" d="M114.27,13.12h-2.13V1.34h2.13v3.66c0,.43-.08.83-.2,1.44l.2.07c.51-1.21,1.28-1.91,2.7-1.91,1.82,0,2.78,1.14,2.78,3.09v5.43h-2.13v-5.37c0-.95-.47-1.47-1.42-1.47-1.08,0-1.93.82-1.93,2.26v4.58Z"/><path class="cls-2" d="M124.12,11.01c0,.33.11.42.36.42h.93v1.69h-1.93c-.97,0-1.49-.54-1.49-1.54v-5.1h-1.18v-1.68h3.3v6.22ZM121.7,2.57c0-.72.59-1.31,1.29-1.31s1.29.59,1.29,1.31-.57,1.29-1.29,1.29-1.29-.57-1.29-1.29Z"/><path class="cls-2" d="M126.12,7.39c0-3.44,2.26-5.92,5.53-5.92,2.75,0,4.63,1.59,5.14,3.75l-2.16.52c-.41-1.5-1.41-2.36-2.98-2.36-2,0-3.25,1.65-3.25,4.01s1.31,4.01,3.34,4.01c1.6,0,2.58-.87,2.99-2.47l2.04.23c-.49,2.57-2.39,4.15-5.07,4.15-3.3,0-5.58-2.49-5.58-5.92Z"/><path class="cls-2" d="M137.65,8.94c0-2.54,1.78-4.35,4.25-4.35s4.25,1.82,4.25,4.35-1.78,4.37-4.25,4.37-4.25-1.83-4.25-4.37ZM144.03,8.94c0-1.57-.83-2.62-2.13-2.62s-2.13,1.05-2.13,2.62.85,2.63,2.13,2.63,2.13-1.05,2.13-2.63Z"/><path class="cls-2" d="M147.5,4.79h1.96v.33c0,.44-.02.8-.15,1.47l.2.05c.31-1.1.88-1.85,2.22-1.85h.61v2.06h-.87c-1.19,0-1.85.72-1.85,2.04v4.22h-2.13V4.79Z"/><path class="cls-2" d="M153.34,4.79h2.09v.38c0,.38-.03.67-.15,1.34l.2.05c.51-1.33,1.46-1.96,2.68-1.96,2.03,0,3.63,1.67,3.63,4.35s-1.6,4.37-3.63,4.37c-1.23,0-2.13-.64-2.65-1.98l-.18.07c.1.65.13.96.13,1.32v3.75h-2.13V4.79ZM159.69,8.94c0-1.62-.88-2.62-2.13-2.62s-2.13,1-2.13,2.62.88,2.63,2.13,2.63,2.13-1,2.13-2.63Z"/><path class="cls-2" d="M92.76,27.41h-8.9v-4.53h23.22v4.53h-8.9v23.54h-5.41v-23.54Z"/><path class="cls-2" d="M105.31,40.72c0-6.34,4.25-10.67,9.98-10.67s10.03,4.09,10.03,10.23v1.92h-14.88c.28,3.05,2.05,5.21,5.05,5.21,2.33,0,3.61-1.04,4.37-2.97l4.81.8c-1.12,3.69-4.01,6.18-9.18,6.18-5.94,0-10.19-4.49-10.19-10.71ZM110.53,38.68h9.58c-.36-2.93-2.08-4.61-4.81-4.61-2.49,0-4.33,1.72-4.77,4.61Z"/><path class="cls-2" d="M128.73,30.54h4.81v.8c0,1.08-.04,1.96-.36,3.61l.48.12c.76-2.69,2.17-4.53,5.45-4.53h1.48v5.05h-2.12c-2.93,0-4.53,1.76-4.53,5.01v10.35h-5.21v-20.41Z"/><path class="cls-2" d="M143.05,30.54h4.81v.8c0,1.08-.04,1.96-.36,3.61l.48.12c.76-2.69,2.17-4.53,5.45-4.53h1.48v5.05h-2.12c-2.93,0-4.53,1.76-4.53,5.01v10.35h-5.21v-20.41Z"/><path class="cls-2" d="M155.52,45.5c0-4.21,2.97-5.61,6.58-6.46l6.1-1.4v-.48c0-2.04-1.32-3.33-3.45-3.33s-3.37,1.16-3.77,3.09l-4.57-.52c.68-3.85,3.93-6.34,8.54-6.34,5.09,0,8.42,3.21,8.42,7.9v8.22c0,.52.16.68.52.68h1.12v4.09h-3.13c-1.96,0-2.85-.64-2.85-2.25,0-.48.08-1.04.28-1.76l-.44-.16c-1.44,3.13-3.57,4.49-6.58,4.49-4.13,0-6.78-2.29-6.78-5.77ZM163.66,47.5c2.65,0,4.53-1.92,4.53-4.97v-1.6l-4.37,1.04c-2.21.52-3.13,1.28-3.13,2.97s1.16,2.57,2.97,2.57Z"/><path class="cls-2" d="M179.86,34.67h-3.61v-4.13h3.61v-3.13c0-3.69,1.76-5.33,5.85-5.33h4.57v4.13h-3.69c-1.12,0-1.6.52-1.6,1.8v2.53h4.73v4.13h-4.65v16.28h-5.21v-16.28Z"/><path class="cls-2" d="M190.89,40.72c0-6.22,4.37-10.67,10.43-10.67s10.43,4.45,10.43,10.67-4.37,10.71-10.43,10.71-10.43-4.49-10.43-10.71ZM206.52,40.72c0-3.85-2.05-6.42-5.21-6.42s-5.21,2.57-5.21,6.42,2.09,6.46,5.21,6.46,5.21-2.57,5.21-6.46Z"/><path class="cls-2" d="M215.03,30.54h4.81v.8c0,1.08-.04,1.96-.36,3.61l.48.12c.76-2.69,2.17-4.53,5.45-4.53h1.48v5.05h-2.12c-2.93,0-4.53,1.76-4.53,5.01v10.35h-5.21v-20.41Z"/><path class="cls-2" d="M229.34,30.54h5.09v.8c0,1.08-.08,1.8-.36,3.25l.48.16c1.04-3.17,3.05-4.69,6.26-4.69s5.37,1.48,6.14,4.61h.48c1.04-3.09,3.09-4.61,6.1-4.61,4.25,0,6.46,2.73,6.46,7.42v13.47h-4.89v-13.27c0-2.25-1.12-3.49-3.17-3.49-2.65,0-4.49,2.21-4.49,5.45v11.31h-5.21v-13.27c0-2.25-1.12-3.49-3.13-3.49-2.65,0-4.53,2.21-4.53,5.45v11.31h-5.21v-20.41Z"/></svg>