<?xml version="1.0" encoding="UTF-8"?><svg id="Logos" xmlns="http://www.w3.org/2000/svg" width="305.64" height="72" viewBox="0 0 305.64 72"><defs><style>.cls-1{fill:#000;}.cls-1,.cls-2{stroke-width:0px;}.cls-2{fill:#e03875;}</style></defs><path class="cls-2" d="M59.46,68.98H11.09c-1.56,0-2.7,0-3.61-.07-.96-.08-1.62-.24-2.18-.52-1.04-.53-1.87-1.36-2.4-2.4-.29-.57-.45-1.22-.52-2.18-.07-.92-.07-2.05-.07-3.61V11.81c0-1.56,0-2.69.07-3.61.08-.96.24-1.62.52-2.18.53-1.04,1.36-1.87,2.4-2.4.57-.29,1.22-.45,2.18-.52.92-.07,2.05-.07,3.61-.07h48.38c1.56,0,2.69,0,3.61.07.96.08,1.62.24,2.18.52,1.04.53,1.87,1.36,2.4,2.4.29.57.45,1.22.52,2.18.07.92.07,2.05.07,3.61v48.38c0,1.56,0,2.7-.07,3.61-.08.97-.24,1.62-.52,2.18-.53,1.04-1.36,1.87-2.4,2.4-.57.29-1.22.45-2.18.52-.92.07-2.05.07-3.61.07ZM11.09,5.76c-1.5,0-2.58,0-3.39.07-.56.05-.94.12-1.16.23-.52.27-.94.68-1.2,1.2-.11.22-.19.6-.23,1.16-.07.81-.07,1.89-.07,3.39v48.38c0,1.44,0,2.58.07,3.39.05.56.12.94.23,1.16.27.52.68.94,1.2,1.2.22.11.6.19,1.16.23.8.07,1.89.07,3.39.07h48.38c1.5,0,2.58,0,3.39-.07.56-.05.94-.12,1.16-.23.52-.27.94-.68,1.2-1.2.11-.22.19-.6.23-1.16.07-.8.07-1.89.07-3.39V11.81c0-1.5,0-2.58-.07-3.39-.05-.56-.12-.94-.23-1.16-.27-.52-.68-.94-1.2-1.2-.22-.11-.6-.19-1.16-.23-.81-.07-1.94-.07-3.39-.07H11.09Z"/><path class="cls-2" d="M35.55,55.01c-3.13,0-6.22-.76-8.99-2.22-2.77-1.46-5.14-3.57-6.91-6.16-1.77-2.59-2.88-5.56-3.24-8.68-.36-3.11.05-6.26,1.19-9.18,1.14-2.92,2.97-5.52,5.34-7.56,2.37-2.05,5.2-3.49,8.25-4.2,3.05-.71,6.23-.66,9.26.14,3.03.8,5.82,2.33,8.12,4.45h0l-4.57,4.78c-1.82-1.64-4.07-2.72-6.48-3.1-2.42-.39-4.89-.06-7.13.93-2.24.99-4.14,2.61-5.47,4.67-1.33,2.05-2.04,4.45-2.04,6.89s.71,4.84,2.04,6.89c1.33,2.05,3.23,3.67,5.47,4.67,2.24.99,4.71,1.32,7.13.93,2.42-.39,4.67-1.46,6.48-3.1l4.57,4.78c-3.55,3.27-8.2,5.08-13.02,5.08h0Z"/><path class="cls-2" d="M51.04,45.38c-.31,0-.62-.09-.88-.27-.26-.17-.46-.42-.58-.71-.12-.29-.15-.61-.09-.91.06-.31.21-.59.43-.81.22-.22.5-.37.81-.43.31-.06.62-.03.91.09s.53.32.71.58c.17.26.27.56.27.88,0,.42-.17.82-.46,1.11-.3.3-.7.46-1.11.46h0Z"/><path class="cls-2" d="M35.43,39.93c-.83,0-1.63-.24-2.32-.69-.69-.46-1.23-1.11-1.54-1.87-.32-.76-.4-1.6-.24-2.41.16-.81.56-1.56,1.14-2.14.58-.58,1.33-.98,2.14-1.15.81-.16,1.65-.08,2.41.24.76.32,1.42.85,1.87,1.54.46.69.7,1.49.7,2.32,0,1.1-.44,2.16-1.22,2.94-.78.78-1.83,1.22-2.94,1.23h0Z"/><path class="cls-2" d="M52.85,40c-.31,0-.62-.09-.88-.27-.26-.17-.46-.42-.58-.71-.12-.29-.15-.61-.09-.91.06-.31.21-.59.43-.81s.5-.37.81-.43c.31-.06.62-.03.91.09.29.12.53.32.71.58.17.26.27.56.27.88,0,.42-.17.82-.46,1.11s-.7.46-1.11.46Z"/><path class="cls-2" d="M48.16,39.81c-.31,0-.62-.09-.88-.27-.26-.17-.46-.42-.58-.71-.12-.29-.15-.61-.09-.91.06-.31.21-.59.44-.81.22-.22.51-.37.81-.43.31-.06.62-.03.91.1.29.12.53.33.7.59.17.26.26.57.26.88,0,.42-.17.81-.47,1.1-.3.29-.69.46-1.11.46h0Z"/><path class="cls-2" d="M52.85,34.69c-.31,0-.62-.09-.88-.27-.26-.17-.46-.42-.58-.71-.12-.29-.15-.61-.09-.91.06-.31.21-.59.43-.81.22-.22.5-.37.81-.43.31-.06.62-.03.91.09.29.12.53.32.71.58.17.26.27.56.27.88,0,.42-.17.82-.46,1.11-.3.3-.7.46-1.11.46Z"/><path class="cls-2" d="M48.16,34.87c-.31,0-.62-.09-.88-.27-.26-.17-.46-.42-.58-.71-.12-.29-.15-.61-.09-.91.06-.31.21-.59.43-.81.22-.22.5-.37.81-.43.31-.06.62-.03.91.09.29.12.53.32.71.58.17.26.27.56.27.88,0,.42-.17.82-.46,1.12-.3.3-.7.46-1.12.46h0Z"/><path class="cls-2" d="M51.13,29.38c-.31,0-.62-.09-.88-.26-.26-.17-.46-.42-.58-.71-.12-.29-.15-.61-.09-.91.06-.31.21-.59.43-.81.22-.22.5-.37.81-.43.31-.06.62-.03.91.09.29.12.54.32.71.58.17.26.27.56.27.88,0,.42-.17.82-.46,1.11-.3.3-.7.46-1.11.46Z"/><path class="cls-1" d="M88.09,22.91h5.33v11.47h12.23v-11.47h5.37v28.07h-5.37v-11.79h-12.23v11.79h-5.33v-28.07Z"/><path class="cls-1" d="M114.92,36.95c0-8.42,5.53-14.52,13.55-14.52,6.74,0,11.35,3.89,12.59,9.18l-5.29,1.28c-1-3.69-3.45-5.78-7.3-5.78-4.89,0-7.98,4.05-7.98,9.82s3.21,9.83,8.18,9.83c3.93,0,6.34-2.13,7.34-6.06l5.01.56c-1.2,6.29-5.85,10.18-12.43,10.18-8.1,0-13.67-6.09-13.67-14.52Z"/><path class="cls-1" d="M144.67,22.91h10.03c6.86,0,11.15,3.29,11.15,9.3s-4.29,9.3-11.15,9.3h-4.69v9.46h-5.33v-28.07ZM154.7,37.07c3.73,0,5.73-1.6,5.73-4.85s-2.01-4.81-5.73-4.81h-4.69v9.66h4.69Z"/><path class="cls-1" d="M175.59,36.95c0-8.42,5.53-14.52,13.55-14.52,6.74,0,11.35,3.89,12.59,9.18l-5.29,1.28c-1-3.69-3.45-5.78-7.3-5.78-4.89,0-7.98,4.05-7.98,9.82s3.21,9.83,8.18,9.83c3.93,0,6.34-2.13,7.34-6.06l5.01.56c-1.2,6.29-5.85,10.18-12.43,10.18-8.1,0-13.67-6.09-13.67-14.52Z"/><path class="cls-1" d="M203.86,40.76c0-6.22,4.37-10.67,10.43-10.67s10.43,4.45,10.43,10.67-4.37,10.71-10.43,10.71-10.43-4.49-10.43-10.71ZM219.5,40.76c0-3.85-2.04-6.42-5.21-6.42s-5.21,2.57-5.21,6.42,2.09,6.46,5.21,6.46,5.21-2.57,5.21-6.46Z"/><path class="cls-1" d="M233.21,50.98h-5.21v-20.41h5.09v.8c0,1.04-.08,1.76-.36,3.25l.48.16c1.24-2.97,3.13-4.69,6.62-4.69,4.45,0,6.82,2.81,6.82,7.58v13.31h-5.21v-13.15c0-2.33-1.16-3.61-3.49-3.61-2.65,0-4.73,2.01-4.73,5.53v11.23Z"/><path class="cls-1" d="M249.65,45.45l4.89-.96c.52,2.17,2.25,3.25,4.53,3.25s3.57-.92,3.57-2.49-1.52-1.88-4.41-2.41c-3.65-.56-8.38-1.24-8.38-6.3,0-3.81,3.25-6.46,8.54-6.46,4.69,0,8.34,1.96,9.18,5.93l-4.93.8c-.44-2.01-2.08-3.05-4.25-3.05-2.37,0-3.49,1-3.49,2.37,0,1.56,1.56,1.88,4.45,2.41,3.61.56,8.34,1.24,8.34,6.3,0,3.97-3.21,6.62-8.62,6.62-4.89,0-8.54-2-9.42-6.01Z"/><path class="cls-1" d="M284.14,30.57h5.21v20.41h-5.09v-.8c0-1.04.08-1.8.32-3.29l-.44-.12c-1.24,2.97-3.17,4.69-6.66,4.69-4.45,0-6.78-2.81-6.78-7.58v-13.31h5.21v12.87c0,2.61,1.12,3.89,3.61,3.89,2.65,0,4.61-2.01,4.61-5.57v-11.19Z"/><path class="cls-1" d="M300.02,45.89c0,.76.28,1,.84,1h2.37v4.09h-4.81c-2.37,0-3.61-1.32-3.61-3.77v-20.97h-2.89v-4.13h8.1v23.78Z"/></svg>