<?xml version="1.0" encoding="UTF-8"?><svg id="Logos" xmlns="http://www.w3.org/2000/svg" width="351.34" height="72" viewBox="0 0 351.34 72"><defs><style>.cls-1{fill:#14c6cb;}.cls-1,.cls-2{stroke-width:0px;}.cls-2{fill:#fff;}</style></defs><path class="cls-1" d="M57.65,22.54l-5.5,9.5-5.5-9.5h11Z"/><path class="cls-1" d="M28.35,28.84h-3.7l9.2,15.9-3.7,6.4L13.65,22.54h18.4l9.2,15.9,1.8-3.2-7.4-12.7h7.4l3.7,6.4,3.7,6.4-9.2,15.9-12.9-22.4Z"/><path class="cls-1" d="M59.46,68.98H11.09c-1.56,0-2.7,0-3.61-.07-.96-.08-1.62-.24-2.18-.52-1.04-.53-1.87-1.36-2.4-2.4-.29-.57-.45-1.22-.52-2.18-.07-.92-.07-2.05-.07-3.61V11.81c0-1.56,0-2.69.07-3.61.08-.96.24-1.62.52-2.18.53-1.04,1.36-1.87,2.4-2.4.57-.29,1.22-.45,2.18-.52.92-.07,2.05-.07,3.61-.07h48.38c1.56,0,2.69,0,3.61.07.96.08,1.62.24,2.18.52,1.04.53,1.87,1.36,2.4,2.4.29.57.45,1.22.52,2.18.07.92.07,2.05.07,3.61v48.38c0,1.56,0,2.7-.07,3.61-.08.97-.24,1.62-.52,2.18-.53,1.04-1.36,1.87-2.4,2.4-.57.29-1.22.45-2.18.52-.92.07-2.05.07-3.61.07ZM11.09,5.76c-1.5,0-2.58,0-3.39.07-.56.05-.94.12-1.16.23-.52.27-.94.68-1.2,1.2-.11.22-.19.6-.23,1.16-.07.81-.07,1.89-.07,3.39v48.38c0,1.44,0,2.58.07,3.39.05.56.12.94.23,1.16.27.52.68.94,1.2,1.2.22.11.6.19,1.16.23.8.07,1.89.07,3.39.07h48.38c1.5,0,2.58,0,3.39-.07.56-.05.94-.12,1.16-.23.52-.27.94-.68,1.2-1.2.11-.22.19-.6.23-1.16.07-.8.07-1.89.07-3.39V11.81c0-1.5,0-2.58-.07-3.39-.05-.56-.12-.94-.23-1.16-.27-.52-.68-.94-1.2-1.2-.22-.11-.6-.19-1.16-.23-.81-.07-1.94-.07-3.39-.07H11.09Z"/><path class="cls-2" d="M88.12,22.99h5.12v11.52h12.48v-11.52h5.12v28h-5.12v-11.84h-12.48v11.84h-5.12v-28Z"/><path class="cls-2" d="M115.16,36.99c0-8.4,5.48-14.48,13.48-14.48,6.64,0,11.24,3.88,12.52,9.2l-5.08,1.2c-1.04-3.76-3.52-5.92-7.44-5.92-5,0-8.16,4.16-8.16,10s3.28,10,8.32,10c4,0,6.44-2.2,7.48-6.2l4.84.56c-1.24,6.24-5.88,10.12-12.4,10.12-8,0-13.56-6.08-13.56-14.48Z"/><path class="cls-2" d="M145.16,22.99h9.88c6.8,0,11.04,3.28,11.04,9.2s-4.24,9.24-11.04,9.24h-4.76v9.56h-5.12v-28ZM155.04,37.15c3.84,0,5.84-1.64,5.84-4.96s-2-4.88-5.84-4.88h-4.76v9.84h4.76Z"/><path class="cls-2" d="M176.64,22.99h5.28l3.08,18.6c.24,1.48.4,2.64.52,4.56h.6l3.52-23.16h8.16l3.52,23.16h.64c.08-1.92.24-3.08.48-4.56l3.12-18.6h4.92l-5,28h-7.72l-3.68-23.84h-.72l-3.56,23.84h-8.24l-4.92-28Z"/><path class="cls-2" d="M212,45.55c0-4.2,3-5.56,6.56-6.4l6.16-1.44v-.44c0-2.12-1.4-3.44-3.56-3.44s-3.44,1.2-3.88,3.12l-4.4-.52c.68-3.8,3.88-6.24,8.48-6.24,5.04,0,8.32,3.16,8.32,7.8v8.36c0,.52.16.72.52.72h1.12v3.92h-3c-1.96,0-2.8-.6-2.8-2.24,0-.48.08-1.08.28-1.8l-.44-.12c-1.44,3.08-3.56,4.48-6.64,4.48-4.04,0-6.72-2.24-6.72-5.76ZM220.04,47.66c2.76,0,4.68-2,4.68-5.16v-1.56l-4.52,1.08c-2.24.52-3.2,1.28-3.2,3.04,0,1.6,1.2,2.6,3.04,2.6Z"/><path class="cls-2" d="M235.88,55.22h2.96c1.32,0,1.84-.4,2.24-1.6l.8-2.64h-3.68l-5.84-20.36h5.2l4.64,16.4h.68l4.56-16.4h4.92l-6.84,23.56c-1,3.48-2.36,5-6.32,5h-3.32v-3.96Z"/><path class="cls-2" d="M255.12,30.63h4.92v1c0,.92-.08,1.64-.36,3.28l.48.12c1.24-3.28,3.6-4.84,6.6-4.84,5,0,8.92,4.08,8.92,10.6s-3.92,10.64-8.92,10.64c-3,0-5.24-1.56-6.52-4.84l-.44.16c.24,1.6.32,2.36.32,3.24v9.2h-5v-28.55ZM270.72,40.83c0-4.08-2.24-6.56-5.32-6.56s-5.32,2.48-5.32,6.56,2.2,6.56,5.32,6.56,5.32-2.52,5.32-6.56Z"/><path class="cls-2" d="M278.32,40.83c0-6.2,4.28-10.64,10.32-10.64s10.36,4.44,10.36,10.64-4.36,10.6-10.36,10.6-10.32-4.4-10.32-10.6ZM294,40.83c0-3.92-2.12-6.56-5.36-6.56s-5.36,2.64-5.36,6.56,2.16,6.56,5.36,6.56,5.36-2.64,5.36-6.56Z"/><path class="cls-2" d="M308.76,50.98h-5v-16.36h-2.92v-4h7.92v20.36ZM303.04,25.15c0-1.68,1.4-3.08,3.04-3.08,1.72,0,3.08,1.4,3.08,3.08s-1.36,3.12-3.08,3.12-3.04-1.36-3.04-3.12Z"/><path class="cls-2" d="M319,50.98h-5v-20.36h4.88v.84c0,1.08-.08,1.8-.36,3.28l.48.12c1.24-2.96,3.16-4.68,6.64-4.68,4.44,0,6.8,2.8,6.8,7.56v13.24h-5v-13.08c0-2.4-1.2-3.76-3.6-3.76-2.68,0-4.84,2.04-4.84,5.72v11.12Z"/><path class="cls-2" d="M338.88,45.87v-11.24h-3.64v-4h3.64v-5.16h5v5.16h5.04v4h-5.04v10.64c0,1.28.48,1.76,1.52,1.76h3.52v3.96h-4.44c-3.92,0-5.6-1.56-5.6-5.12Z"/></svg>