<?xml version="1.0" encoding="UTF-8"?><svg id="Logos" xmlns="http://www.w3.org/2000/svg" width="355.18" height="72" viewBox="0 0 355.18 72"><defs><style>.cls-1,.cls-2{fill:#a067da;}.cls-1,.cls-2,.cls-3{stroke-width:0px;}.cls-2{fill-rule:evenodd;}.cls-3{fill:#fff;}</style></defs><path class="cls-2" d="M29.98,22.97l10.7,6.2v12.4l-10.7-6.2v-12.4Z"/><path class="cls-2" d="M41.87,29.17v12.4l10.7-6.2v-12.4l-10.7,6.2Z"/><path class="cls-2" d="M18.18,16.07v12.4l10.7,6.2v-12.4l-10.7-6.2Z"/><path class="cls-2" d="M29.98,49.07l10.7,6.2v-12.4l-10.7-6.2v12.4Z"/><path class="cls-1" d="M59.46,68.98H11.09c-1.56,0-2.7,0-3.61-.07-.96-.08-1.62-.24-2.18-.52-1.04-.53-1.87-1.36-2.4-2.4-.29-.57-.45-1.22-.52-2.18-.07-.92-.07-2.05-.07-3.61V11.81c0-1.56,0-2.69.07-3.61.08-.96.24-1.62.52-2.18.53-1.04,1.36-1.87,2.4-2.4.57-.29,1.22-.45,2.18-.52.92-.07,2.05-.07,3.61-.07h48.38c1.56,0,2.69,0,3.61.07.96.08,1.62.24,2.18.52,1.04.53,1.87,1.36,2.4,2.4.29.57.45,1.22.52,2.18.07.92.07,2.05.07,3.61v48.38c0,1.56,0,2.7-.07,3.61-.08.97-.24,1.62-.52,2.18-.53,1.04-1.36,1.87-2.4,2.4-.57.29-1.22.45-2.18.52-.92.07-2.05.07-3.61.07ZM11.09,5.76c-1.5,0-2.58,0-3.39.07-.56.05-.94.12-1.16.23-.52.27-.94.68-1.2,1.2-.11.22-.19.6-.23,1.16-.07.81-.07,1.89-.07,3.39v48.38c0,1.44,0,2.58.07,3.39.05.56.12.94.23,1.16.27.52.68.94,1.2,1.2.22.11.6.19,1.16.23.8.07,1.89.07,3.39.07h48.38c1.5,0,2.58,0,3.39-.07.56-.05.94-.12,1.16-.23.52-.27.94-.68,1.2-1.2.11-.22.19-.6.23-1.16.07-.8.07-1.89.07-3.39V11.81c0-1.5,0-2.58-.07-3.39-.05-.56-.12-.94-.23-1.16-.27-.52-.68-.94-1.2-1.2-.22-.11-.6-.19-1.16-.23-.81-.07-1.94-.07-3.39-.07H11.09Z"/><path class="cls-3" d="M88.12,22.99h5.12v11.52h12.48v-11.52h5.12v28h-5.12v-11.84h-12.48v11.84h-5.12v-28Z"/><path class="cls-3" d="M115.16,36.99c0-8.4,5.48-14.48,13.48-14.48,6.64,0,11.24,3.88,12.52,9.2l-5.08,1.2c-1.04-3.76-3.52-5.92-7.44-5.92-5,0-8.16,4.16-8.16,10s3.28,10,8.32,10c4,0,6.44-2.2,7.48-6.2l4.84.56c-1.24,6.24-5.88,10.12-12.4,10.12-8,0-13.56-6.08-13.56-14.48Z"/><path class="cls-3" d="M145.16,22.99h9.88c6.8,0,11.04,3.28,11.04,9.2s-4.24,9.24-11.04,9.24h-4.76v9.56h-5.12v-28ZM155.04,37.15c3.84,0,5.84-1.64,5.84-4.96s-2-4.88-5.84-4.88h-4.76v9.84h4.76Z"/><path class="cls-3" d="M183.96,27.35h-8.96v-4.36h23.08v4.36h-8.92v23.64h-5.2v-23.64Z"/><path class="cls-3" d="M196.76,40.83c0-6.36,4.24-10.64,9.92-10.64s9.92,4.04,9.92,10.2v1.84h-14.92c.28,3.16,2.12,5.36,5.2,5.36,2.36,0,3.68-1.08,4.48-3.04l4.6.72c-1.12,3.76-4,6.16-9.08,6.16-5.92,0-10.12-4.4-10.12-10.6ZM201.76,38.79h9.84c-.36-3-2.16-4.76-4.92-4.76-2.6,0-4.48,1.84-4.92,4.76Z"/><path class="cls-3" d="M220.4,30.63h4.64v.84c0,1.12-.04,2-.36,3.6l.48.12c.76-2.68,2.16-4.56,5.44-4.56h1.48v4.88h-2.04c-3,0-4.64,1.84-4.64,5.2v10.28h-5v-20.36Z"/><path class="cls-3" d="M234.92,30.63h4.64v.84c0,1.12-.04,2-.36,3.6l.48.12c.76-2.68,2.16-4.56,5.44-4.56h1.48v4.88h-2.04c-3,0-4.64,1.84-4.64,5.2v10.28h-5v-20.36Z"/><path class="cls-3" d="M247.56,45.55c0-4.2,3-5.56,6.56-6.4l6.16-1.44v-.44c0-2.12-1.4-3.44-3.56-3.44s-3.44,1.2-3.88,3.12l-4.4-.52c.68-3.8,3.88-6.24,8.48-6.24,5.04,0,8.32,3.16,8.32,7.8v8.36c0,.52.16.72.52.72h1.12v3.92h-3c-1.96,0-2.8-.6-2.8-2.24,0-.48.08-1.08.28-1.8l-.44-.12c-1.44,3.08-3.56,4.48-6.64,4.48-4.04,0-6.72-2.24-6.72-5.76ZM255.6,47.66c2.76,0,4.68-2,4.68-5.16v-1.56l-4.52,1.08c-2.24.52-3.2,1.28-3.2,3.04,0,1.6,1.2,2.6,3.04,2.6Z"/><path class="cls-3" d="M272.2,34.63h-3.68v-4h3.68v-3.16c0-3.68,1.72-5.28,5.72-5.28h4.52v3.96h-3.64c-1.2,0-1.68.56-1.68,1.88v2.6h4.76v4h-4.68v16.36h-5v-16.36Z"/><path class="cls-3" d="M283.44,40.83c0-6.2,4.28-10.64,10.32-10.64s10.36,4.44,10.36,10.64-4.36,10.6-10.36,10.6-10.32-4.4-10.32-10.6ZM299.12,40.83c0-3.92-2.12-6.56-5.36-6.56s-5.36,2.64-5.36,6.56,2.16,6.56,5.36,6.56,5.36-2.64,5.36-6.56Z"/><path class="cls-3" d="M307.8,30.63h4.64v.84c0,1.12-.04,2-.36,3.6l.48.12c.76-2.68,2.16-4.56,5.44-4.56h1.48v4.88h-2.04c-3,0-4.64,1.84-4.64,5.2v10.28h-5v-20.36Z"/><path class="cls-3" d="M322.32,30.63h4.88v.88c0,1.08-.08,1.8-.36,3.24l.48.12c1.04-3.16,3.08-4.68,6.28-4.68s5.36,1.48,6.12,4.6h.44c1.08-3.08,3.12-4.6,6.16-4.6,4.2,0,6.44,2.72,6.44,7.4v13.4h-4.72v-13.24c0-2.32-1.16-3.6-3.24-3.6-2.72,0-4.64,2.28-4.64,5.64v11.2h-5v-13.24c0-2.32-1.12-3.6-3.2-3.6-2.68,0-4.64,2.28-4.64,5.64v11.2h-5v-20.36Z"/></svg>