<?xml version="1.0" encoding="UTF-8"?>
<svg id="Logos" xmlns="http://www.w3.org/2000/svg" viewBox="0 0 349.97 72">
  <defs>
    <style>
      .cls-1 {
        fill: #f24c53;
      }

      .cls-1, .cls-2 {
        stroke-width: 0px;
      }

      .cls-2 {
        fill: #fff;
      }
    </style>
  </defs>
  <path class="cls-1" d="m58.62,68H10.22c-1.6,0-2.7,0-3.6-.1-1-.1-1.6-.2-2.2-.5-1-.5-1.9-1.4-2.4-2.4-.3-.6-.4-1.2-.5-2.2-.1-.9-.1-2-.1-3.6V10.8c0-1.6,0-2.7.1-3.6.1-1,.2-1.6.5-2.2.5-1,1.4-1.9,2.4-2.4.6-.3,1.2-.4,2.2-.5.9-.1,2-.1,3.6-.1h48.4c1.6,0,2.7,0,3.6.1,1,.1,1.6.2,2.2.5,1,.5,1.9,1.4,2.4,2.4.3.6.4,1.2.5,2.2.1.9.1,2,.1,3.6v48.4c0,1.6,0,2.7-.1,3.6-.1,1-.2,1.6-.5,2.2-.5,1-1.4,1.9-2.4,2.4-.6.3-1.2.4-2.2.5-.9.1-2,.1-3.6.1ZM10.22,4.7c-1.5,0-2.6,0-3.4.1-.6,0-.9.1-1.2.2-.5.3-.9.7-1.2,1.2-.1.2-.2.6-.2,1.2-.1.8-.1,1.9-.1,3.4v48.4c0,1.5,0,2.6.1,3.4,0,.6.1.9.2,1.2.3.5.7.9,1.2,1.2.2.1.6.2,1.2.2.8.1,1.9.1,3.4.1h48.4c1.5,0,2.6,0,3.4-.1.6,0,.9-.1,1.2-.2.5-.3.9-.7,1.2-1.2.1-.2.2-.6.2-1.2.1-.8.1-1.9.1-3.4V10.8c0-1.5,0-2.6-.1-3.4,0-.6-.1-.9-.2-1.2-.3-.5-.7-.9-1.2-1.2-.2-.1-.6-.2-1.2-.2-.8-.1-1.9-.1-3.4-.1H10.22Z"/>
  <path class="cls-1" d="m25.62,51.6v-2.6h5.4v-1.6h-2.6v-2.6h12.4l-5.8-10,5.8-10h-12.7v13.7h-6.9v-20.7h23.6l3.9,6.8-5.7,10.1,5.9,10.3-3.8,6.6h-19.5Z"/>
  <path class="cls-1" d="m26.72,44.7h-2.7v2.6h2.6v-2.6h.1Z"/>
  <path class="cls-1" d="m23.92,48.9h-2.6v2.6h2.6v-2.6Z"/>
  <g>
    <path class="cls-2" d="m88.08,23h5.12v11.52h12.48v-11.52h5.12v28h-5.12v-11.84h-12.48v11.84h-5.12v-28Z"/>
    <path class="cls-2" d="m114.84,37c0-8.4,5.48-14.48,13.48-14.48,6.64,0,11.24,3.88,12.52,9.2l-5.08,1.2c-1.04-3.76-3.52-5.92-7.44-5.92-5,0-8.16,4.16-8.16,10s3.28,10,8.32,10c4,0,6.44-2.2,7.48-6.2l4.84.56c-1.24,6.24-5.88,10.12-12.4,10.12-8,0-13.56-6.08-13.56-14.48Z"/>
    <path class="cls-2" d="m144.56,23h9.88c6.8,0,11.04,3.28,11.04,9.2s-4.24,9.24-11.04,9.24h-4.76v9.56h-5.12v-28Zm9.88,14.16c3.84,0,5.84-1.64,5.84-4.96s-2-4.88-5.84-4.88h-4.76v9.84h4.76Z"/>
    <path class="cls-2" d="m176.56,23h10.56c6.6,0,10.12,2.36,10.12,6.84,0,2.92-1.76,5.04-5,5.6v.56c3.72.6,6.04,3.04,6.04,6.76,0,5.64-3.56,8.24-10.16,8.24h-11.56v-28Zm10.44,11.84c3.24,0,5.04-.96,5.04-3.76s-1.8-3.8-5.04-3.8h-5.32v7.56h5.32Zm.76,11.88c3.4,0,5.32-1.04,5.32-3.96s-1.92-4-5.32-4h-6.08v7.96h6.08Z"/>
    <path class="cls-2" d="m200.8,40.84c0-6.2,4.28-10.64,10.32-10.64s10.36,4.44,10.36,10.64-4.36,10.6-10.36,10.6-10.32-4.4-10.32-10.6Zm15.68,0c0-3.92-2.12-6.56-5.36-6.56s-5.36,2.64-5.36,6.56,2.16,6.56,5.36,6.56,5.36-2.64,5.36-6.56Z"/>
    <path class="cls-2" d="m238.16,30.64h5v20.36h-4.88v-.84c0-1.04.08-1.8.32-3.24l-.44-.16c-1.24,3-3.16,4.68-6.64,4.68-4.44,0-6.8-2.76-6.8-7.52v-13.28h5v12.84c0,2.68,1.16,4.04,3.72,4.04,2.72,0,4.72-2.08,4.72-5.68v-11.2Z"/>
    <path class="cls-2" d="m252.6,51h-5v-20.36h4.88v.84c0,1.08-.08,1.8-.36,3.28l.48.12c1.24-2.96,3.16-4.68,6.64-4.68,4.44,0,6.8,2.8,6.8,7.56v13.24h-5v-13.08c0-2.4-1.2-3.76-3.6-3.76-2.68,0-4.84,2.04-4.84,5.72v11.12Z"/>
    <path class="cls-2" d="m269.36,40.84c0-6.52,3.92-10.64,8.92-10.64,3.04,0,5.28,1.56,6.52,4.84l.48-.12c-.28-1.64-.36-2.36-.36-3.28v-9.44h5v28.79h-4.88v-1c0-.88.04-1.64.32-3.24l-.44-.16c-1.28,3.28-3.6,4.84-6.64,4.84-5,0-8.92-4.04-8.92-10.6Zm15.64,0c0-4.08-2.24-6.56-5.32-6.56s-5.36,2.48-5.36,6.56,2.24,6.56,5.36,6.56,5.32-2.52,5.32-6.56Z"/>
    <path class="cls-2" d="m293.12,45.56c0-4.2,3-5.56,6.56-6.4l6.16-1.44v-.44c0-2.12-1.4-3.44-3.56-3.44s-3.44,1.2-3.88,3.12l-4.4-.52c.68-3.8,3.88-6.24,8.48-6.24,5.04,0,8.32,3.16,8.32,7.8v8.36c0,.52.16.72.52.72h1.12v3.92h-3c-1.96,0-2.8-.6-2.8-2.24,0-.48.08-1.08.28-1.8l-.44-.12c-1.44,3.08-3.56,4.48-6.64,4.48-4.04,0-6.72-2.24-6.72-5.76Zm8.04,2.12c2.76,0,4.68-2,4.68-5.16v-1.56l-4.52,1.08c-2.24.52-3.2,1.28-3.2,3.04,0,1.6,1.2,2.6,3.04,2.6Z"/>
    <path class="cls-2" d="m315.6,30.64h4.64v.84c0,1.12-.04,2-.36,3.6l.48.12c.76-2.68,2.16-4.56,5.44-4.56h1.48v4.88h-2.04c-3,0-4.64,1.84-4.64,5.2v10.28h-5v-20.36Z"/>
    <path class="cls-2" d="m331.64,55.24h3.24c1.08,0,1.8-.2,2.2-1.6l.76-2.64h-4.2l-5.56-20.36h5.2l4.32,16.4h1.2l4.32-16.4h4.88l-6.48,23.56c-.96,3.48-2.32,5-6.28,5h-3.6v-3.96Z"/>
  </g>
</svg>