<?xml version="1.0" encoding="UTF-8"?><svg id="Logos" xmlns="http://www.w3.org/2000/svg" width="229.56" height="72" viewBox="0 0 229.56 72"><defs><style>.cls-1{fill:#fff;}.cls-1,.cls-2{stroke-width:0px;}.cls-2{fill:#00ca8e;}</style></defs><path class="cls-2" d="M38.43,7.31l-25,14.4v28.8l25,14.4,25-14.4v-28.9l-25-14.3ZM49.53,38.91l-6.7,3.8-8-4.4v9.2l-7.6,4.8v-19.2l6-3.7,8.3,4.4v-9.3l8-4.8v19.2Z"/><path class="cls-1" d="M88.08,22.92h7.58l10.88,22.83.48-.12c-.52-3.85-.6-5.26-.6-7.5v-15.21h4.82v28.09h-7.62l-10.88-22.83-.44.12c.52,3.85.6,5.26.6,7.5v15.21h-4.82v-28.09Z"/><path class="cls-1" d="M115.33,40.82c0-6.22,4.29-10.67,10.35-10.67s10.39,4.45,10.39,10.67-4.37,10.63-10.39,10.63-10.35-4.41-10.35-10.63ZM131.06,40.82c0-3.93-2.13-6.58-5.38-6.58s-5.38,2.65-5.38,6.58,2.17,6.58,5.38,6.58,5.38-2.65,5.38-6.58Z"/><path class="cls-1" d="M139.76,30.58h4.9v.88c0,1.08-.08,1.81-.36,3.25l.48.12c1.04-3.17,3.09-4.7,6.3-4.7s5.38,1.48,6.14,4.62h.44c1.08-3.09,3.13-4.62,6.18-4.62,4.21,0,6.46,2.73,6.46,7.42v13.44h-4.74v-13.28c0-2.33-1.16-3.61-3.25-3.61-2.73,0-4.65,2.29-4.65,5.66v11.24h-5.02v-13.28c0-2.33-1.12-3.61-3.21-3.61-2.69,0-4.66,2.29-4.66,5.66v11.24h-5.02v-20.43Z"/><path class="cls-1" d="M173.59,45.55c0-4.21,3.01-5.58,6.58-6.42l6.18-1.44v-.44c0-2.13-1.4-3.45-3.57-3.45s-3.45,1.2-3.89,3.13l-4.41-.52c.68-3.81,3.89-6.26,8.51-6.26,5.06,0,8.35,3.17,8.35,7.83v8.39c0,.52.16.72.52.72h1.12v3.93h-3.01c-1.97,0-2.81-.6-2.81-2.25,0-.48.08-1.08.28-1.81l-.44-.12c-1.44,3.09-3.57,4.5-6.66,4.5-4.05,0-6.74-2.25-6.74-5.78ZM181.66,47.68c2.77,0,4.7-2.01,4.7-5.18v-1.56l-4.53,1.08c-2.25.52-3.21,1.28-3.21,3.05,0,1.61,1.2,2.61,3.05,2.61Z"/><path class="cls-1" d="M195.46,40.82c0-6.54,3.93-10.67,8.95-10.67,3.05,0,5.3,1.57,6.54,4.86l.48-.12c-.28-1.65-.36-2.37-.36-3.29v-9.47h5.02v28.89h-4.9v-1c0-.88.04-1.65.32-3.25l-.44-.16c-1.28,3.29-3.61,4.86-6.66,4.86-5.02,0-8.95-4.05-8.95-10.63ZM211.15,40.82c0-4.09-2.25-6.58-5.34-6.58s-5.38,2.49-5.38,6.58,2.25,6.58,5.38,6.58,5.34-2.53,5.34-6.58Z"/></svg>