<?xml version="1.0" encoding="UTF-8"?><svg id="Logos" xmlns="http://www.w3.org/2000/svg" width="228.41" height="72" viewBox="0 0 228.41 72"><defs><style>.cls-1{fill:#000;}.cls-1,.cls-2{stroke-width:0px;}.cls-2{fill:#00ca8e;}</style></defs><path class="cls-2" d="M38.47,7.19l-25,14.4v28.8l25,14.4,25-14.4v-28.9l-25-14.3ZM49.57,38.79l-6.7,3.8-8-4.4v9.2l-7.6,4.8v-19.2l6-3.7,8.3,4.4v-9.3l8-4.8v19.2Z"/><path class="cls-1" d="M87.99,22.94h7.86l10.59,22.58.48-.12c-.52-3.93-.6-5.41-.6-7.7v-14.76h4.97v28.07h-7.86l-10.59-22.58-.48.12c.52,3.93.6,5.41.6,7.7v14.76h-4.97v-28.07Z"/><path class="cls-1" d="M114.93,40.78c0-6.22,4.37-10.67,10.43-10.67s10.43,4.45,10.43,10.67-4.37,10.71-10.43,10.71-10.43-4.49-10.43-10.71ZM130.57,40.78c0-3.85-2.05-6.42-5.21-6.42s-5.21,2.57-5.21,6.42,2.09,6.46,5.21,6.46,5.21-2.57,5.21-6.46Z"/><path class="cls-1" d="M139.07,30.6h5.09v.8c0,1.08-.08,1.8-.36,3.25l.48.16c1.04-3.17,3.05-4.69,6.26-4.69s5.37,1.48,6.14,4.61h.48c1.04-3.09,3.09-4.61,6.1-4.61,4.25,0,6.46,2.73,6.46,7.42v13.47h-4.89v-13.27c0-2.25-1.12-3.49-3.17-3.49-2.65,0-4.49,2.21-4.49,5.45v11.31h-5.21v-13.27c0-2.25-1.12-3.49-3.13-3.49-2.65,0-4.53,2.21-4.53,5.45v11.31h-5.21v-20.41Z"/><path class="cls-1" d="M172.64,45.55c0-4.21,2.97-5.61,6.58-6.46l6.1-1.4v-.48c0-2.04-1.32-3.33-3.45-3.33s-3.37,1.16-3.77,3.09l-4.57-.52c.68-3.85,3.93-6.34,8.54-6.34,5.09,0,8.42,3.21,8.42,7.9v8.22c0,.52.16.68.52.68h1.12v4.09h-3.13c-1.97,0-2.85-.64-2.85-2.25,0-.48.08-1.04.28-1.76l-.44-.16c-1.44,3.13-3.57,4.49-6.58,4.49-4.13,0-6.78-2.29-6.78-5.77ZM180.78,47.56c2.65,0,4.53-1.92,4.53-4.97v-1.6l-4.37,1.04c-2.21.52-3.13,1.28-3.13,2.97s1.16,2.57,2.97,2.57Z"/><path class="cls-1" d="M194.21,40.82c0-6.58,3.93-10.71,8.9-10.71,3.01,0,5.25,1.56,6.5,4.81l.48-.12c-.28-1.64-.36-2.37-.36-3.29v-9.38h5.21v28.87h-5.09v-.96c0-.88.04-1.64.32-3.25l-.44-.16c-1.28,3.29-3.61,4.85-6.62,4.85-4.97,0-8.9-4.09-8.9-10.67ZM209.81,40.78c0-3.97-2.17-6.42-5.21-6.42s-5.21,2.45-5.21,6.42,2.17,6.46,5.21,6.46,5.21-2.45,5.21-6.46Z"/></svg>