<?xml version="1.0" encoding="UTF-8"?><svg id="Logos" xmlns="http://www.w3.org/2000/svg" width="240.72" height="72" viewBox="0 0 240.72 72"><defs><style>.cls-1{fill:#000;}.cls-1,.cls-2,.cls-3{stroke-width:0px;}.cls-2,.cls-3{fill:#02a8ef;}.cls-3{fill-rule:evenodd;}</style></defs><path class="cls-3" d="M31.88,14.27l18.6,10.8v39.7l-18.6-10.8V14.27Z"/><path class="cls-2" d="M59.68,18.87l-20.2-11.6v8.1l13.7,8v24.3l6.5,3.7c4,2.3,7.3,1,7.3-3.1v-17.9c-.1-4-3.4-9.2-7.3-11.5Z"/><path class="cls-1" d="M88.09,22.94h10.03c6.86,0,11.15,3.29,11.15,9.3s-4.29,9.3-11.15,9.3h-4.69v9.46h-5.33v-28.07ZM98.12,37.09c3.73,0,5.73-1.6,5.73-4.85s-2.01-4.81-5.73-4.81h-4.69v9.66h4.69Z"/><path class="cls-1" d="M110.47,45.55c0-4.21,2.97-5.61,6.58-6.46l6.1-1.4v-.48c0-2.04-1.32-3.33-3.45-3.33s-3.37,1.16-3.77,3.09l-4.57-.52c.68-3.85,3.93-6.34,8.54-6.34,5.09,0,8.42,3.21,8.42,7.9v8.22c0,.52.16.68.52.68h1.12v4.09h-3.13c-1.97,0-2.85-.64-2.85-2.25,0-.48.08-1.04.28-1.76l-.44-.16c-1.44,3.13-3.57,4.49-6.58,4.49-4.13,0-6.78-2.29-6.78-5.77ZM118.61,47.56c2.65,0,4.53-1.92,4.53-4.97v-1.6l-4.37,1.04c-2.21.52-3.13,1.28-3.13,2.97s1.16,2.57,2.97,2.57Z"/><path class="cls-1" d="M131.96,40.78c0-6.1,4.33-10.67,10.27-10.67,5.05,0,8.3,2.81,9.38,6.58l-4.89,1.28c-.72-2.41-2.25-3.61-4.53-3.61-3.01,0-5.01,2.57-5.01,6.42s2.01,6.46,5.13,6.46c2.49,0,4.09-1.36,4.77-3.85l4.57.48c-1.16,4.73-4.33,7.62-9.46,7.62-5.85,0-10.23-4.61-10.23-10.71Z"/><path class="cls-1" d="M154.66,22.13h5.21v16.4h2.05l5.73-7.94h5.33l-7.06,9.62,8.14,10.79h-5.9l-6.26-8.38h-2.05v8.38h-5.21v-28.87Z"/><path class="cls-1" d="M173.59,40.78c0-6.34,4.25-10.67,9.98-10.67s10.03,4.09,10.03,10.23v1.92h-14.88c.28,3.05,2.05,5.21,5.05,5.21,2.33,0,3.61-1.04,4.37-2.97l4.81.8c-1.12,3.69-4.01,6.18-9.18,6.18-5.94,0-10.19-4.49-10.19-10.71ZM178.8,38.74h9.58c-.36-2.93-2.08-4.61-4.81-4.61-2.49,0-4.33,1.72-4.77,4.61Z"/><path class="cls-1" d="M197,30.6h4.81v.8c0,1.08-.04,1.96-.36,3.61l.48.12c.76-2.69,2.17-4.53,5.45-4.53h1.48v5.05h-2.12c-2.93,0-4.53,1.76-4.53,5.01v10.35h-5.21v-20.41Z"/><path class="cls-3" d="M31.88,14.27l18.6,10.8v39.7l-18.6-10.8V14.27Z"/><path class="cls-2" d="M59.68,18.87l-20.2-11.6v8.1l13.7,8v24.3l6.5,3.7c4,2.3,7.3,1,7.3-3.1v-17.9c-.1-4-3.4-9.2-7.3-11.5Z"/></svg>