<?xml version="1.0" encoding="UTF-8"?><svg id="Logos" xmlns="http://www.w3.org/2000/svg" width="461.83" height="72" viewBox="0 0 461.83 72"><defs><style>.cls-1{fill:#000;}.cls-1,.cls-2,.cls-3{stroke-width:0px;}.cls-2,.cls-3{fill:#02a8ef;}.cls-3{fill-rule:evenodd;}</style></defs><path class="cls-3" d="M31.88,14.27l18.6,10.8v39.7l-18.6-10.8V14.27Z"/><path class="cls-2" d="M59.68,18.87l-20.2-11.6v8.1l13.7,8v24.3l6.5,3.7c4,2.3,7.3,1,7.3-3.1v-17.9c-.1-4-3.4-9.2-7.3-11.5Z"/><path class="cls-1" d="M88.09,22.94h10.03c6.86,0,11.15,3.29,11.15,9.3s-4.29,9.3-11.15,9.3h-4.69v9.46h-5.33v-28.07ZM98.12,37.09c3.73,0,5.73-1.6,5.73-4.85s-2.01-4.81-5.73-4.81h-4.69v9.66h4.69Z"/><path class="cls-1" d="M110.47,45.55c0-4.21,2.97-5.61,6.58-6.46l6.1-1.4v-.48c0-2.04-1.32-3.33-3.45-3.33s-3.37,1.16-3.77,3.09l-4.57-.52c.68-3.85,3.93-6.34,8.54-6.34,5.09,0,8.42,3.21,8.42,7.9v8.22c0,.52.16.68.52.68h1.12v4.09h-3.13c-1.97,0-2.85-.64-2.85-2.25,0-.48.08-1.04.28-1.76l-.44-.16c-1.44,3.13-3.57,4.49-6.58,4.49-4.13,0-6.78-2.29-6.78-5.77ZM118.61,47.56c2.65,0,4.53-1.92,4.53-4.97v-1.6l-4.37,1.04c-2.21.52-3.13,1.28-3.13,2.97s1.16,2.57,2.97,2.57Z"/><path class="cls-1" d="M131.96,40.78c0-6.1,4.33-10.67,10.27-10.67,5.05,0,8.3,2.81,9.38,6.58l-4.89,1.28c-.72-2.41-2.25-3.61-4.53-3.61-3.01,0-5.01,2.57-5.01,6.42s2.01,6.46,5.13,6.46c2.49,0,4.09-1.36,4.77-3.85l4.57.48c-1.16,4.73-4.33,7.62-9.46,7.62-5.85,0-10.23-4.61-10.23-10.71Z"/><path class="cls-1" d="M154.66,22.13h5.21v16.4h2.05l5.73-7.94h5.33l-7.06,9.62,8.14,10.79h-5.9l-6.26-8.38h-2.05v8.38h-5.21v-28.87Z"/><path class="cls-1" d="M173.59,40.78c0-6.34,4.25-10.67,9.98-10.67s10.03,4.09,10.03,10.23v1.92h-14.88c.28,3.05,2.05,5.21,5.05,5.21,2.33,0,3.61-1.04,4.37-2.97l4.81.8c-1.12,3.69-4.01,6.18-9.18,6.18-5.94,0-10.19-4.49-10.19-10.71ZM178.8,38.74h9.58c-.36-2.93-2.08-4.61-4.81-4.61-2.49,0-4.33,1.72-4.77,4.61Z"/><path class="cls-1" d="M197,30.6h4.81v.8c0,1.08-.04,1.96-.36,3.61l.48.12c.76-2.69,2.17-4.53,5.45-4.53h1.48v5.05h-2.12c-2.93,0-4.53,1.76-4.53,5.01v10.35h-5.21v-20.41Z"/><path class="cls-1" d="M217.61,36.97c0-8.42,5.53-14.52,13.55-14.52,6.74,0,11.35,3.89,12.59,9.18l-5.29,1.28c-1-3.69-3.45-5.77-7.3-5.77-4.89,0-7.98,4.05-7.98,9.82s3.21,9.82,8.18,9.82c3.93,0,6.34-2.13,7.34-6.06l5.01.56c-1.2,6.3-5.85,10.19-12.43,10.19-8.1,0-13.67-6.1-13.67-14.52Z"/><path class="cls-1" d="M245.88,40.78c0-6.22,4.37-10.67,10.43-10.67s10.43,4.45,10.43,10.67-4.37,10.71-10.43,10.71-10.43-4.49-10.43-10.71ZM261.52,40.78c0-3.85-2.04-6.42-5.21-6.42s-5.21,2.57-5.21,6.42,2.09,6.46,5.21,6.46,5.21-2.57,5.21-6.46Z"/><path class="cls-1" d="M270.03,30.6h5.09v.8c0,1.08-.08,1.8-.36,3.25l.48.16c1.04-3.17,3.05-4.69,6.26-4.69s5.37,1.48,6.14,4.61h.48c1.04-3.09,3.09-4.61,6.1-4.61,4.25,0,6.46,2.73,6.46,7.42v13.47h-4.89v-13.27c0-2.25-1.12-3.49-3.17-3.49-2.65,0-4.49,2.21-4.49,5.45v11.31h-5.21v-13.27c0-2.25-1.12-3.49-3.13-3.49-2.65,0-4.53,2.21-4.53,5.45v11.31h-5.21v-20.41Z"/><path class="cls-1" d="M304.79,30.6h5.09v.8c0,1.08-.08,1.8-.36,3.25l.48.16c1.04-3.17,3.05-4.69,6.26-4.69s5.37,1.48,6.14,4.61h.48c1.04-3.09,3.09-4.61,6.1-4.61,4.25,0,6.46,2.73,6.46,7.42v13.47h-4.89v-13.27c0-2.25-1.12-3.49-3.17-3.49-2.65,0-4.49,2.21-4.49,5.45v11.31h-5.21v-13.27c0-2.25-1.12-3.49-3.13-3.49-2.65,0-4.53,2.21-4.53,5.45v11.31h-5.21v-20.41Z"/><path class="cls-1" d="M352.83,30.6h5.21v20.41h-5.09v-.8c0-1.04.08-1.8.32-3.29l-.44-.12c-1.24,2.97-3.17,4.69-6.66,4.69-4.45,0-6.78-2.81-6.78-7.58v-13.31h5.21v12.87c0,2.61,1.12,3.89,3.61,3.89,2.65,0,4.61-2.01,4.61-5.57v-11.19Z"/><path class="cls-1" d="M367.55,51.01h-5.21v-20.41h5.09v.8c0,1.04-.08,1.76-.36,3.25l.48.16c1.24-2.97,3.13-4.69,6.62-4.69,4.45,0,6.82,2.81,6.82,7.58v13.31h-5.21v-13.15c0-2.33-1.16-3.61-3.49-3.61-2.65,0-4.73,2-4.73,5.53v11.23Z"/><path class="cls-1" d="M391.53,51.01h-5.21v-16.28h-2.89v-4.13h8.1v20.41ZM385.59,25.14c0-1.76,1.4-3.21,3.13-3.21s3.17,1.44,3.17,3.21-1.4,3.17-3.17,3.17-3.13-1.4-3.13-3.17Z"/><path class="cls-1" d="M398.14,45.83v-11.11h-3.61v-4.13h3.61v-5.17h5.21v5.17h4.97v4.13h-4.97v10.47c0,1.24.44,1.68,1.44,1.68h3.53v4.13h-4.53c-3.97,0-5.65-1.6-5.65-5.17Z"/><path class="cls-1" d="M413.3,55.1h3.05c1.32,0,1.84-.4,2.21-1.56l.76-2.53h-3.81l-5.77-20.41h5.41l4.53,16.32h.68l4.45-16.32h5.13l-6.74,23.58c-1,3.53-2.45,5.05-6.46,5.05h-3.45v-4.13Z"/></svg>