<?xml version="1.0" encoding="UTF-8"?>
<!-- Created with Inkscape (http://www.inkscape.org/) -->
<svg width="1020.9" height="382" version="1.1" viewBox="0 0 1020.9 382" xmlns="http://www.w3.org/2000/svg" xmlns:cc="http://creativecommons.org/ns#" xmlns:dc="http://purl.org/dc/elements/1.1/" xmlns:rdf="http://www.w3.org/1999/02/22-rdf-syntax-ns#">
 <defs>
 <clipPath id="clipPath1574">
 <path d="m939.26 1562-148.29 256.85h84.723l67.77-117.38c72.24 119.54 1.252 242.53 1.252 242.53h86s89.696-190-91.453-382z" fill="#00f"/>
 </clipPath>
 </defs>
 <g transform="translate(-32.023 -1562)" clip-path="url(#clipPath1574)">
 <rect x="788" y="1562" width="265" height="168" fill="#a02c35"/>
 <rect x="788" y="1660" width="265" height="119" fill="#c93a40"/>
 <rect x="788" y="1730" width="265" height="98" fill="#da6240"/>
 <rect x="788" y="1779" width="265" height="165" fill="#e8c959"/>
 <rect x="788" y="1828" width="265" height="116" fill="#e9d9b4"/>
 </g>
 <path d="m305.79 264h30.78q4.9221 3.075 9.8404 8.625 4.9895 5.55 8.4925 11.7 3.5743 6.15 5.5126 11.925l18.62-32.25h30.78l-65.818 114h-30.78l21.477-37.2q-0.98961-4.95-2.9866-10.5-1.9257-5.55-4.8489-11.1-2.8087-5.625-5.7555-9.9-2.9035-4.35-6.2708-7.65l-44.081 76.35h-30.78z" fill="#928d7a"/>
 <path d="m153.82 264h55.598q18.742 0 26.595 6.45 7.9744 6.375 7.1687 16.5-0.72691 10.125-7.2654 21.45-5.4126 9.375-13.153 17.325-7.6179 7.875-17.425 13.95-9.7641 6-20.726 9.3-10.839 3.225-22.337 3.225-9.765 0-17.715-2.325l14.722-25.5q4.0914 2.325 10.943 2.325 5.9062 0 11.643-2.025 5.78-2.1 10.682-6.225 5.0236-4.2 8.4877-10.2 1.9919-3.45 2.9481-7.425 1.0783-4.05-2.1195-7.65-3.0757-3.675-13.392-3.675h-15.356l-51.096 88.5h-34.02z" fill="#928d7a"/>
 <path d="m265.82 264h34.02l-65.818 114h-34.02z" fill="#928d7a"/>
 <path d="m415.82 264h30.78q4.9222 3.075 9.8404 8.625 4.9894 5.55 8.4925 11.7 3.5743 6.15 5.5126 11.925l18.62-32.25h30.78l-65.818 114h-30.78l21.477-37.2q-0.98961-4.95-2.9866-10.5-1.9257-5.55-4.8489-11.1-2.8086-5.625-5.7555-9.9-2.9035-4.35-6.2708-7.65l-44.081 76.35h-30.78z" fill="#928d7a"/>
 <path d="m563.15 264h32.29q1.1054 13.425-0.60632 28.2t-5.4158 30.15q-3.6607 15.3-8.3962 29.475-4.6922 14.1-9.6259 26.175h-33.936q1.1484-3.075 3.3256-8.475 2.7133-6.6 4.076-10.725h-33.544q9.1331-11.475 19.84-23.775h20.691q2.3708-7.5 3.6382-14.175 1.3108-6.75 1.7988-12.075 0.6097-5.4 0.76819-7.575-12.606 11.925-24.713 24.75-12.029 12.825-23.393 26.4-11.321 13.5-20.452 25.65h-33.858q10.962-14.1 24.618-30.15 13.777-16.125 28.513-31.875 14.858-15.825 28.592-29.025 13.778-13.275 25.79-22.95z" fill="#928d7a"/>
 <path d="m638.82 264h33.858l-13.337 23.1q10.18-2.7 23.109-9.075t22.362-14.025h40.598q-4.706 4.35-12.307 10.05-7.4798 5.625-15.44 10.725-7.8821 5.1-16.402 9.675-8.5195 4.575-16.251 7.65 3.4476 7.875 4.8618 17.1 1.4142 9.225 0.95775 18.975-0.45642 9.75-2.67 20.1-2.1352 10.35-5.6669 19.725h-34.877q3.74-9.6 5.104-18.75 1.4857-9.225 1.1216-16.875-0.32083-7.725-1.8913-14.1-1.4488-6.45-3.739-11.85-3.6442 1.425-7.0988 2.25l-34.251 59.325h-33.858z" fill="#928d7a"/>
 <path d="m839.54 264-14.722 25.5h-50.865l-36.373 63h50.865l-14.722 25.5h-84.723l65.818-114zm-20.135 34.875-14.722 25.5h-44.595l14.722-25.5z" fill="#928d7a"/>
 <path d="m847.82 264h47.88q14.175 0 25.397 2.25 11.222 2.25 16.063 11.325 4.8839 9-5.595 27.15-6.7983 11.775-16.472 19.8-9.63 7.95-19.737 12.225-10.107 4.275-19.234 5.625 8.0648 5.4 13.975 7.575 5.9106 2.175 11.443 2.55l-16.238 28.125q-6.9303-1.5-14.376-4.425-7.3242-3-13.928-6.975-6.6038-3.975-11.034-7.35-4.387-3.45-9.5261-8.325l17.017-29.475q4.8315 1.725 10.423 1.725 8.7413 0 17.124-4.425 8.461-4.425 14.09-14.175 4.6332-8.025 2.7111-11.925-1.922-3.9-6.3637-4.8-4.3983-0.975-9.9896-0.975h-14.333l-51.096 88.5h-34.02z" fill="#928d7a"/>
 <path d="m146.67 264-14.722 25.5h-32.775q-9.3 0-13.111 6.6-1.3423 2.325-1.2365 4.35 0.22417 1.95 1.6251 4.2 1.476 2.25 5.2212 6.675 6.4467 7.8 9.2687 12.525 2.8653 4.65 2.6896 10.8-0.1007 6.15-5.0803 14.775-7.1447 12.375-17.875 18.75-10.656 6.375-20.202 8.1-9.5459 1.725-17.571 1.725h-42.9l14.722-25.5h36q9.675 0 13.399-6.45 1.1691-2.025 1.2852-3.525 0.15933-1.575-0.30455-2.85-0.46388-1.275-2.1849-3.75t-2.9318-4.275q-4.1024-5.625-7.0659-9.975t-4.4387-8.55-0.75744-9.6q0.71769-5.4 4.6148-12.15 4.46-7.725 11.461-13.875 7.0757-6.15 17.147-9.825 10.072-3.675 22.522-3.675z" fill="#928d7a"/>
</svg>
