<?xml version="1.0" encoding="UTF-8"?><svg id="Logos" xmlns="http://www.w3.org/2000/svg" width="504.27" height="72" viewBox="0 0 504.27 72"><defs><style>.cls-1{fill:#a067da;fill-rule:evenodd;}.cls-1,.cls-2{stroke-width:0px;}.cls-2{fill:#fff;}</style></defs><path class="cls-1" d="M33.19,17.5l15.5,9v18l-15.5-9v-18Z"/><path class="cls-1" d="M50.49,26.5v18l15.5-9v-18l-15.5,9Z"/><path class="cls-1" d="M15.99,7.5v18l15.5,9v-18L15.99,7.5Z"/><path class="cls-1" d="M33.19,55.5l15.5,9v-18l-15.5-9v18Z"/><path class="cls-2" d="M92.79,27.28h-8.99v-4.37h23.16v4.37h-8.95v23.72h-5.22v-23.72Z"/><path class="cls-2" d="M105.63,40.81c0-6.38,4.25-10.67,9.95-10.67s9.95,4.05,9.95,10.23v1.85h-14.97c.28,3.17,2.13,5.38,5.22,5.38,2.37,0,3.69-1.08,4.49-3.05l4.61.72c-1.12,3.77-4.01,6.18-9.11,6.18-5.94,0-10.15-4.41-10.15-10.63ZM110.64,38.76h9.87c-.36-3.01-2.17-4.78-4.94-4.78-2.61,0-4.49,1.85-4.94,4.78Z"/><path class="cls-2" d="M129.34,30.57h4.66v.84c0,1.12-.04,2.01-.36,3.61l.48.12c.76-2.69,2.17-4.57,5.46-4.57h1.48v4.9h-2.05c-3.01,0-4.66,1.85-4.66,5.22v10.31h-5.02v-20.43Z"/><path class="cls-2" d="M143.91,30.57h4.66v.84c0,1.12-.04,2.01-.36,3.61l.48.12c.76-2.69,2.17-4.57,5.46-4.57h1.48v4.9h-2.05c-3.01,0-4.66,1.85-4.66,5.22v10.31h-5.02v-20.43Z"/><path class="cls-2" d="M156.59,45.54c0-4.21,3.01-5.58,6.58-6.42l6.18-1.44v-.44c0-2.13-1.4-3.45-3.57-3.45s-3.45,1.2-3.89,3.13l-4.41-.52c.68-3.81,3.89-6.26,8.51-6.26,5.06,0,8.35,3.17,8.35,7.83v8.39c0,.52.16.72.52.72h1.12v3.93h-3.01c-1.97,0-2.81-.6-2.81-2.25,0-.48.08-1.08.28-1.81l-.44-.12c-1.44,3.09-3.57,4.49-6.66,4.49-4.05,0-6.74-2.25-6.74-5.78ZM164.66,47.67c2.77,0,4.7-2.01,4.7-5.18v-1.56l-4.53,1.08c-2.25.52-3.21,1.28-3.21,3.05,0,1.61,1.2,2.61,3.05,2.61Z"/><path class="cls-2" d="M181.31,34.59h-3.69v-4.01h3.69v-3.17c0-3.69,1.73-5.3,5.74-5.3h4.53v3.97h-3.65c-1.2,0-1.69.56-1.69,1.89v2.61h4.78v4.01h-4.7v16.41h-5.02v-16.41Z"/><path class="cls-2" d="M192.58,40.81c0-6.22,4.29-10.67,10.35-10.67s10.39,4.45,10.39,10.67-4.37,10.63-10.39,10.63-10.35-4.41-10.35-10.63ZM208.32,40.81c0-3.93-2.13-6.58-5.38-6.58s-5.38,2.65-5.38,6.58,2.17,6.58,5.38,6.58,5.38-2.65,5.38-6.58Z"/><path class="cls-2" d="M217.02,30.57h4.66v.84c0,1.12-.04,2.01-.36,3.61l.48.12c.76-2.69,2.17-4.57,5.46-4.57h1.48v4.9h-2.05c-3.01,0-4.65,1.85-4.65,5.22v10.31h-5.02v-20.43Z"/><path class="cls-2" d="M231.59,30.57h4.9v.88c0,1.08-.08,1.81-.36,3.25l.48.12c1.04-3.17,3.09-4.69,6.3-4.69s5.38,1.48,6.14,4.61h.44c1.08-3.09,3.13-4.61,6.18-4.61,4.21,0,6.46,2.73,6.46,7.42v13.44h-4.74v-13.28c0-2.33-1.16-3.61-3.25-3.61-2.73,0-4.65,2.29-4.65,5.66v11.24h-5.02v-13.28c0-2.33-1.12-3.61-3.21-3.61-2.69,0-4.65,2.29-4.65,5.66v11.24h-5.02v-20.43Z"/><path class="cls-2" d="M273.76,36.95c0-8.43,5.5-14.53,13.52-14.53,6.66,0,11.28,3.89,12.56,9.23l-5.1,1.2c-1.04-3.77-3.53-5.94-7.46-5.94-5.02,0-8.19,4.17-8.19,10.03s3.29,10.03,8.35,10.03c4.01,0,6.46-2.21,7.5-6.22l4.86.56c-1.24,6.26-5.9,10.15-12.44,10.15-8.03,0-13.6-6.1-13.6-14.53Z"/><path class="cls-2" d="M302.38,40.81c0-6.22,4.29-10.67,10.35-10.67s10.39,4.45,10.39,10.67-4.37,10.63-10.39,10.63-10.35-4.41-10.35-10.63ZM318.11,40.81c0-3.93-2.13-6.58-5.38-6.58s-5.38,2.65-5.38,6.58,2.17,6.58,5.38,6.58,5.38-2.65,5.38-6.58Z"/><path class="cls-2" d="M326.81,30.57h4.9v.88c0,1.08-.08,1.81-.36,3.25l.48.12c1.04-3.17,3.09-4.69,6.3-4.69s5.38,1.48,6.14,4.61h.44c1.08-3.09,3.13-4.61,6.18-4.61,4.21,0,6.46,2.73,6.46,7.42v13.44h-4.74v-13.28c0-2.33-1.16-3.61-3.25-3.61-2.73,0-4.65,2.29-4.65,5.66v11.24h-5.02v-13.28c0-2.33-1.12-3.61-3.21-3.61-2.69,0-4.66,2.29-4.66,5.66v11.24h-5.02v-20.43Z"/><path class="cls-2" d="M361.89,30.57h4.9v.88c0,1.08-.08,1.81-.36,3.25l.48.12c1.04-3.17,3.09-4.69,6.3-4.69s5.38,1.48,6.14,4.61h.44c1.08-3.09,3.13-4.61,6.18-4.61,4.21,0,6.46,2.73,6.46,7.42v13.44h-4.74v-13.28c0-2.33-1.16-3.61-3.25-3.61-2.73,0-4.65,2.29-4.65,5.66v11.24h-5.02v-13.28c0-2.33-1.12-3.61-3.21-3.61-2.69,0-4.66,2.29-4.66,5.66v11.24h-5.02v-20.43Z"/><path class="cls-2" d="M410.28,30.57h5.02v20.43h-4.9v-.84c0-1.04.08-1.81.32-3.25l-.44-.16c-1.24,3.01-3.17,4.7-6.66,4.7-4.45,0-6.82-2.77-6.82-7.54v-13.32h5.02v12.88c0,2.69,1.16,4.05,3.73,4.05,2.73,0,4.74-2.09,4.74-5.7v-11.24Z"/><path class="cls-2" d="M425.05,51h-5.02v-20.43h4.9v.84c0,1.08-.08,1.81-.36,3.29l.48.12c1.24-2.97,3.17-4.69,6.66-4.69,4.45,0,6.82,2.81,6.82,7.58v13.28h-5.02v-13.12c0-2.41-1.2-3.77-3.61-3.77-2.69,0-4.86,2.05-4.86,5.74v11.16Z"/><path class="cls-2" d="M449.33,51h-5.02v-16.41h-2.93v-4.01h7.95v20.43ZM443.59,25.08c0-1.69,1.4-3.09,3.05-3.09s3.09,1.4,3.09,3.09-1.37,3.13-3.09,3.13-3.05-1.36-3.05-3.13Z"/><path class="cls-2" d="M456.43,45.86v-11.28h-3.65v-4.01h3.65v-5.18h5.02v5.18h5.06v4.01h-5.06v10.67c0,1.28.48,1.77,1.53,1.77h3.53v3.97h-4.46c-3.93,0-5.62-1.56-5.62-5.14Z"/><path class="cls-2" d="M471.76,55.25h2.97c1.32,0,1.85-.4,2.25-1.61l.8-2.65h-3.69l-5.86-20.43h5.22l4.65,16.45h.68l4.58-16.45h4.94l-6.86,23.64c-1,3.49-2.37,5.02-6.34,5.02h-3.33v-3.97Z"/></svg>