<?xml version="1.0" encoding="UTF-8"?><svg id="Logos" xmlns="http://www.w3.org/2000/svg" width="422.59" height="72" viewBox="0 0 422.59 72"><defs><style>.cls-1{fill:#ffcf25;}.cls-1,.cls-2{stroke-width:0px;}.cls-2{fill:#fff;}</style></defs><path class="cls-2" d="M86.14,22.91h5.38l6.66,23.48h1.44l6.62-23.48h5.1l-8.11,28.09h-8.99l-8.11-28.09Z"/><path class="cls-2" d="M111.54,45.54c0-4.21,3.01-5.58,6.58-6.42l6.18-1.44v-.44c0-2.13-1.4-3.45-3.57-3.45s-3.45,1.2-3.89,3.13l-4.41-.52c.68-3.81,3.89-6.26,8.51-6.26,5.06,0,8.35,3.17,8.35,7.83v8.39c0,.52.16.72.52.72h1.12v3.93h-3.01c-1.97,0-2.81-.6-2.81-2.25,0-.48.08-1.08.28-1.81l-.44-.12c-1.44,3.09-3.57,4.5-6.66,4.5-4.05,0-6.74-2.25-6.74-5.78ZM119.61,47.67c2.77,0,4.7-2.01,4.7-5.18v-1.56l-4.53,1.08c-2.25.52-3.21,1.28-3.21,3.05,0,1.61,1.2,2.61,3.05,2.61Z"/><path class="cls-2" d="M147.7,30.57h5.02v20.43h-4.9v-.84c0-1.04.08-1.81.32-3.25l-.44-.16c-1.24,3.01-3.17,4.7-6.66,4.7-4.45,0-6.82-2.77-6.82-7.54v-13.32h5.02v12.88c0,2.69,1.16,4.05,3.73,4.05,2.73,0,4.74-2.09,4.74-5.7v-11.24Z"/><path class="cls-2" d="M163.63,46.06c0,.76.28,1,.84,1h2.45v3.93h-4.7c-2.37,0-3.61-1.28-3.61-3.69v-21.23h-2.97v-3.97h7.99v23.96Z"/><path class="cls-2" d="M171.13,45.86v-11.28h-3.65v-4.01h3.65v-5.18h5.02v5.18h5.06v4.01h-5.06v10.67c0,1.28.48,1.77,1.52,1.77h3.53v3.97h-4.45c-3.93,0-5.62-1.56-5.62-5.14Z"/><path class="cls-2" d="M191.52,36.95c0-8.43,5.5-14.53,13.52-14.53,6.66,0,11.28,3.89,12.56,9.23l-5.1,1.2c-1.04-3.77-3.53-5.94-7.46-5.94-5.02,0-8.19,4.17-8.19,10.03s3.29,10.03,8.35,10.03c4.01,0,6.46-2.21,7.5-6.22l4.86.56c-1.24,6.26-5.9,10.15-12.44,10.15-8.03,0-13.6-6.1-13.6-14.53Z"/><path class="cls-2" d="M220.13,40.81c0-6.22,4.29-10.67,10.35-10.67s10.39,4.45,10.39,10.67-4.37,10.63-10.39,10.63-10.35-4.41-10.35-10.63ZM235.86,40.81c0-3.93-2.13-6.58-5.38-6.58s-5.38,2.65-5.38,6.58,2.17,6.58,5.38,6.58,5.38-2.65,5.38-6.58Z"/><path class="cls-2" d="M244.57,30.57h4.9v.88c0,1.08-.08,1.81-.36,3.25l.48.12c1.04-3.17,3.09-4.7,6.3-4.7s5.38,1.48,6.14,4.62h.44c1.08-3.09,3.13-4.62,6.18-4.62,4.21,0,6.46,2.73,6.46,7.42v13.44h-4.74v-13.28c0-2.33-1.16-3.61-3.25-3.61-2.73,0-4.65,2.29-4.65,5.66v11.24h-5.02v-13.28c0-2.33-1.12-3.61-3.21-3.61-2.69,0-4.65,2.29-4.65,5.66v11.24h-5.02v-20.43Z"/><path class="cls-2" d="M279.64,30.57h4.9v.88c0,1.08-.08,1.81-.36,3.25l.48.12c1.04-3.17,3.09-4.7,6.3-4.7s5.38,1.48,6.14,4.62h.44c1.08-3.09,3.13-4.62,6.18-4.62,4.21,0,6.46,2.73,6.46,7.42v13.44h-4.74v-13.28c0-2.33-1.16-3.61-3.25-3.61-2.73,0-4.66,2.29-4.66,5.66v11.24h-5.02v-13.28c0-2.33-1.12-3.61-3.21-3.61-2.69,0-4.65,2.29-4.65,5.66v11.24h-5.02v-20.43Z"/><path class="cls-2" d="M328.03,30.57h5.02v20.43h-4.9v-.84c0-1.04.08-1.81.32-3.25l-.44-.16c-1.24,3.01-3.17,4.7-6.66,4.7-4.45,0-6.82-2.77-6.82-7.54v-13.32h5.02v12.88c0,2.69,1.16,4.05,3.73,4.05,2.73,0,4.74-2.09,4.74-5.7v-11.24Z"/><path class="cls-2" d="M342.8,51h-5.02v-20.43h4.9v.84c0,1.08-.08,1.81-.36,3.29l.48.12c1.24-2.97,3.17-4.7,6.66-4.7,4.45,0,6.82,2.81,6.82,7.58v13.28h-5.02v-13.12c0-2.41-1.2-3.77-3.61-3.77-2.69,0-4.86,2.05-4.86,5.74v11.16Z"/><path class="cls-2" d="M367.08,51h-5.02v-16.41h-2.93v-4.01h7.95v20.43ZM361.34,25.07c0-1.69,1.4-3.09,3.05-3.09s3.09,1.4,3.09,3.09-1.36,3.13-3.09,3.13-3.05-1.36-3.05-3.13Z"/><path class="cls-2" d="M374.18,45.86v-11.28h-3.65v-4.01h3.65v-5.18h5.02v5.18h5.06v4.01h-5.06v10.67c0,1.28.48,1.77,1.52,1.77h3.53v3.97h-4.46c-3.93,0-5.62-1.56-5.62-5.14Z"/><path class="cls-2" d="M389.51,55.25h2.97c1.32,0,1.85-.4,2.25-1.61l.8-2.65h-3.69l-5.86-20.43h5.22l4.66,16.45h.68l4.58-16.45h4.94l-6.86,23.64c-1,3.49-2.37,5.02-6.34,5.02h-3.33v-3.97Z"/><path class="cls-1" d="M16.55,10.39l26.46,51.5,26.65-51.5H16.55ZM38.89,30.84h-4.22v-4.21h4.22v4.21ZM38.89,24.52h-4.22v-4.22h4.22v4.22ZM45.22,37.16h-4.22v-4.22h4.22v4.22ZM45.22,30.84h-4.22v-4.21h4.22v4.21ZM45.22,24.52h-4.22v-4.22h4.22v4.22ZM51.5,30.84h-4.22v-4.21h4.22v4.21ZM47.29,24.52v-4.22h4.22v4.22h-4.22Z"/></svg>