<?xml version="1.0" encoding="UTF-8"?><svg id="Logos" xmlns="http://www.w3.org/2000/svg" width="227.48" height="72" viewBox="0 0 227.48 72"><defs><style>.cls-1{fill:#fff;}.cls-1,.cls-2{stroke-width:0px;}.cls-2{fill:#e03875;}</style></defs><path class="cls-1" d="M85.46,36.96c0-8.43,5.5-14.53,13.52-14.53,6.66,0,11.28,3.89,12.56,9.23l-5.1,1.2c-1.04-3.77-3.53-5.94-7.46-5.94-5.02,0-8.19,4.17-8.19,10.03s3.29,10.03,8.35,10.03c4.01,0,6.46-2.21,7.5-6.22l4.86.56c-1.24,6.26-5.9,10.15-12.44,10.15-8.03,0-13.6-6.1-13.6-14.53Z"/><path class="cls-1" d="M114.07,40.81c0-6.22,4.29-10.67,10.35-10.67s10.39,4.45,10.39,10.67-4.37,10.63-10.39,10.63-10.35-4.41-10.35-10.63ZM129.8,40.81c0-3.93-2.13-6.58-5.38-6.58s-5.38,2.65-5.38,6.58,2.17,6.58,5.38,6.58,5.38-2.65,5.38-6.58Z"/><path class="cls-1" d="M143.53,51.01h-5.02v-20.43h4.9v.84c0,1.08-.08,1.81-.36,3.29l.48.12c1.24-2.97,3.17-4.7,6.66-4.7,4.45,0,6.82,2.81,6.82,7.58v13.28h-5.02v-13.12c0-2.41-1.2-3.77-3.61-3.77-2.69,0-4.86,2.05-4.86,5.74v11.16Z"/><path class="cls-1" d="M160.46,45.47l4.7-.96c.52,2.25,2.33,3.37,4.65,3.37s3.69-1,3.69-2.57c0-1.65-1.57-1.97-4.53-2.53-3.57-.56-8.31-1.2-8.31-6.22,0-3.81,3.25-6.42,8.47-6.42,4.66,0,8.27,1.97,9.11,5.9l-4.74.76c-.48-2.01-2.17-3.09-4.37-3.09-2.41,0-3.61,1.04-3.61,2.41,0,1.65,1.61,2.01,4.54,2.53,3.61.56,8.31,1.24,8.31,6.26,0,3.93-3.21,6.54-8.55,6.54-4.9,0-8.47-1.97-9.35-5.98Z"/><path class="cls-1" d="M195.29,30.58h5.02v20.43h-4.9v-.84c0-1.04.08-1.81.32-3.25l-.44-.16c-1.24,3.01-3.17,4.7-6.66,4.7-4.45,0-6.82-2.77-6.82-7.54v-13.32h5.02v12.88c0,2.69,1.16,4.05,3.73,4.05,2.73,0,4.74-2.09,4.74-5.7v-11.24Z"/><path class="cls-1" d="M211.22,46.07c0,.76.28,1,.84,1h2.45v3.93h-4.7c-2.37,0-3.61-1.28-3.61-3.69v-21.23h-2.97v-3.97h7.99v23.96Z"/><path class="cls-2" d="M39.64,64.69c-4.57,0-9.06-1.11-13.1-3.24-4.04-2.13-7.5-5.21-10.08-8.98-2.58-3.77-4.2-8.11-4.72-12.64-.52-4.54.07-9.13,1.73-13.38,1.66-4.25,4.33-8.04,7.78-11.03,3.45-2.99,7.58-5.09,12.03-6.12,4.45-1.03,9.08-.96,13.49.21,4.41,1.17,8.48,3.39,11.84,6.48h0l-6.66,6.96c-2.65-2.39-5.93-3.96-9.45-4.52-3.52-.56-7.13-.09-10.39,1.36-3.26,1.45-6.03,3.81-7.97,6.8-1.94,2.99-2.98,6.48-2.98,10.05s1.03,7.06,2.98,10.05c1.94,2.99,4.71,5.35,7.97,6.8,3.26,1.45,6.87,1.92,10.39,1.36,3.52-.56,6.81-2.13,9.45-4.52l6.66,6.96c-5.17,4.76-11.95,7.41-18.98,7.4h0Z"/><path class="cls-2" d="M62.22,50.66c-.45,0-.9-.13-1.28-.39-.38-.25-.67-.61-.85-1.03-.17-.42-.22-.88-.13-1.33.09-.45.31-.86.63-1.18.32-.32.73-.54,1.18-.63.45-.09.91-.04,1.33.13s.78.47,1.03.85c.25.38.39.82.39,1.28,0,.61-.24,1.19-.67,1.62-.43.43-1.02.67-1.62.67h0Z"/><path class="cls-2" d="M39.46,42.71c-1.2,0-2.38-.35-3.38-1.01-1-.67-1.79-1.61-2.25-2.72-.46-1.11-.59-2.33-.36-3.51.23-1.18.81-2.27,1.66-3.12.85-.85,1.93-1.43,3.11-1.67,1.18-.24,2.4-.12,3.52.34,1.11.46,2.06,1.24,2.73,2.24.67,1,1.02,2.18,1.02,3.38,0,1.61-.64,3.15-1.77,4.28-1.13,1.14-2.67,1.78-4.28,1.79h0Z"/><path class="cls-2" d="M64.86,42.82c-.45,0-.9-.13-1.28-.39-.38-.25-.67-.61-.85-1.03-.17-.42-.22-.88-.13-1.33.09-.45.31-.86.63-1.18s.73-.54,1.18-.63c.45-.09.91-.04,1.33.13.42.17.78.47,1.03.85.25.38.39.82.39,1.28,0,.61-.24,1.19-.67,1.62s-1.02.67-1.62.67Z"/><path class="cls-2" d="M58.02,42.54c-.46,0-.9-.14-1.28-.39-.38-.25-.67-.61-.85-1.04-.17-.42-.22-.89-.13-1.33.09-.45.31-.86.64-1.18.32-.32.74-.54,1.18-.62.45-.09.91-.04,1.33.14.42.18.78.48,1.03.86.25.38.38.83.37,1.28,0,.61-.25,1.18-.68,1.61-.43.43-1.01.66-1.62.66h0Z"/><path class="cls-2" d="M64.86,35.07c-.45,0-.9-.14-1.28-.39-.38-.25-.67-.61-.85-1.03-.17-.42-.22-.88-.13-1.33.09-.45.31-.86.63-1.18.32-.32.73-.54,1.18-.63.45-.09.91-.04,1.33.13.42.17.78.47,1.03.85.25.38.39.82.39,1.28,0,.61-.24,1.19-.67,1.62-.43.43-1.02.67-1.62.67Z"/><path class="cls-2" d="M58.02,35.33c-.45,0-.9-.13-1.28-.39-.38-.25-.67-.61-.85-1.03-.17-.42-.22-.88-.13-1.33.09-.45.31-.86.63-1.18.32-.32.73-.54,1.18-.63.45-.09.91-.04,1.33.13.42.17.78.47,1.03.85.25.38.39.82.39,1.28,0,.61-.24,1.19-.67,1.63-.43.43-1.02.67-1.63.67h0Z"/><path class="cls-2" d="M62.35,27.34c-.45,0-.9-.13-1.28-.38-.38-.25-.67-.61-.85-1.03-.17-.42-.22-.88-.13-1.33.09-.45.31-.86.63-1.18.32-.32.73-.54,1.18-.63.45-.09.91-.04,1.33.13.42.17.78.47,1.03.85.25.38.39.82.39,1.28,0,.61-.24,1.19-.67,1.62-.43.43-1.01.67-1.62.68Z"/></svg>