<?xml version="1.0" encoding="UTF-8"?><svg id="Logos" xmlns="http://www.w3.org/2000/svg" width="228.9" height="72" viewBox="0 0 228.9 72"><defs><style>.cls-1{fill:#fff;}.cls-1,.cls-2{stroke-width:0px;}.cls-2{fill:#e03875;}</style></defs><path class="cls-1" d="M88.46,1.53h2.09v4.71h5.1V1.53h2.09v11.45h-2.09v-4.84h-5.1v4.84h-2.09V1.53Z"/><path class="cls-1" d="M98.96,10.75c0-1.72,1.23-2.27,2.68-2.62l2.52-.59v-.18c0-.87-.57-1.41-1.46-1.41s-1.41.49-1.59,1.28l-1.8-.21c.28-1.55,1.59-2.55,3.47-2.55,2.06,0,3.4,1.29,3.4,3.19v3.42c0,.21.07.29.21.29h.46v1.6h-1.23c-.8,0-1.15-.25-1.15-.92,0-.2.03-.44.11-.74l-.18-.05c-.59,1.26-1.46,1.83-2.72,1.83-1.65,0-2.75-.92-2.75-2.36ZM102.25,11.62c1.13,0,1.91-.82,1.91-2.11v-.64l-1.85.44c-.92.21-1.31.52-1.31,1.24,0,.65.49,1.06,1.24,1.06Z"/><path class="cls-1" d="M107.47,10.72l1.91-.39c.21.92.95,1.37,1.9,1.37s1.5-.41,1.5-1.05c0-.67-.64-.8-1.85-1.03-1.46-.23-3.39-.49-3.39-2.54,0-1.55,1.32-2.62,3.45-2.62,1.9,0,3.37.8,3.71,2.41l-1.93.31c-.2-.82-.88-1.26-1.78-1.26-.98,0-1.47.43-1.47.98,0,.67.65.82,1.85,1.03,1.47.23,3.39.51,3.39,2.55,0,1.6-1.31,2.67-3.48,2.67-2,0-3.45-.8-3.81-2.44Z"/><path class="cls-1" d="M117.94,12.98h-2.04V1.2h2.04v3.7c0,.42-.08.83-.2,1.44l.2.05c.51-1.21,1.29-1.91,2.72-1.91,1.82,0,2.78,1.15,2.78,3.09v5.41h-2.04v-5.35c0-.98-.49-1.54-1.47-1.54-1.1,0-1.98.83-1.98,2.34v4.55Z"/><path class="cls-1" d="M127.58,10.93c0,.33.11.41.36.41h.95v1.64h-1.88c-.97,0-1.47-.52-1.47-1.5v-5.18h-1.19v-1.64h3.24v6.28ZM125.24,2.41c0-.69.57-1.26,1.24-1.26.7,0,1.26.57,1.26,1.26s-.56,1.28-1.26,1.28-1.24-.56-1.24-1.28Z"/><path class="cls-1" d="M129.43,7.25c0-3.44,2.24-5.92,5.51-5.92,2.72,0,4.6,1.59,5.12,3.76l-2.08.49c-.43-1.54-1.44-2.42-3.04-2.42-2.04,0-3.34,1.7-3.34,4.09s1.34,4.09,3.4,4.09c1.64,0,2.63-.9,3.06-2.54l1.98.23c-.51,2.55-2.4,4.14-5.07,4.14-3.27,0-5.55-2.49-5.55-5.92Z"/><path class="cls-1" d="M140.75,8.82c0-2.54,1.75-4.35,4.22-4.35s4.24,1.82,4.24,4.35-1.78,4.33-4.24,4.33-4.22-1.8-4.22-4.33ZM147.16,8.82c0-1.6-.87-2.68-2.19-2.68s-2.19,1.08-2.19,2.68.88,2.68,2.19,2.68,2.19-1.08,2.19-2.68Z"/><path class="cls-1" d="M150.37,4.65h1.9v.34c0,.46-.02.82-.15,1.47l.2.05c.31-1.1.88-1.86,2.22-1.86h.61v2h-.83c-1.23,0-1.9.75-1.9,2.13v4.2h-2.04V4.65Z"/><path class="cls-1" d="M155.96,4.65h2.01v.41c0,.38-.03.67-.15,1.34l.2.05c.51-1.34,1.47-1.98,2.7-1.98,2.04,0,3.65,1.67,3.65,4.33s-1.6,4.35-3.65,4.35c-1.23,0-2.14-.64-2.67-1.98l-.18.07c.1.65.13.96.13,1.33v3.76h-2.04V4.65ZM162.34,8.82c0-1.67-.92-2.68-2.18-2.68s-2.18,1.01-2.18,2.68.9,2.68,2.18,2.68,2.18-1.03,2.18-2.68Z"/><path class="cls-1" d="M86.87,36.96c0-8.43,5.5-14.53,13.52-14.53,6.66,0,11.28,3.89,12.56,9.23l-5.1,1.2c-1.04-3.77-3.53-5.94-7.46-5.94-5.02,0-8.19,4.17-8.19,10.03s3.29,10.03,8.35,10.03c4.01,0,6.46-2.21,7.5-6.22l4.86.56c-1.24,6.26-5.9,10.15-12.44,10.15-8.03,0-13.6-6.1-13.6-14.53Z"/><path class="cls-1" d="M115.48,40.81c0-6.22,4.29-10.67,10.35-10.67s10.39,4.45,10.39,10.67-4.37,10.63-10.39,10.63-10.35-4.41-10.35-10.63ZM131.21,40.81c0-3.93-2.13-6.58-5.38-6.58s-5.38,2.65-5.38,6.58,2.17,6.58,5.38,6.58,5.38-2.65,5.38-6.58Z"/><path class="cls-1" d="M144.94,51.01h-5.02v-20.43h4.9v.84c0,1.08-.08,1.81-.36,3.29l.48.12c1.24-2.97,3.17-4.7,6.66-4.7,4.45,0,6.82,2.81,6.82,7.58v13.28h-5.02v-13.12c0-2.41-1.2-3.77-3.61-3.77-2.69,0-4.86,2.05-4.86,5.74v11.16Z"/><path class="cls-1" d="M161.87,45.47l4.7-.96c.52,2.25,2.33,3.37,4.65,3.37s3.69-1,3.69-2.57c0-1.65-1.57-1.97-4.53-2.53-3.57-.56-8.31-1.2-8.31-6.22,0-3.81,3.25-6.42,8.47-6.42,4.66,0,8.27,1.97,9.11,5.9l-4.74.76c-.48-2.01-2.17-3.09-4.37-3.09-2.41,0-3.61,1.04-3.61,2.41,0,1.65,1.61,2.01,4.54,2.53,3.61.56,8.31,1.24,8.31,6.26,0,3.93-3.21,6.54-8.55,6.54-4.9,0-8.47-1.97-9.35-5.98Z"/><path class="cls-1" d="M196.7,30.58h5.02v20.43h-4.9v-.84c0-1.04.08-1.81.32-3.25l-.44-.16c-1.24,3.01-3.17,4.7-6.66,4.7-4.45,0-6.82-2.77-6.82-7.54v-13.32h5.02v12.88c0,2.69,1.16,4.05,3.73,4.05,2.73,0,4.74-2.09,4.74-5.7v-11.24Z"/><path class="cls-1" d="M212.64,46.07c0,.76.28,1,.84,1h2.45v3.93h-4.7c-2.37,0-3.61-1.28-3.61-3.69v-21.23h-2.97v-3.97h7.99v23.96Z"/><path class="cls-2" d="M41.05,64c-4.47,0-8.88-1.08-12.84-3.17-3.96-2.09-7.35-5.11-9.87-8.8-2.53-3.69-4.11-7.95-4.62-12.39-.51-4.45.07-8.95,1.7-13.12,1.62-4.17,4.24-7.88,7.63-10.81,3.38-2.93,7.43-4.99,11.79-5.99,4.36-1.01,8.9-.94,13.22.2,4.33,1.14,8.31,3.32,11.6,6.36h0l-6.52,6.83c-2.59-2.34-5.81-3.88-9.26-4.43-3.45-.55-6.99-.09-10.18,1.33-3.19,1.42-5.91,3.73-7.81,6.67-1.9,2.93-2.92,6.35-2.92,9.85s1.01,6.92,2.92,9.85c1.9,2.93,4.62,5.25,7.81,6.67,3.19,1.42,6.73,1.88,10.18,1.33,3.45-.55,6.67-2.09,9.26-4.43l6.52,6.83c-5.07,4.67-11.71,7.26-18.6,7.25h0Z"/><path class="cls-2" d="M63.17,50.25c-.45,0-.88-.13-1.25-.38-.37-.25-.66-.6-.83-1.01-.17-.41-.22-.86-.13-1.3.09-.44.3-.84.62-1.15.32-.32.72-.53,1.15-.62.44-.09.89-.04,1.3.13s.76.46,1.01.83c.25.37.38.81.38,1.25,0,.6-.24,1.17-.66,1.59-.42.42-.99.66-1.59.66h0Z"/><path class="cls-2" d="M40.87,42.47c-1.18,0-2.33-.34-3.32-.99-.98-.65-1.75-1.58-2.21-2.67-.45-1.09-.58-2.29-.35-3.44.23-1.16.79-2.22,1.63-3.06.83-.84,1.89-1.41,3.05-1.64,1.16-.23,2.36-.11,3.45.34,1.09.45,2.02,1.22,2.68,2.2.66.98,1,2.13,1,3.31,0,1.57-.63,3.08-1.74,4.2-1.11,1.12-2.62,1.75-4.19,1.75h0Z"/><path class="cls-2" d="M65.76,42.57c-.45,0-.88-.13-1.25-.38-.37-.25-.66-.6-.83-1.01-.17-.41-.22-.86-.13-1.3.09-.44.3-.84.62-1.15s.72-.53,1.15-.62c.44-.09.89-.04,1.3.13.41.17.76.46,1.01.83.25.37.38.81.38,1.25,0,.6-.24,1.17-.66,1.59s-.99.66-1.59.66Z"/><path class="cls-2" d="M59.06,42.29c-.45,0-.88-.13-1.25-.38-.37-.25-.66-.6-.83-1.02-.17-.41-.21-.87-.12-1.31.09-.44.31-.84.62-1.15.32-.31.72-.53,1.16-.61.44-.08.89-.04,1.3.14.41.17.76.47,1.01.84.24.37.37.81.37,1.26,0,.59-.25,1.16-.67,1.58-.42.42-.99.65-1.58.65h0Z"/><path class="cls-2" d="M65.76,34.98c-.45,0-.88-.13-1.25-.38-.37-.25-.66-.6-.83-1.01-.17-.41-.22-.87-.13-1.3.09-.44.3-.84.62-1.15.32-.32.72-.53,1.15-.62.44-.09.89-.04,1.3.13.41.17.76.46,1.01.83.25.37.38.81.38,1.25,0,.6-.24,1.17-.66,1.59-.42.42-.99.66-1.59.66Z"/><path class="cls-2" d="M59.06,35.24c-.45,0-.88-.13-1.25-.38-.37-.25-.66-.6-.83-1.01-.17-.41-.22-.86-.13-1.3.09-.44.3-.84.62-1.15.32-.32.72-.53,1.15-.62.44-.09.89-.04,1.3.13.41.17.76.46,1.01.83.25.37.38.81.38,1.25,0,.6-.24,1.17-.66,1.59-.42.42-1,.66-1.59.66h0Z"/><path class="cls-2" d="M63.3,27.4c-.45,0-.88-.13-1.25-.38-.37-.25-.66-.6-.83-1.01-.17-.41-.22-.86-.13-1.3.09-.44.3-.84.62-1.16.32-.32.72-.53,1.15-.62.44-.09.89-.04,1.3.13.41.17.76.46,1.01.83.25.37.38.81.38,1.25,0,.6-.24,1.17-.66,1.59-.42.42-.99.66-1.59.66Z"/></svg>