<?xml version="1.0" encoding="UTF-8"?><svg id="Logos" xmlns="http://www.w3.org/2000/svg" width="227.48" height="72" viewBox="0 0 227.48 72"><defs><style>.cls-1{fill:#000;}.cls-1,.cls-2{stroke-width:0px;}.cls-2{fill:#e03875;}</style></defs><path class="cls-1" d="M87.88,1.55h2.18v4.68h4.99V1.55h2.19v11.45h-2.19v-4.81h-4.99v4.81h-2.18V1.55Z"/><path class="cls-1" d="M98.63,10.77c0-1.72,1.21-2.29,2.68-2.63l2.49-.57v-.2c0-.83-.54-1.36-1.41-1.36s-1.37.47-1.54,1.26l-1.86-.21c.28-1.57,1.6-2.58,3.48-2.58,2.08,0,3.43,1.31,3.43,3.22v3.35c0,.21.07.28.21.28h.46v1.67h-1.28c-.8,0-1.16-.26-1.16-.92,0-.2.03-.43.11-.72l-.18-.07c-.59,1.28-1.46,1.83-2.68,1.83-1.68,0-2.76-.93-2.76-2.36ZM101.95,11.59c1.08,0,1.85-.79,1.85-2.03v-.65l-1.78.43c-.9.21-1.28.52-1.28,1.21s.47,1.05,1.21,1.05Z"/><path class="cls-1" d="M107.35,10.74l2-.39c.21.88.92,1.33,1.85,1.33s1.46-.38,1.46-1.02-.62-.77-1.8-.98c-1.49-.23-3.42-.51-3.42-2.57,0-1.55,1.32-2.63,3.48-2.63,1.91,0,3.4.8,3.75,2.42l-2.01.33c-.18-.82-.85-1.24-1.73-1.24-.97,0-1.42.41-1.42.96,0,.64.64.77,1.82.98,1.47.23,3.4.51,3.4,2.57,0,1.62-1.31,2.7-3.52,2.7-2,0-3.48-.82-3.84-2.45Z"/><path class="cls-1" d="M118.13,13h-2.13V1.22h2.13v3.66c0,.43-.08.83-.2,1.44l.2.07c.51-1.21,1.28-1.91,2.7-1.91,1.82,0,2.78,1.14,2.78,3.09v5.43h-2.13v-5.37c0-.95-.47-1.47-1.42-1.47-1.08,0-1.93.82-1.93,2.26v4.58Z"/><path class="cls-1" d="M127.98,10.89c0,.33.11.42.36.42h.93v1.69h-1.93c-.97,0-1.49-.54-1.49-1.54v-5.1h-1.18v-1.69h3.3v6.22ZM125.56,2.45c0-.72.59-1.31,1.29-1.31s1.29.59,1.29,1.31-.57,1.29-1.29,1.29-1.29-.57-1.29-1.29Z"/><path class="cls-1" d="M129.98,7.27c0-3.44,2.26-5.92,5.53-5.92,2.75,0,4.63,1.59,5.14,3.75l-2.16.52c-.41-1.51-1.41-2.36-2.98-2.36-2,0-3.25,1.65-3.25,4.01s1.31,4.01,3.34,4.01c1.6,0,2.58-.87,2.99-2.47l2.04.23c-.49,2.57-2.39,4.16-5.07,4.16-3.3,0-5.58-2.49-5.58-5.92Z"/><path class="cls-1" d="M141.51,8.83c0-2.54,1.78-4.35,4.25-4.35s4.25,1.81,4.25,4.35-1.78,4.37-4.25,4.37-4.25-1.83-4.25-4.37ZM147.89,8.83c0-1.57-.83-2.62-2.13-2.62s-2.13,1.05-2.13,2.62.85,2.63,2.13,2.63,2.13-1.05,2.13-2.63Z"/><path class="cls-1" d="M151.36,4.67h1.96v.33c0,.44-.02.8-.15,1.47l.2.05c.31-1.1.88-1.85,2.22-1.85h.61v2.06h-.87c-1.19,0-1.85.72-1.85,2.04v4.22h-2.13V4.67Z"/><path class="cls-1" d="M157.2,4.67h2.09v.38c0,.38-.03.67-.15,1.34l.2.05c.51-1.33,1.46-1.96,2.68-1.96,2.03,0,3.63,1.67,3.63,4.35s-1.6,4.37-3.63,4.37c-1.23,0-2.13-.64-2.65-1.98l-.18.07c.1.65.13.96.13,1.32v3.75h-2.13V4.67ZM163.55,8.83c0-1.62-.88-2.62-2.13-2.62s-2.13,1-2.13,2.62.88,2.63,2.13,2.63,2.13-1,2.13-2.63Z"/><path class="cls-1" d="M86.86,36.92c0-8.42,5.53-14.52,13.55-14.52,6.74,0,11.35,3.89,12.59,9.18l-5.29,1.28c-1-3.69-3.45-5.77-7.3-5.77-4.89,0-7.98,4.05-7.98,9.82s3.21,9.82,8.18,9.82c3.93,0,6.34-2.12,7.34-6.05l5.01.56c-1.2,6.29-5.85,10.19-12.43,10.19-8.1,0-13.67-6.1-13.67-14.52Z"/><path class="cls-1" d="M115.13,40.73c0-6.22,4.37-10.67,10.43-10.67s10.43,4.45,10.43,10.67-4.37,10.71-10.43,10.71-10.43-4.49-10.43-10.71ZM130.77,40.73c0-3.85-2.05-6.42-5.21-6.42s-5.21,2.57-5.21,6.42,2.09,6.46,5.21,6.46,5.21-2.57,5.21-6.46Z"/><path class="cls-1" d="M144.48,50.96h-5.21v-20.41h5.09v.8c0,1.04-.08,1.76-.36,3.25l.48.16c1.24-2.97,3.13-4.69,6.62-4.69,4.45,0,6.82,2.81,6.82,7.58v13.31h-5.21v-13.15c0-2.33-1.16-3.61-3.49-3.61-2.65,0-4.73,2-4.73,5.53v11.23Z"/><path class="cls-1" d="M160.92,45.43l4.89-.96c.52,2.17,2.25,3.25,4.53,3.25s3.57-.92,3.57-2.49-1.52-1.88-4.41-2.41c-3.65-.56-8.38-1.24-8.38-6.3,0-3.81,3.25-6.46,8.54-6.46,4.69,0,8.34,1.96,9.18,5.93l-4.93.8c-.44-2-2.08-3.05-4.25-3.05-2.37,0-3.49,1-3.49,2.37,0,1.56,1.56,1.88,4.45,2.41,3.61.56,8.34,1.24,8.34,6.3,0,3.97-3.21,6.62-8.62,6.62-4.89,0-8.54-2.01-9.42-6.02Z"/><path class="cls-1" d="M195.41,30.55h5.21v20.41h-5.09v-.8c0-1.04.08-1.8.32-3.29l-.44-.12c-1.24,2.97-3.17,4.69-6.66,4.69-4.45,0-6.78-2.81-6.78-7.58v-13.31h5.21v12.87c0,2.61,1.12,3.89,3.61,3.89,2.65,0,4.61-2,4.61-5.57v-11.19Z"/><path class="cls-1" d="M211.29,45.87c0,.76.28,1,.84,1h2.37v4.09h-4.81c-2.37,0-3.61-1.32-3.61-3.77v-20.97h-2.89v-4.13h8.1v23.78Z"/><path class="cls-2" d="M41.05,64c-4.47,0-8.88-1.08-12.84-3.17-3.96-2.09-7.35-5.11-9.87-8.8-2.53-3.69-4.11-7.95-4.62-12.39-.51-4.45.07-8.95,1.7-13.12,1.62-4.17,4.24-7.88,7.63-10.81,3.38-2.93,7.43-4.99,11.79-5.99,4.36-1.01,8.9-.94,13.22.2,4.33,1.14,8.31,3.32,11.6,6.36h0l-6.52,6.83c-2.59-2.34-5.81-3.88-9.26-4.43-3.45-.55-6.99-.09-10.18,1.33-3.19,1.42-5.91,3.73-7.81,6.67-1.9,2.93-2.92,6.35-2.92,9.85s1.01,6.92,2.92,9.85c1.9,2.93,4.62,5.25,7.81,6.67,3.19,1.42,6.73,1.88,10.18,1.33,3.45-.55,6.67-2.09,9.26-4.43l6.52,6.83c-5.07,4.67-11.71,7.26-18.6,7.25h0Z"/><path class="cls-2" d="M63.17,50.25c-.45,0-.88-.13-1.25-.38-.37-.25-.66-.6-.83-1.01-.17-.41-.22-.86-.13-1.3.09-.44.3-.84.62-1.15.32-.32.72-.53,1.15-.62.44-.09.89-.04,1.3.13s.76.46,1.01.83c.25.37.38.81.38,1.25,0,.6-.24,1.17-.66,1.59-.42.42-.99.66-1.59.66h0Z"/><path class="cls-2" d="M40.87,42.47c-1.18,0-2.33-.34-3.32-.99-.98-.65-1.75-1.58-2.21-2.67-.45-1.09-.58-2.29-.35-3.44.23-1.16.79-2.22,1.63-3.06.83-.84,1.89-1.41,3.05-1.64,1.16-.23,2.36-.11,3.45.34,1.09.45,2.02,1.22,2.68,2.2.66.98,1,2.13,1,3.31,0,1.57-.63,3.08-1.74,4.2-1.11,1.12-2.62,1.75-4.19,1.75h0Z"/><path class="cls-2" d="M65.76,42.57c-.45,0-.88-.13-1.25-.38-.37-.25-.66-.6-.83-1.01-.17-.41-.22-.86-.13-1.3.09-.44.3-.84.62-1.15s.72-.53,1.15-.62c.44-.09.89-.04,1.3.13.41.17.76.46,1.01.83.25.37.38.81.38,1.25,0,.6-.24,1.17-.66,1.59s-.99.66-1.59.66Z"/><path class="cls-2" d="M59.06,42.29c-.45,0-.88-.13-1.25-.38-.37-.25-.66-.6-.83-1.02-.17-.41-.21-.87-.12-1.31.09-.44.31-.84.62-1.15.32-.31.72-.53,1.16-.61.44-.08.89-.04,1.3.14.41.17.76.47,1.01.84.24.37.37.81.37,1.26,0,.59-.25,1.16-.67,1.58-.42.42-.99.65-1.58.65h0Z"/><path class="cls-2" d="M65.76,34.98c-.45,0-.88-.13-1.25-.38-.37-.25-.66-.6-.83-1.01-.17-.41-.22-.87-.13-1.3.09-.44.3-.84.62-1.15.32-.32.72-.53,1.15-.62.44-.09.89-.04,1.3.13.41.17.76.46,1.01.83.25.37.38.81.38,1.25,0,.6-.24,1.17-.66,1.59-.42.42-.99.66-1.59.66Z"/><path class="cls-2" d="M59.06,35.24c-.45,0-.88-.13-1.25-.38-.37-.25-.66-.6-.83-1.01-.17-.41-.22-.86-.13-1.3.09-.44.3-.84.62-1.15.32-.32.72-.53,1.15-.62.44-.09.89-.04,1.3.13.41.17.76.46,1.01.83.25.37.38.81.38,1.25,0,.6-.24,1.17-.66,1.59-.42.42-1,.66-1.59.66h0Z"/><path class="cls-2" d="M63.3,27.4c-.45,0-.88-.13-1.25-.38-.37-.25-.66-.6-.83-1.01-.17-.41-.22-.86-.13-1.3.09-.44.3-.84.62-1.16.32-.32.72-.53,1.15-.62.44-.09.89-.04,1.3.13.41.17.76.46,1.01.83.25.37.38.81.38,1.25,0,.6-.24,1.17-.66,1.59-.42.42-.99.66-1.59.66Z"/></svg>