<?xml version="1.0" encoding="UTF-8"?><svg id="Logos" xmlns="http://www.w3.org/2000/svg" width="465.73" height="72" viewBox="0 0 465.73 72"><defs><style>.cls-1{fill:#a067da;fill-rule:evenodd;}.cls-1,.cls-2{stroke-width:0px;}.cls-2{fill:#fff;}</style></defs><path class="cls-1" d="M9.78,3h48.4c1.6,0,2.7,0,3.5.1.9.1,1.4.2,1.8.4.8.4,1.5,1.1,2,2,.2.4.3.9.4,1.8.1.9.1,2,.1,3.5v48.4c0,1.6,0,2.7-.1,3.5-.1.9-.2,1.4-.4,1.8-.4.8-1.1,1.5-2,2-.4.2-.9.3-1.8.4-.9.1-2,.1-3.5.1H9.78c-1.6,0-2.7,0-3.5-.1-.9-.1-1.4-.2-1.8-.4-.8-.4-1.5-1.1-2-2-.2-.4-.3-.9-.4-1.8-.1-.9-.1-2-.1-3.5V10.8c0-1.6,0-2.7.1-3.5.1-.9.2-1.4.4-1.8.4-.8,1.1-1.5,2-2,.4-.2.9-.3,1.8-.4.9-.1,2-.1,3.5-.1ZM28.68,23l10.7,6.2v12.4l-10.7-6.2v-12.4ZM40.58,41.6v-12.4l10.7-6.2v12.4l-10.7,6.2ZM16.88,16.1v12.4l10.7,6.2v-12.4l-10.7-6.2ZM39.38,55.3l-10.7-6.2v-12.4l10.7,6.2v12.4Z"/><path class="cls-2" d="M92.79,27.28h-8.99v-4.37h23.16v4.37h-8.95v23.72h-5.22v-23.72Z"/><path class="cls-2" d="M105.63,40.81c0-6.38,4.25-10.67,9.95-10.67s9.95,4.05,9.95,10.23v1.85h-14.97c.28,3.17,2.13,5.38,5.22,5.38,2.37,0,3.69-1.08,4.49-3.05l4.62.72c-1.12,3.77-4.01,6.18-9.11,6.18-5.94,0-10.15-4.41-10.15-10.63ZM110.64,38.76h9.87c-.36-3.01-2.17-4.78-4.94-4.78-2.61,0-4.49,1.85-4.94,4.78Z"/><path class="cls-2" d="M129.34,30.57h4.66v.84c0,1.12-.04,2.01-.36,3.61l.48.12c.76-2.69,2.17-4.57,5.46-4.57h1.49v4.9h-2.05c-3.01,0-4.66,1.85-4.66,5.22v10.31h-5.02v-20.43Z"/><path class="cls-2" d="M143.91,30.57h4.66v.84c0,1.12-.04,2.01-.36,3.61l.48.12c.76-2.69,2.17-4.57,5.46-4.57h1.49v4.9h-2.05c-3.01,0-4.66,1.85-4.66,5.22v10.31h-5.02v-20.43Z"/><path class="cls-2" d="M156.59,45.54c0-4.21,3.01-5.58,6.58-6.42l6.18-1.44v-.44c0-2.13-1.41-3.45-3.57-3.45s-3.45,1.2-3.89,3.13l-4.41-.52c.68-3.81,3.89-6.26,8.51-6.26,5.06,0,8.35,3.17,8.35,7.83v8.39c0,.52.16.72.52.72h1.12v3.93h-3.01c-1.97,0-2.81-.6-2.81-2.25,0-.48.08-1.08.28-1.81l-.44-.12c-1.44,3.09-3.57,4.49-6.66,4.49-4.05,0-6.74-2.25-6.74-5.78ZM164.66,47.67c2.77,0,4.7-2.01,4.7-5.18v-1.56l-4.54,1.08c-2.25.52-3.21,1.28-3.21,3.05,0,1.61,1.2,2.61,3.05,2.61Z"/><path class="cls-2" d="M181.31,34.59h-3.69v-4.01h3.69v-3.17c0-3.69,1.73-5.3,5.74-5.3h4.54v3.97h-3.65c-1.2,0-1.69.56-1.69,1.89v2.61h4.78v4.01h-4.7v16.41h-5.02v-16.41Z"/><path class="cls-2" d="M192.58,40.81c0-6.22,4.29-10.67,10.35-10.67s10.39,4.45,10.39,10.67-4.37,10.63-10.39,10.63-10.35-4.41-10.35-10.63ZM208.32,40.81c0-3.93-2.13-6.58-5.38-6.58s-5.38,2.65-5.38,6.58,2.17,6.58,5.38,6.58,5.38-2.65,5.38-6.58Z"/><path class="cls-2" d="M217.02,30.57h4.66v.84c0,1.12-.04,2.01-.36,3.61l.48.12c.76-2.69,2.17-4.57,5.46-4.57h1.48v4.9h-2.05c-3.01,0-4.65,1.85-4.65,5.22v10.31h-5.02v-20.43Z"/><path class="cls-2" d="M231.59,30.57h4.9v.88c0,1.08-.08,1.81-.36,3.25l.48.12c1.04-3.17,3.09-4.69,6.3-4.69s5.38,1.48,6.14,4.61h.44c1.08-3.09,3.13-4.61,6.18-4.61,4.21,0,6.46,2.73,6.46,7.42v13.44h-4.74v-13.28c0-2.33-1.16-3.61-3.25-3.61-2.73,0-4.65,2.29-4.65,5.66v11.24h-5.02v-13.28c0-2.33-1.12-3.61-3.21-3.61-2.69,0-4.65,2.29-4.65,5.66v11.24h-5.02v-20.43Z"/><path class="cls-2" d="M274.85,22.91h19.42v4.37h-14.29v7.3h11.24v4.37h-11.24v7.67h14.29v4.37h-19.42v-28.09Z"/><path class="cls-2" d="M303.26,51h-5.02v-20.43h4.9v.84c0,1.08-.08,1.81-.36,3.29l.48.12c1.24-2.97,3.17-4.69,6.66-4.69,4.45,0,6.82,2.81,6.82,7.58v13.28h-5.02v-13.12c0-2.41-1.2-3.77-3.61-3.77-2.69,0-4.86,2.05-4.86,5.74v11.16Z"/><path class="cls-2" d="M323.2,45.86v-11.28h-3.65v-4.01h3.65v-5.18h5.02v5.18h5.06v4.01h-5.06v10.67c0,1.28.48,1.77,1.53,1.77h3.53v3.97h-4.45c-3.93,0-5.62-1.56-5.62-5.14Z"/><path class="cls-2" d="M335.24,40.81c0-6.38,4.25-10.67,9.95-10.67s9.95,4.05,9.95,10.23v1.85h-14.97c.28,3.17,2.13,5.38,5.22,5.38,2.37,0,3.69-1.08,4.49-3.05l4.62.72c-1.12,3.77-4.01,6.18-9.11,6.18-5.94,0-10.15-4.41-10.15-10.63ZM340.26,38.76h9.87c-.36-3.01-2.17-4.78-4.94-4.78-2.61,0-4.49,1.85-4.94,4.78Z"/><path class="cls-2" d="M358.96,30.57h4.66v.84c0,1.12-.04,2.01-.36,3.61l.48.12c.76-2.69,2.17-4.57,5.46-4.57h1.48v4.9h-2.05c-3.01,0-4.65,1.85-4.65,5.22v10.31h-5.02v-20.43Z"/><path class="cls-2" d="M373.52,30.57h4.94v1c0,.92-.08,1.65-.36,3.29l.48.12c1.24-3.29,3.61-4.86,6.62-4.86,5.02,0,8.95,4.09,8.95,10.63s-3.93,10.67-8.95,10.67c-3.01,0-5.26-1.56-6.54-4.86l-.44.16c.24,1.61.32,2.37.32,3.25v9.23h-5.02v-28.65ZM389.17,40.81c0-4.09-2.25-6.58-5.34-6.58s-5.34,2.49-5.34,6.58,2.21,6.58,5.34,6.58,5.34-2.53,5.34-6.58Z"/><path class="cls-2" d="M397.92,30.57h4.66v.84c0,1.12-.04,2.01-.36,3.61l.48.12c.76-2.69,2.17-4.57,5.46-4.57h1.49v4.9h-2.05c-3.01,0-4.66,1.85-4.66,5.22v10.31h-5.02v-20.43Z"/><path class="cls-2" d="M418.91,51h-5.02v-16.41h-2.93v-4.01h7.95v20.43ZM413.17,25.08c0-1.69,1.41-3.09,3.05-3.09s3.09,1.4,3.09,3.09-1.36,3.13-3.09,3.13-3.05-1.36-3.05-3.13Z"/><path class="cls-2" d="M423.04,45.46l4.7-.96c.52,2.25,2.33,3.37,4.66,3.37s3.69-1,3.69-2.57c0-1.65-1.57-1.97-4.53-2.53-3.57-.56-8.31-1.2-8.31-6.22,0-3.81,3.25-6.42,8.47-6.42,4.66,0,8.27,1.97,9.11,5.9l-4.74.76c-.48-2.01-2.17-3.09-4.37-3.09-2.41,0-3.61,1.04-3.61,2.41,0,1.65,1.61,2.01,4.54,2.53,3.61.56,8.31,1.24,8.31,6.26,0,3.93-3.21,6.54-8.55,6.54-4.9,0-8.47-1.97-9.35-5.98Z"/><path class="cls-2" d="M443.55,40.81c0-6.38,4.25-10.67,9.95-10.67s9.95,4.05,9.95,10.23v1.85h-14.97c.28,3.17,2.13,5.38,5.22,5.38,2.37,0,3.69-1.08,4.49-3.05l4.62.72c-1.12,3.77-4.01,6.18-9.11,6.18-5.94,0-10.15-4.41-10.15-10.63ZM448.56,38.76h9.87c-.36-3.01-2.17-4.78-4.94-4.78-2.61,0-4.49,1.85-4.94,4.78Z"/></svg>