<?xml version="1.0" encoding="UTF-8"?><svg id="Logos" xmlns="http://www.w3.org/2000/svg" width="419.89" height="72" viewBox="0 0 419.89 72"><defs><style>.cls-1{fill:#00ca8e;fill-rule:evenodd;}.cls-1,.cls-2{stroke-width:0px;}.cls-2{fill:#fff;}</style></defs><path class="cls-1" d="M58.59,3.03H10.19c-1.6,0-2.7,0-3.5.1-.9.1-1.4.2-1.8.4-.8.4-1.5,1.1-2,2-.2.4-.3.9-.4,1.8-.1.9-.1,2-.1,3.5v48.4c0,1.6,0,2.7.1,3.5.1.9.2,1.4.4,1.8.4.8,1.1,1.5,2,2,.4.2.9.3,1.8.4.9.1,2,.1,3.5.1h48.4c1.6,0,2.7,0,3.5-.1.9-.1,1.4-.2,1.8-.4.8-.4,1.5-1.1,2-2,.2-.4.3-.9.4-1.8.1-.9.1-2,.1-3.5V10.83c0-1.6,0-2.7-.1-3.5-.1-.9-.2-1.4-.4-1.8-.4-.8-1.1-1.5-2-2-.4-.2-.9-.3-1.8-.4-.8-.1-1.9-.1-3.5-.1ZM17.19,25.13l17.2-9.9,17.2,9.9v19.8l-17.2,9.9-17.2-9.9v-19.8ZM37.49,39.63l4.6-2.6v-13.2l-5.5,3.3v6.4l-5.7-3-4.1,2.5v13.2l5.2-3.3v-6.3l5.5,3Z"/><path class="cls-2" d="M88.08,22.92h7.58l10.88,22.83.48-.12c-.52-3.85-.6-5.26-.6-7.5v-15.21h4.82v28.09h-7.62l-10.88-22.83-.44.12c.52,3.85.6,5.26.6,7.5v15.21h-4.82v-28.09Z"/><path class="cls-2" d="M115.33,40.82c0-6.22,4.29-10.67,10.35-10.67s10.39,4.45,10.39,10.67-4.37,10.63-10.39,10.63-10.35-4.41-10.35-10.63ZM131.06,40.82c0-3.93-2.13-6.58-5.38-6.58s-5.38,2.65-5.38,6.58,2.17,6.58,5.38,6.58,5.38-2.65,5.38-6.58Z"/><path class="cls-2" d="M139.76,30.58h4.9v.88c0,1.08-.08,1.81-.36,3.25l.48.12c1.04-3.17,3.09-4.7,6.3-4.7s5.38,1.48,6.14,4.62h.44c1.08-3.09,3.13-4.62,6.18-4.62,4.21,0,6.46,2.73,6.46,7.42v13.44h-4.74v-13.28c0-2.33-1.16-3.61-3.25-3.61-2.73,0-4.66,2.29-4.66,5.66v11.24h-5.02v-13.28c0-2.33-1.12-3.61-3.21-3.61-2.69,0-4.66,2.29-4.66,5.66v11.24h-5.02v-20.43Z"/><path class="cls-2" d="M173.59,45.55c0-4.21,3.01-5.58,6.58-6.42l6.18-1.44v-.44c0-2.13-1.4-3.45-3.57-3.45s-3.45,1.2-3.89,3.13l-4.42-.52c.68-3.81,3.89-6.26,8.51-6.26,5.06,0,8.35,3.17,8.35,7.83v8.39c0,.52.16.72.52.72h1.12v3.93h-3.01c-1.97,0-2.81-.6-2.81-2.25,0-.48.08-1.08.28-1.81l-.44-.12c-1.45,3.09-3.57,4.5-6.66,4.5-4.05,0-6.74-2.25-6.74-5.78ZM181.66,47.68c2.77,0,4.7-2.01,4.7-5.18v-1.56l-4.53,1.08c-2.25.52-3.21,1.28-3.21,3.05,0,1.61,1.2,2.61,3.05,2.61Z"/><path class="cls-2" d="M195.46,40.82c0-6.54,3.93-10.67,8.95-10.67,3.05,0,5.3,1.57,6.54,4.86l.48-.12c-.28-1.65-.36-2.37-.36-3.29v-9.47h5.02v28.89h-4.9v-1c0-.88.04-1.65.32-3.25l-.44-.16c-1.28,3.29-3.61,4.86-6.66,4.86-5.02,0-8.95-4.05-8.95-10.63ZM211.15,40.82c0-4.09-2.25-6.58-5.34-6.58s-5.38,2.49-5.38,6.58,2.25,6.58,5.38,6.58,5.34-2.53,5.34-6.58Z"/><path class="cls-2" d="M229.01,22.92h19.42v4.37h-14.29v7.3h11.24v4.37h-11.24v7.67h14.29v4.37h-19.42v-28.09Z"/><path class="cls-2" d="M257.42,51.01h-5.02v-20.43h4.9v.84c0,1.08-.08,1.81-.36,3.29l.48.12c1.24-2.97,3.17-4.7,6.66-4.7,4.45,0,6.82,2.81,6.82,7.58v13.28h-5.02v-13.12c0-2.41-1.2-3.77-3.61-3.77-2.69,0-4.86,2.05-4.86,5.74v11.16Z"/><path class="cls-2" d="M277.36,45.87v-11.28h-3.65v-4.01h3.65v-5.18h5.02v5.18h5.06v4.01h-5.06v10.67c0,1.28.48,1.77,1.52,1.77h3.53v3.97h-4.46c-3.93,0-5.62-1.56-5.62-5.14Z"/><path class="cls-2" d="M289.4,40.82c0-6.38,4.25-10.67,9.95-10.67s9.95,4.05,9.95,10.23v1.85h-14.97c.28,3.17,2.13,5.38,5.22,5.38,2.37,0,3.69-1.08,4.5-3.05l4.61.72c-1.12,3.77-4.01,6.18-9.11,6.18-5.94,0-10.15-4.41-10.15-10.63ZM294.42,38.77h9.87c-.36-3.01-2.17-4.78-4.94-4.78-2.61,0-4.5,1.85-4.94,4.78Z"/><path class="cls-2" d="M313.12,30.58h4.66v.84c0,1.12-.04,2.01-.36,3.61l.48.12c.76-2.69,2.17-4.57,5.46-4.57h1.48v4.9h-2.05c-3.01,0-4.65,1.85-4.65,5.22v10.31h-5.02v-20.43Z"/><path class="cls-2" d="M327.68,30.58h4.94v1c0,.92-.08,1.65-.36,3.29l.48.12c1.24-3.29,3.61-4.86,6.62-4.86,5.02,0,8.95,4.09,8.95,10.63s-3.93,10.67-8.95,10.67c-3.01,0-5.26-1.56-6.54-4.86l-.44.16c.24,1.61.32,2.37.32,3.25v9.23h-5.02v-28.65ZM343.34,40.82c0-4.09-2.25-6.58-5.34-6.58s-5.34,2.49-5.34,6.58,2.21,6.58,5.34,6.58,5.34-2.53,5.34-6.58Z"/><path class="cls-2" d="M352.08,30.58h4.66v.84c0,1.12-.04,2.01-.36,3.61l.48.12c.76-2.69,2.17-4.57,5.46-4.57h1.48v4.9h-2.05c-3.01,0-4.65,1.85-4.65,5.22v10.31h-5.02v-20.43Z"/><path class="cls-2" d="M373.07,51.01h-5.02v-16.41h-2.93v-4.01h7.95v20.43ZM367.33,25.09c0-1.69,1.41-3.09,3.05-3.09s3.09,1.4,3.09,3.09-1.36,3.13-3.09,3.13-3.05-1.36-3.05-3.13Z"/><path class="cls-2" d="M377.2,45.47l4.7-.96c.52,2.25,2.33,3.37,4.66,3.37s3.69-1,3.69-2.57c0-1.65-1.57-1.97-4.54-2.53-3.57-.56-8.31-1.2-8.31-6.22,0-3.81,3.25-6.42,8.47-6.42,4.66,0,8.27,1.97,9.11,5.9l-4.74.76c-.48-2.01-2.17-3.09-4.38-3.09-2.41,0-3.61,1.04-3.61,2.41,0,1.65,1.61,2.01,4.54,2.53,3.61.56,8.31,1.24,8.31,6.26,0,3.93-3.21,6.54-8.55,6.54-4.9,0-8.47-1.97-9.35-5.98Z"/><path class="cls-2" d="M397.71,40.82c0-6.38,4.25-10.67,9.95-10.67s9.95,4.05,9.95,10.23v1.85h-14.97c.28,3.17,2.13,5.38,5.22,5.38,2.37,0,3.69-1.08,4.49-3.05l4.62.72c-1.12,3.77-4.01,6.18-9.11,6.18-5.94,0-10.15-4.41-10.15-10.63ZM402.72,38.77h9.87c-.36-3.01-2.17-4.78-4.94-4.78-2.61,0-4.49,1.85-4.94,4.78Z"/></svg>