<?xml version="1.0" encoding="UTF-8"?><svg id="Logos" xmlns="http://www.w3.org/2000/svg" width="415.43" height="72" viewBox="0 0 415.43 72"><defs><style>.cls-1{fill:#00ca8e;fill-rule:evenodd;}.cls-1,.cls-2{stroke-width:0px;}.cls-2{fill:#000;}</style></defs><path class="cls-1" d="M58.57,2.97H10.17c-1.6,0-2.7,0-3.5.1-.9,0-1.4.2-1.8.4-.8.4-1.5,1.1-2,2-.2.4-.3.9-.4,1.8-.1.9-.1,2-.1,3.5v48.4c0,1.6,0,2.7.1,3.5.1.9.2,1.4.4,1.8.4.8,1.1,1.5,2,2,.4.2.9.3,1.8.4.9.1,2,.1,3.5.1h48.4c1.6,0,2.7,0,3.5-.1.9-.1,1.4-.2,1.8-.4.8-.4,1.5-1.1,2-2,.2-.4.3-.9.4-1.8.1-.9.1-2,.1-3.5V10.77c0-1.6,0-2.7-.1-3.5-.1-.9-.2-1.4-.4-1.8-.4-.8-1.1-1.5-2-2-.4-.2-.9-.3-1.8-.4-.8-.1-1.9-.1-3.5-.1ZM17.17,25.07l17.2-9.9,17.2,9.9v19.8l-17.2,9.9-17.2-9.9v-19.8ZM37.47,39.57l4.6-2.6v-13.2l-5.5,3.3v6.4l-5.7-3-4.1,2.5v13.2l5.2-3.3v-6.3l5.5,3Z"/><path class="cls-2" d="M87.99,22.94h7.86l10.59,22.58.48-.12c-.52-3.93-.6-5.41-.6-7.7v-14.76h4.97v28.07h-7.86l-10.59-22.58-.48.12c.52,3.93.6,5.41.6,7.7v14.76h-4.97v-28.07Z"/><path class="cls-2" d="M114.93,40.78c0-6.22,4.37-10.67,10.43-10.67s10.43,4.45,10.43,10.67-4.37,10.71-10.43,10.71-10.43-4.49-10.43-10.71ZM130.57,40.78c0-3.85-2.04-6.42-5.21-6.42s-5.21,2.57-5.21,6.42,2.09,6.46,5.21,6.46,5.21-2.57,5.21-6.46Z"/><path class="cls-2" d="M139.07,30.6h5.09v.8c0,1.08-.08,1.8-.36,3.25l.48.16c1.04-3.17,3.05-4.69,6.26-4.69s5.37,1.48,6.13,4.61h.48c1.04-3.09,3.09-4.61,6.09-4.61,4.25,0,6.46,2.73,6.46,7.42v13.47h-4.89v-13.27c0-2.25-1.12-3.49-3.17-3.49-2.65,0-4.49,2.21-4.49,5.45v11.31h-5.21v-13.27c0-2.25-1.12-3.49-3.13-3.49-2.65,0-4.53,2.21-4.53,5.45v11.31h-5.21v-20.41Z"/><path class="cls-2" d="M172.64,45.55c0-4.21,2.97-5.61,6.58-6.46l6.1-1.4v-.48c0-2.04-1.32-3.33-3.45-3.33s-3.37,1.16-3.77,3.09l-4.57-.52c.68-3.85,3.93-6.34,8.54-6.34,5.09,0,8.42,3.21,8.42,7.9v8.22c0,.52.16.68.52.68h1.12v4.09h-3.13c-1.96,0-2.85-.64-2.85-2.25,0-.48.08-1.04.28-1.76l-.44-.16c-1.44,3.13-3.57,4.49-6.58,4.49-4.13,0-6.78-2.29-6.78-5.77ZM180.78,47.56c2.65,0,4.53-1.92,4.53-4.97v-1.6l-4.37,1.04c-2.21.52-3.13,1.28-3.13,2.97s1.16,2.57,2.97,2.57Z"/><path class="cls-2" d="M194.21,40.82c0-6.58,3.93-10.71,8.9-10.71,3.01,0,5.25,1.56,6.5,4.81l.48-.12c-.28-1.64-.36-2.37-.36-3.29v-9.38h5.21v28.87h-5.09v-.96c0-.88.04-1.64.32-3.25l-.44-.16c-1.28,3.29-3.61,4.85-6.62,4.85-4.97,0-8.9-4.09-8.9-10.67ZM209.81,40.78c0-3.97-2.17-6.42-5.21-6.42s-5.21,2.45-5.21,6.42,2.17,6.46,5.21,6.46,5.21-2.45,5.21-6.46Z"/><path class="cls-2" d="M227.01,22.94h19.53v4.53h-14.2v7.06h11.15v4.53h-11.15v7.42h14.2v4.53h-19.53v-28.07Z"/><path class="cls-2" d="M255.32,51.01h-5.21v-20.41h5.09v.8c0,1.04-.08,1.76-.36,3.25l.48.16c1.24-2.97,3.13-4.69,6.62-4.69,4.45,0,6.82,2.81,6.82,7.58v13.31h-5.21v-13.15c0-2.33-1.16-3.61-3.49-3.61-2.65,0-4.73,2-4.73,5.53v11.23Z"/><path class="cls-2" d="M274.77,45.83v-11.11h-3.61v-4.13h3.61v-5.17h5.21v5.17h4.97v4.13h-4.97v10.47c0,1.24.44,1.68,1.44,1.68h3.53v4.13h-4.53c-3.97,0-5.65-1.6-5.65-5.17Z"/><path class="cls-2" d="M286.52,40.78c0-6.34,4.25-10.67,9.98-10.67s10.03,4.09,10.03,10.23v1.92h-14.88c.28,3.05,2.04,5.21,5.05,5.21,2.33,0,3.61-1.04,4.37-2.97l4.81.8c-1.12,3.69-4.01,6.18-9.18,6.18-5.94,0-10.19-4.49-10.19-10.71ZM291.73,38.74h9.58c-.36-2.93-2.09-4.61-4.81-4.61-2.49,0-4.33,1.72-4.77,4.61Z"/><path class="cls-2" d="M309.94,30.6h4.81v.8c0,1.08-.04,1.96-.36,3.61l.48.12c.76-2.69,2.17-4.53,5.45-4.53h1.48v5.05h-2.12c-2.93,0-4.53,1.76-4.53,5.01v10.35h-5.21v-20.41Z"/><path class="cls-2" d="M324.25,30.6h5.13v.92c0,.92-.08,1.64-.36,3.29l.48.12c1.24-3.25,3.57-4.81,6.58-4.81,4.97,0,8.9,4.09,8.9,10.67s-3.93,10.71-8.9,10.71c-3.01,0-5.21-1.56-6.5-4.85l-.44.16c.24,1.6.32,2.37.32,3.25v9.18h-5.21v-28.63ZM339.81,40.78c0-3.97-2.17-6.42-5.21-6.42s-5.21,2.45-5.21,6.42,2.17,6.46,5.21,6.46,5.21-2.45,5.21-6.46Z"/><path class="cls-2" d="M348.35,30.6h4.81v.8c0,1.08-.04,1.96-.36,3.61l.48.12c.76-2.69,2.16-4.53,5.45-4.53h1.48v5.05h-2.12c-2.93,0-4.53,1.76-4.53,5.01v10.35h-5.21v-20.41Z"/><path class="cls-2" d="M369.28,51.01h-5.21v-16.28h-2.89v-4.13h8.1v20.41ZM363.35,25.14c0-1.76,1.4-3.21,3.13-3.21s3.17,1.44,3.17,3.21-1.4,3.17-3.17,3.17-3.13-1.4-3.13-3.17Z"/><path class="cls-2" d="M372.93,45.47l4.89-.96c.52,2.17,2.25,3.25,4.53,3.25s3.57-.92,3.57-2.49-1.52-1.88-4.41-2.41c-3.65-.56-8.38-1.24-8.38-6.3,0-3.81,3.25-6.46,8.54-6.46,4.69,0,8.34,1.96,9.18,5.93l-4.93.8c-.44-2-2.08-3.05-4.25-3.05-2.37,0-3.49,1-3.49,2.37,0,1.56,1.56,1.88,4.45,2.41,3.61.56,8.34,1.24,8.34,6.3,0,3.97-3.21,6.62-8.62,6.62-4.89,0-8.54-2.01-9.42-6.02Z"/><path class="cls-2" d="M393.14,40.78c0-6.34,4.25-10.67,9.99-10.67s10.02,4.09,10.02,10.23v1.92h-14.88c.28,3.05,2.04,5.21,5.05,5.21,2.33,0,3.61-1.04,4.37-2.97l4.81.8c-1.12,3.69-4.01,6.18-9.18,6.18-5.93,0-10.19-4.49-10.19-10.71ZM398.36,38.74h9.58c-.36-2.93-2.08-4.61-4.81-4.61-2.49,0-4.33,1.72-4.77,4.61Z"/></svg>