<?xml version="1.0" encoding="UTF-8"?><svg id="Logos" xmlns="http://www.w3.org/2000/svg" width="348.91" height="72" viewBox="0 0 348.91 72"><defs><style>.cls-1{fill:#14c6cb;}.cls-1,.cls-2{stroke-width:0px;}.cls-2{fill:#000;}</style></defs><path class="cls-1" d="M57.6,22.48l-5.5,9.5-5.5-9.5h11Z"/><path class="cls-1" d="M28.2,28.78h-3.7l9.2,15.9-3.7,6.4L13.6,22.48h18.3l9.2,15.9,1.8-3.2-7.3-12.7h7.3l3.7,6.4,3.7,6.4-9.2,15.9-12.9-22.4Z"/><path class="cls-1" d="M59.47,68.98H11.09c-1.56,0-2.7,0-3.61-.07-.96-.08-1.62-.24-2.18-.52-1.04-.53-1.87-1.36-2.4-2.4-.29-.57-.45-1.22-.52-2.18-.07-.92-.07-2.05-.07-3.61V11.81c0-1.56,0-2.69.07-3.61.08-.96.24-1.62.52-2.18.53-1.04,1.36-1.87,2.4-2.4.57-.29,1.22-.45,2.18-.52.92-.07,2.05-.07,3.61-.07h48.38c1.56,0,2.69,0,3.61.07.96.08,1.62.24,2.18.52,1.04.53,1.87,1.36,2.4,2.4.29.57.45,1.22.52,2.18.07.92.07,2.05.07,3.61v48.38c0,1.56,0,2.7-.07,3.61-.08.97-.24,1.62-.52,2.18-.53,1.04-1.36,1.87-2.4,2.4-.57.29-1.22.45-2.18.52-.92.07-2.05.07-3.61.07ZM11.09,5.76c-1.5,0-2.58,0-3.39.07-.56.05-.94.12-1.16.23-.52.27-.94.68-1.2,1.2-.11.22-.19.6-.23,1.16-.07.81-.07,1.89-.07,3.39v48.38c0,1.44,0,2.58.07,3.39.05.56.12.94.23,1.16.27.52.68.94,1.2,1.2.22.11.6.19,1.16.23.8.07,1.89.07,3.39.07h48.38c1.5,0,2.58,0,3.39-.07.56-.05.94-.12,1.16-.23.52-.27.94-.68,1.2-1.2.11-.22.19-.6.23-1.16.07-.8.07-1.89.07-3.39V11.81c0-1.5,0-2.58-.07-3.39-.05-.56-.12-.94-.23-1.16-.27-.52-.68-.94-1.2-1.2-.22-.11-.6-.19-1.16-.23-.81-.07-1.94-.07-3.39-.07H11.09Z"/><path class="cls-2" d="M88.09,22.91h5.33v11.47h12.23v-11.47h5.37v28.07h-5.37v-11.79h-12.23v11.79h-5.33v-28.07Z"/><path class="cls-2" d="M114.92,36.95c0-8.42,5.53-14.52,13.55-14.52,6.74,0,11.35,3.89,12.59,9.18l-5.29,1.28c-1-3.69-3.45-5.78-7.3-5.78-4.89,0-7.98,4.05-7.98,9.82s3.21,9.83,8.18,9.83c3.93,0,6.34-2.13,7.34-6.06l5.01.56c-1.2,6.29-5.85,10.18-12.43,10.18-8.1,0-13.67-6.09-13.67-14.52Z"/><path class="cls-2" d="M144.67,22.91h10.03c6.86,0,11.15,3.29,11.15,9.3s-4.29,9.3-11.15,9.3h-4.69v9.46h-5.33v-28.07ZM154.7,37.07c3.73,0,5.73-1.6,5.73-4.85s-2.01-4.81-5.73-4.81h-4.69v9.66h4.69Z"/><path class="cls-2" d="M175.59,22.91h5.53l2.97,18.33c.2,1.48.36,2.65.48,4.65l.64.04,3.37-23.02h8.46l3.41,23.02.6-.04c.08-2.01.24-3.17.48-4.65l3.01-18.33h5.09l-4.89,28.07h-8.02l-3.57-23.74h-.72l-3.45,23.74h-8.54l-4.85-28.07Z"/><path class="cls-2" d="M210.8,45.53c0-4.21,2.97-5.61,6.58-6.46l6.1-1.4v-.48c0-2.04-1.32-3.33-3.45-3.33s-3.37,1.16-3.77,3.09l-4.57-.52c.68-3.85,3.93-6.34,8.54-6.34,5.09,0,8.42,3.21,8.42,7.9v8.22c0,.52.16.68.52.68h1.12v4.09h-3.13c-1.96,0-2.85-.64-2.85-2.25,0-.48.08-1.04.28-1.76l-.44-.16c-1.44,3.13-3.57,4.49-6.58,4.49-4.13,0-6.78-2.29-6.78-5.77ZM218.94,47.54c2.65,0,4.53-1.92,4.53-4.97v-1.6l-4.37,1.04c-2.21.52-3.13,1.28-3.13,2.97s1.16,2.57,2.97,2.57Z"/><path class="cls-2" d="M234.49,55.07h3.05c1.32,0,1.84-.4,2.21-1.56l.76-2.53h-3.81l-5.77-20.41h5.41l4.53,16.32h.68l4.45-16.32h5.13l-6.74,23.58c-1,3.53-2.45,5.05-6.46,5.05h-3.45v-4.13Z"/><path class="cls-2" d="M253.46,30.57h5.13v.92c0,.92-.08,1.64-.36,3.29l.48.12c1.24-3.25,3.57-4.81,6.58-4.81,4.97,0,8.9,4.09,8.9,10.67s-3.93,10.71-8.9,10.71c-3.01,0-5.21-1.56-6.5-4.85l-.44.16c.24,1.6.32,2.37.32,3.25v9.18h-5.21v-28.63ZM269.02,40.76c0-3.97-2.17-6.42-5.21-6.42s-5.21,2.45-5.21,6.42,2.17,6.46,5.21,6.46,5.21-2.45,5.21-6.46Z"/><path class="cls-2" d="M276.44,40.76c0-6.22,4.37-10.67,10.43-10.67s10.43,4.45,10.43,10.67-4.37,10.71-10.43,10.71-10.43-4.49-10.43-10.71ZM292.08,40.76c0-3.85-2.04-6.42-5.21-6.42s-5.21,2.57-5.21,6.42,2.09,6.46,5.21,6.46,5.21-2.57,5.21-6.46Z"/><path class="cls-2" d="M306.88,50.98h-5.21v-16.28h-2.89v-4.13h8.1v20.41ZM300.94,25.12c0-1.76,1.4-3.21,3.13-3.21s3.17,1.44,3.17,3.21-1.4,3.17-3.17,3.17-3.13-1.4-3.13-3.17Z"/><path class="cls-2" d="M316.86,50.98h-5.21v-20.41h5.09v.8c0,1.04-.08,1.76-.36,3.25l.48.16c1.24-2.97,3.13-4.69,6.62-4.69,4.45,0,6.82,2.81,6.82,7.58v13.31h-5.21v-13.15c0-2.33-1.16-3.61-3.49-3.61-2.65,0-4.73,2.01-4.73,5.53v11.23Z"/><path class="cls-2" d="M336.31,45.81v-11.11h-3.61v-4.13h3.61v-5.17h5.21v5.17h4.97v4.13h-4.97v10.47c0,1.24.44,1.68,1.44,1.68h3.53v4.13h-4.53c-3.97,0-5.65-1.6-5.65-5.17Z"/></svg>