<?xml version="1.0" encoding="UTF-8"?><svg id="Logos" xmlns="http://www.w3.org/2000/svg" width="379.18" height="72" viewBox="0 0 379.18 72"><defs><style>.cls-1{fill:#000;}.cls-1,.cls-2,.cls-3{stroke-width:0px;}.cls-2{fill-rule:evenodd;}.cls-2,.cls-3{fill:#ffcf25;}</style></defs><rect class="cls-3" x="37.72" y="25.58" width="2.9" height="2.9"/><rect class="cls-3" x="33.32" y="25.58" width="2.9" height="2.9"/><rect class="cls-3" x="33.32" y="29.98" width="2.9" height="2.9"/><rect class="cls-3" x="37.72" y="29.98" width="2.9" height="2.9"/><rect class="cls-3" x="33.32" y="34.28" width="2.9" height="2.9"/><path class="cls-2" d="M66.73,7.1c-.1-.9-.2-1.4-.4-1.8-.4-.8-1.1-1.5-2-2-.4-.2-.9-.3-1.8-.4-.8-.1-1.9-.1-3.5-.1H10.63c-1.6,0-2.7,0-3.5.1-.9.1-1.4.2-1.8.4-.43.21-.82.51-1.17.88-.07.06-.13.13-.19.2-.28.29-.51.63-.7.99-.21.42-.34.95-.41,1.8-.07.87-.07,1.97-.07,3.53v48.36c0,1.56,0,2.66.07,3.53.07.85.2,1.38.41,1.8.43.84,1.11,1.52,1.95,1.95.42.21.95.34,1.8.41.87.07,1.97.08,3.53.08h48.36c1.56,0,2.66,0,3.53-.08.8-.07,1.32-.19,1.73-.38.02-.01.05-.02.07-.03h.01s.05-.03.08-.04c.8-.4,1.5-1.1,2-2,.2-.4.3-.9.4-1.8.1-.9.1-2,.1-3.5V10.6c0-1.6,0-2.7-.1-3.5ZM34.72,54.18L16.52,18.78h36.6l-18.4,35.4Z"/><rect class="cls-3" x="29.02" y="29.98" width="2.9" height="2.9"/><rect class="cls-3" x="29.02" y="25.58" width="2.9" height="2.9"/><path class="cls-1" d="M86.14,22.93h5.57l6.5,23.26h1.48l6.46-23.26h5.29l-7.98,28.07h-9.34l-7.98-28.07Z"/><path class="cls-1" d="M111.28,45.55c0-4.21,2.97-5.61,6.58-6.46l6.09-1.4v-.48c0-2.04-1.32-3.33-3.45-3.33s-3.37,1.16-3.77,3.09l-4.57-.52c.68-3.85,3.93-6.34,8.54-6.34,5.09,0,8.42,3.21,8.42,7.9v8.22c0,.52.16.68.52.68h1.12v4.09h-3.13c-1.96,0-2.85-.64-2.85-2.25,0-.48.08-1.04.28-1.76l-.44-.16c-1.44,3.13-3.57,4.49-6.58,4.49-4.13,0-6.78-2.29-6.78-5.77ZM119.42,47.55c2.65,0,4.53-1.92,4.53-4.97v-1.6l-4.37,1.04c-2.21.52-3.13,1.28-3.13,2.97s1.16,2.57,2.97,2.57Z"/><path class="cls-1" d="M147.05,30.59h5.21v20.41h-5.09v-.8c0-1.04.08-1.8.32-3.29l-.44-.12c-1.24,2.97-3.17,4.69-6.66,4.69-4.45,0-6.78-2.81-6.78-7.58v-13.31h5.21v12.87c0,2.61,1.12,3.89,3.61,3.89,2.65,0,4.61-2.01,4.61-5.57v-11.19Z"/><path class="cls-1" d="M162.93,45.91c0,.76.28,1,.84,1h2.37v4.09h-4.81c-2.37,0-3.61-1.32-3.61-3.77v-20.97h-2.89v-4.13h8.1v23.78Z"/><path class="cls-1" d="M169.99,45.83v-11.11h-3.61v-4.13h3.61v-5.17h5.21v5.17h4.97v4.13h-4.97v10.47c0,1.24.44,1.68,1.44,1.68h3.53v4.13h-4.53c-3.97,0-5.65-1.6-5.65-5.17Z"/><path class="cls-1" d="M190.76,22.93h19.53v4.53h-14.2v7.06h11.15v4.53h-11.15v7.42h14.2v4.53h-19.53v-28.07Z"/><path class="cls-1" d="M219.07,51h-5.21v-20.41h5.09v.8c0,1.04-.08,1.76-.36,3.25l.48.16c1.24-2.97,3.13-4.69,6.62-4.69,4.45,0,6.82,2.81,6.82,7.58v13.31h-5.21v-13.15c0-2.33-1.16-3.61-3.49-3.61-2.65,0-4.73,2-4.73,5.53v11.23Z"/><path class="cls-1" d="M238.52,45.83v-11.11h-3.61v-4.13h3.61v-5.17h5.21v5.17h4.97v4.13h-4.97v10.47c0,1.24.44,1.68,1.44,1.68h3.53v4.13h-4.53c-3.97,0-5.65-1.6-5.65-5.17Z"/><path class="cls-1" d="M250.27,40.77c0-6.34,4.25-10.67,9.99-10.67s10.02,4.09,10.02,10.23v1.92h-14.88c.28,3.05,2.04,5.21,5.05,5.21,2.33,0,3.61-1.04,4.37-2.97l4.81.8c-1.12,3.69-4.01,6.18-9.18,6.18-5.93,0-10.19-4.49-10.19-10.71ZM255.48,38.73h9.58c-.36-2.93-2.08-4.61-4.81-4.61-2.49,0-4.33,1.72-4.77,4.61Z"/><path class="cls-1" d="M273.68,30.59h4.81v.8c0,1.08-.04,1.96-.36,3.61l.48.12c.76-2.69,2.17-4.53,5.45-4.53h1.48v5.05h-2.12c-2.93,0-4.53,1.76-4.53,5.01v10.35h-5.21v-20.41Z"/><path class="cls-1" d="M288,30.59h5.13v.92c0,.92-.08,1.64-.36,3.29l.48.12c1.24-3.25,3.57-4.81,6.58-4.81,4.97,0,8.9,4.09,8.9,10.67s-3.93,10.71-8.9,10.71c-3.01,0-5.21-1.56-6.5-4.85l-.44.16c.24,1.6.32,2.37.32,3.25v9.18h-5.21v-28.63ZM303.56,40.77c0-3.97-2.17-6.42-5.21-6.42s-5.21,2.45-5.21,6.42,2.17,6.46,5.21,6.46,5.21-2.45,5.21-6.46Z"/><path class="cls-1" d="M312.1,30.59h4.81v.8c0,1.08-.04,1.96-.36,3.61l.48.12c.76-2.69,2.17-4.53,5.45-4.53h1.48v5.05h-2.12c-2.93,0-4.53,1.76-4.53,5.01v10.35h-5.21v-20.41Z"/><path class="cls-1" d="M333.03,51h-5.21v-16.28h-2.89v-4.13h8.1v20.41ZM327.1,25.13c0-1.76,1.4-3.21,3.13-3.21s3.17,1.44,3.17,3.21-1.4,3.17-3.17,3.17-3.13-1.4-3.13-3.17Z"/><path class="cls-1" d="M336.68,45.46l4.89-.96c.52,2.17,2.25,3.25,4.53,3.25s3.57-.92,3.57-2.49-1.52-1.88-4.41-2.41c-3.65-.56-8.38-1.24-8.38-6.3,0-3.81,3.25-6.46,8.54-6.46,4.69,0,8.34,1.96,9.18,5.93l-4.93.8c-.44-2-2.09-3.05-4.25-3.05-2.37,0-3.49,1-3.49,2.37,0,1.56,1.56,1.88,4.45,2.41,3.61.56,8.34,1.24,8.34,6.3,0,3.97-3.21,6.62-8.62,6.62-4.89,0-8.54-2.01-9.42-6.02Z"/><path class="cls-1" d="M356.89,40.77c0-6.34,4.25-10.67,9.99-10.67s10.03,4.09,10.03,10.23v1.92h-14.88c.28,3.05,2.05,5.21,5.05,5.21,2.33,0,3.61-1.04,4.37-2.97l4.81.8c-1.12,3.69-4.01,6.18-9.18,6.18-5.93,0-10.19-4.49-10.19-10.71ZM362.1,38.73h9.58c-.36-2.93-2.08-4.61-4.81-4.61-2.49,0-4.33,1.72-4.77,4.61Z"/></svg>