<?xml version="1.0" encoding="UTF-8"?><svg id="Logos" xmlns="http://www.w3.org/2000/svg" width="383.48" height="72" viewBox="0 0 383.48 72"><defs><style>.cls-1{fill-rule:evenodd;}.cls-1,.cls-2{fill:#ffcf25;}.cls-1,.cls-2,.cls-3{stroke-width:0px;}.cls-3{fill:#fff;}</style></defs><rect class="cls-2" x="37.72" y="25.58" width="2.9" height="2.9"/><rect class="cls-2" x="33.32" y="25.58" width="2.9" height="2.9"/><rect class="cls-2" x="33.32" y="29.98" width="2.9" height="2.9"/><rect class="cls-2" x="37.72" y="29.98" width="2.9" height="2.9"/><rect class="cls-2" x="33.32" y="34.28" width="2.9" height="2.9"/><path class="cls-1" d="M66.73,7.1c-.1-.9-.2-1.4-.4-1.8-.4-.8-1.1-1.5-2-2-.4-.2-.9-.3-1.8-.4-.8-.1-1.9-.1-3.5-.1H10.63c-1.6,0-2.7,0-3.5.1-.9.1-1.4.2-1.8.4-.43.21-.82.51-1.17.88-.07.06-.13.13-.19.2-.28.29-.51.63-.7.99-.21.42-.34.95-.41,1.8-.07.87-.07,1.97-.07,3.53v48.36c0,1.56,0,2.66.07,3.53.07.85.2,1.38.41,1.8.43.84,1.11,1.52,1.95,1.95.42.21.95.34,1.8.41.87.07,1.97.08,3.53.08h48.36c1.56,0,2.66,0,3.53-.08.8-.07,1.32-.19,1.73-.38.02-.01.05-.02.07-.03h.01s.05-.03.08-.04c.8-.4,1.5-1.1,2-2,.2-.4.3-.9.4-1.8.1-.9.1-2,.1-3.5V10.6c0-1.6,0-2.7-.1-3.5ZM34.72,54.18L16.52,18.78h36.6l-18.4,35.4Z"/><rect class="cls-2" x="29.02" y="29.98" width="2.9" height="2.9"/><rect class="cls-2" x="29.02" y="25.58" width="2.9" height="2.9"/><path class="cls-3" d="M86.14,22.91h5.38l6.66,23.48h1.44l6.62-23.48h5.1l-8.11,28.09h-8.99l-8.11-28.09Z"/><path class="cls-3" d="M111.54,45.54c0-4.21,3.01-5.58,6.58-6.42l6.18-1.44v-.44c0-2.13-1.4-3.45-3.57-3.45s-3.45,1.2-3.89,3.13l-4.42-.52c.68-3.81,3.89-6.26,8.51-6.26,5.06,0,8.35,3.17,8.35,7.83v8.39c0,.52.16.72.52.72h1.12v3.93h-3.01c-1.97,0-2.81-.6-2.81-2.25,0-.48.08-1.08.28-1.81l-.44-.12c-1.45,3.09-3.57,4.5-6.66,4.5-4.05,0-6.74-2.25-6.74-5.78ZM119.61,47.67c2.77,0,4.7-2.01,4.7-5.18v-1.56l-4.53,1.08c-2.25.52-3.21,1.28-3.21,3.05,0,1.61,1.2,2.61,3.05,2.61Z"/><path class="cls-3" d="M147.7,30.57h5.02v20.43h-4.9v-.84c0-1.04.08-1.81.32-3.25l-.44-.16c-1.24,3.01-3.17,4.7-6.66,4.7-4.45,0-6.82-2.77-6.82-7.54v-13.32h5.02v12.88c0,2.69,1.16,4.05,3.73,4.05,2.73,0,4.73-2.09,4.73-5.7v-11.24Z"/><path class="cls-3" d="M163.63,46.06c0,.76.28,1,.84,1h2.45v3.93h-4.7c-2.37,0-3.61-1.28-3.61-3.69v-21.23h-2.97v-3.97h7.99v23.96Z"/><path class="cls-3" d="M171.13,45.86v-11.28h-3.65v-4.01h3.65v-5.18h5.02v5.18h5.06v4.01h-5.06v10.67c0,1.28.48,1.77,1.53,1.77h3.53v3.97h-4.46c-3.93,0-5.62-1.56-5.62-5.14Z"/><path class="cls-3" d="M192.6,22.91h19.42v4.37h-14.29v7.3h11.24v4.37h-11.24v7.67h14.29v4.37h-19.42v-28.09Z"/><path class="cls-3" d="M221.01,51h-5.02v-20.43h4.9v.84c0,1.08-.08,1.81-.36,3.29l.48.12c1.24-2.97,3.17-4.7,6.66-4.7,4.45,0,6.82,2.81,6.82,7.58v13.28h-5.02v-13.12c0-2.41-1.2-3.77-3.61-3.77-2.69,0-4.86,2.05-4.86,5.74v11.16Z"/><path class="cls-3" d="M240.95,45.86v-11.28h-3.65v-4.01h3.65v-5.18h5.02v5.18h5.06v4.01h-5.06v10.67c0,1.28.48,1.77,1.53,1.77h3.53v3.97h-4.45c-3.93,0-5.62-1.56-5.62-5.14Z"/><path class="cls-3" d="M252.99,40.81c0-6.38,4.25-10.67,9.95-10.67s9.95,4.05,9.95,10.23v1.85h-14.97c.28,3.17,2.13,5.38,5.22,5.38,2.37,0,3.69-1.08,4.49-3.05l4.62.72c-1.12,3.77-4.01,6.18-9.11,6.18-5.94,0-10.15-4.41-10.15-10.63ZM258.01,38.76h9.87c-.36-3.01-2.17-4.78-4.94-4.78-2.61,0-4.49,1.85-4.94,4.78Z"/><path class="cls-3" d="M276.71,30.57h4.66v.84c0,1.12-.04,2.01-.36,3.61l.48.12c.76-2.69,2.17-4.57,5.46-4.57h1.49v4.9h-2.05c-3.01,0-4.66,1.85-4.66,5.22v10.31h-5.02v-20.43Z"/><path class="cls-3" d="M291.27,30.57h4.94v1c0,.92-.08,1.65-.36,3.29l.48.12c1.24-3.29,3.61-4.86,6.62-4.86,5.02,0,8.95,4.09,8.95,10.63s-3.93,10.67-8.95,10.67c-3.01,0-5.26-1.56-6.54-4.86l-.44.16c.24,1.61.32,2.37.32,3.25v9.23h-5.02v-28.65ZM306.92,40.81c0-4.09-2.25-6.58-5.34-6.58s-5.34,2.49-5.34,6.58,2.21,6.58,5.34,6.58,5.34-2.53,5.34-6.58Z"/><path class="cls-3" d="M315.67,30.57h4.65v.84c0,1.12-.04,2.01-.36,3.61l.48.12c.76-2.69,2.17-4.57,5.46-4.57h1.49v4.9h-2.05c-3.01,0-4.66,1.85-4.66,5.22v10.31h-5.02v-20.43Z"/><path class="cls-3" d="M336.66,51h-5.02v-16.41h-2.93v-4.01h7.95v20.43ZM330.92,25.07c0-1.69,1.4-3.09,3.05-3.09s3.09,1.4,3.09,3.09-1.37,3.13-3.09,3.13-3.05-1.36-3.05-3.13Z"/><path class="cls-3" d="M340.79,45.46l4.7-.96c.52,2.25,2.33,3.37,4.65,3.37s3.69-1,3.69-2.57c0-1.65-1.57-1.97-4.54-2.53-3.57-.56-8.31-1.2-8.31-6.22,0-3.81,3.25-6.42,8.47-6.42,4.66,0,8.27,1.97,9.11,5.9l-4.73.76c-.48-2.01-2.17-3.09-4.38-3.09-2.41,0-3.61,1.04-3.61,2.41,0,1.65,1.61,2.01,4.54,2.53,3.61.56,8.31,1.24,8.31,6.26,0,3.93-3.21,6.54-8.55,6.54-4.89,0-8.47-1.97-9.35-5.98Z"/><path class="cls-3" d="M361.3,40.81c0-6.38,4.25-10.67,9.95-10.67s9.95,4.05,9.95,10.23v1.85h-14.97c.28,3.17,2.13,5.38,5.22,5.38,2.37,0,3.69-1.08,4.5-3.05l4.61.72c-1.12,3.77-4.01,6.18-9.11,6.18-5.94,0-10.15-4.41-10.15-10.63ZM366.31,38.76h9.87c-.36-3.01-2.17-4.78-4.94-4.78-2.61,0-4.5,1.85-4.94,4.78Z"/></svg>