<svg xmlns="http://www.w3.org/2000/svg" width="496" height="261"><path fill="#1BA0D7" fill-rule="evenodd" d="M191.239 238.678l-.088 19.726 1.445.247c4.537.847 9.115 1.433 13.716 1.763 4.029.372 8.08.45 12.12.233a50.562 50.562 0 0 0 11.375-2.143 31.495 31.495 0 0 0 11.803-6.277 23.764 23.764 0 0 0 6.872-9.836 27.026 27.026 0 0 0-.138-19.8 22.219 22.219 0 0 0-6.16-8.525 25.552 25.552 0 0 0-9.037-5.252l-14.908-5.522a7.985 7.985 0 0 1-4.07-3.87 5.06 5.06 0 0 1 .166-4.515c.267-.488.602-.937.995-1.332a8.027 8.027 0 0 1 2.202-1.589 15.832 15.832 0 0 1 5.312-1.543c3.155-.454 6.36-.42 9.505.1 3.715.404 7.399 1.058 11.018 1.97l.77.17v-18.198l-1.421-.306a97.13 97.13 0 0 0-11.211-1.992 57.648 57.648 0 0 0-14.739-.064 31.89 31.89 0 0 0-16.968 6.813 22.475 22.475 0 0 0-7.248 9.973 27.354 27.354 0 0 0-.013 18.545 20.715 20.715 0 0 0 5.21 7.848 29.747 29.747 0 0 0 6.744 4.877 46.623 46.623 0 0 0 10.252 4.02c1.179.353 2.349.723 3.514 1.113l1.766.645.505.206a13.243 13.243 0 0 1 4.67 2.876 8.253 8.253 0 0 1 2.086 3.127 6.85 6.85 0 0 1 .014 3.31 7.036 7.036 0 0 1-3.413 4.085 16.953 16.953 0 0 1-5.683 1.772c-2.912.462-5.864.61-8.808.445-3.86-.29-7.699-.8-11.5-1.53-1.986-.412-3.963-.87-5.922-1.387l-.733-.183zm-81.028 19.011v-22.903l-.45.196a42.506 42.506 0 0 1-16.536 4.19 24.356 24.356 0 0 1-16.652-4.9 21.265 21.265 0 0 1-7.247-10.274 24.661 24.661 0 0 1-.487-13.737 21.058 21.058 0 0 1 7.381-11.75 22.144 22.144 0 0 1 11.597-4.99 38.279 38.279 0 0 1 21.899 4.097l.495.257v-23.032l-1.046-.28a58.722 58.722 0 0 0-20.88-2.729 48.393 48.393 0 0 0-18.647 4.259 42.605 42.605 0 0 0-15.271 11.777c-12.876 16.264-13.218 39.13-.835 55.771a43.797 43.797 0 0 0 24.275 15.582 57.035 57.035 0 0 0 30.72-1.071l1.684-.463zm29.908 1.511h21.698v-85.905h-21.698V259.2zM0 104.258a10.753 10.753 0 0 0 6.803 9.187 10.785 10.785 0 0 0 11.247-2.112 10.74 10.74 0 0 0 3.413-7.075v-23.81c-.12-5.83-4.89-10.494-10.731-10.494C4.89 69.954.12 74.618 0 80.448v23.81zm59.404 0c.426 5.604 5.103 9.936 10.734 9.94 5.63 0 10.309-4.335 10.729-9.94V50.881c-.207-5.767-4.95-10.335-10.732-10.335-5.78 0-10.524 4.568-10.731 10.335v53.382-.005zm59.091 21.498c.404 5.618 5.087 9.97 10.73 9.97 5.642 0 10.326-4.352 10.73-9.97V10.298c-.29-5.704-5.008-10.181-10.73-10.181s-10.44 4.477-10.73 10.181v115.458zm59.395-21.498c.403 5.62 5.089 9.974 10.734 9.974s10.33-4.354 10.734-9.974V50.881c-.234-5.75-4.969-10.293-10.734-10.298-5.77-.002-10.51 4.548-10.734 10.303v53.372zm59.133 0a10.753 10.753 0 0 0 6.804 9.192 10.785 10.785 0 0 0 11.251-2.117 10.715 10.715 0 0 0 3.408-7.075v-23.81a10.73 10.73 0 0 0-6.725-9.51 10.762 10.762 0 0 0-11.45 2.206 10.705 10.705 0 0 0-3.288 7.304v23.81zm59.353 0c.448 5.585 5.12 9.888 10.732 9.888 5.612 0 10.283-4.303 10.731-9.888V50.881c-.265-5.724-4.99-10.228-10.731-10.228-5.74 0-10.467 4.504-10.732 10.228v53.382-.005zm59.11 21.498c.404 5.618 5.087 9.97 10.73 9.97 5.642 0 10.326-4.352 10.729-9.97V10.298a10.725 10.725 0 0 0-6.72-9.519A10.757 10.757 0 0 0 358.77 2.99c-2 1.92-3.178 4.54-3.285 7.308v115.458zm59.303-21.498c.419 5.607 5.099 9.943 10.732 9.943 5.632 0 10.312-4.336 10.731-9.943V50.881c-.231-5.75-4.968-10.295-10.734-10.298-5.767.003-10.502 4.55-10.729 10.303v53.372zm59.16 0c.404 5.62 5.09 9.974 10.734 9.974 5.645 0 10.331-4.354 10.734-9.974v-23.81c-.23-5.752-4.967-10.296-10.734-10.299-5.77-.001-10.51 4.548-10.733 10.303v23.806zM336.946 257.69v-22.903l-.45.196a42.506 42.506 0 0 1-16.54 4.19 24.356 24.356 0 0 1-16.648-4.9 21.27 21.27 0 0 1-7.247-10.274 24.67 24.67 0 0 1-.491-13.737 21.058 21.058 0 0 1 7.385-11.75 22.14 22.14 0 0 1 11.592-4.99 38.288 38.288 0 0 1 21.904 4.097l.495.257v-23.032l-1.05-.28a58.722 58.722 0 0 0-20.877-2.729 48.403 48.403 0 0 0-18.651 4.254 42.633 42.633 0 0 0-15.266 11.777c-12.878 16.266-13.22 39.134-.835 55.776a43.792 43.792 0 0 0 24.275 15.582 57.019 57.019 0 0 0 30.716-1.071l1.688-.463zm54.362-59.027a22.665 22.665 0 0 1 22.482-3.546 22.6 22.6 0 0 1 14.201 17.755 22.573 22.573 0 0 1-8.44 21.1c-9.779 7.544-23.813 5.862-31.525-3.779-7.713-9.64-6.251-23.674 3.282-31.525v-.005zm-31.5 17.625a45.166 45.166 0 0 0 17.198 34.763 45.337 45.337 0 0 0 37.857 8.668c18.039-3.39 32.097-17.562 35.315-35.6 3.218-18.038-5.076-36.184-20.833-45.58a45.64 45.64 0 0 0-45.752-1.283c-14.375 7.803-23.455 22.701-23.79 39.032h.005z"/></svg>