<?xml version="1.0" encoding="UTF-8"?><svg id="Logos" xmlns="http://www.w3.org/2000/svg" width="247.22" height="72" viewBox="0 0 247.22 72"><defs><style>.cls-1{fill:#fff;}.cls-1,.cls-2{stroke-width:0px;}.cls-2{fill:#1868f2;}</style></defs><path class="cls-1" d="M86.63,1.75h2.09v4.71h5.1V1.75h2.09v11.45h-2.09v-4.84h-5.1v4.84h-2.09V1.75Z"/><path class="cls-1" d="M97.14,10.98c0-1.72,1.23-2.27,2.68-2.62l2.52-.59v-.18c0-.87-.57-1.41-1.46-1.41s-1.41.49-1.59,1.28l-1.8-.21c.28-1.55,1.59-2.55,3.47-2.55,2.06,0,3.4,1.29,3.4,3.19v3.42c0,.21.07.29.21.29h.46v1.6h-1.23c-.8,0-1.15-.25-1.15-.92,0-.2.03-.44.11-.74l-.18-.05c-.59,1.26-1.46,1.83-2.72,1.83-1.65,0-2.75-.92-2.75-2.36ZM100.42,11.84c1.13,0,1.91-.82,1.91-2.11v-.64l-1.85.44c-.92.21-1.31.52-1.31,1.24,0,.65.49,1.06,1.24,1.06Z"/><path class="cls-1" d="M105.64,10.94l1.91-.39c.21.92.95,1.37,1.9,1.37s1.5-.41,1.5-1.05c0-.67-.64-.8-1.85-1.03-1.46-.23-3.39-.49-3.39-2.54,0-1.55,1.32-2.62,3.45-2.62,1.9,0,3.37.8,3.71,2.4l-1.93.31c-.2-.82-.88-1.26-1.78-1.26-.98,0-1.47.43-1.47.98,0,.67.65.82,1.85,1.03,1.47.23,3.39.51,3.39,2.55,0,1.6-1.31,2.67-3.48,2.67-2,0-3.45-.8-3.81-2.44Z"/><path class="cls-1" d="M116.11,13.2h-2.04V1.42h2.04v3.7c0,.43-.08.83-.2,1.44l.2.05c.51-1.21,1.29-1.91,2.72-1.91,1.82,0,2.78,1.15,2.78,3.09v5.41h-2.04v-5.35c0-.98-.49-1.54-1.47-1.54-1.1,0-1.98.83-1.98,2.34v4.55Z"/><path class="cls-1" d="M125.75,11.16c0,.33.11.41.36.41h.95v1.64h-1.88c-.97,0-1.47-.52-1.47-1.5v-5.19h-1.19v-1.64h3.24v6.28ZM123.41,2.63c0-.69.57-1.26,1.24-1.26.7,0,1.26.57,1.26,1.26s-.56,1.28-1.26,1.28-1.24-.56-1.24-1.28Z"/><path class="cls-1" d="M127.6,7.48c0-3.44,2.24-5.92,5.51-5.92,2.72,0,4.6,1.59,5.12,3.76l-2.08.49c-.43-1.54-1.44-2.42-3.04-2.42-2.04,0-3.34,1.7-3.34,4.09s1.34,4.09,3.4,4.09c1.64,0,2.63-.9,3.06-2.54l1.98.23c-.51,2.55-2.4,4.14-5.07,4.14-3.27,0-5.55-2.49-5.55-5.92Z"/><path class="cls-1" d="M138.92,9.05c0-2.54,1.75-4.35,4.22-4.35s4.24,1.82,4.24,4.35-1.78,4.33-4.24,4.33-4.22-1.8-4.22-4.33ZM145.33,9.05c0-1.6-.87-2.68-2.19-2.68s-2.19,1.08-2.19,2.68.88,2.68,2.19,2.68,2.19-1.08,2.19-2.68Z"/><path class="cls-1" d="M148.54,4.87h1.9v.34c0,.46-.02.82-.15,1.47l.2.05c.31-1.1.88-1.86,2.22-1.86h.61v2h-.83c-1.23,0-1.9.75-1.9,2.13v4.2h-2.04V4.87Z"/><path class="cls-1" d="M154.14,4.87h2.01v.41c0,.38-.03.67-.15,1.34l.2.05c.51-1.34,1.47-1.98,2.7-1.98,2.04,0,3.65,1.67,3.65,4.33s-1.6,4.35-3.65,4.35c-1.23,0-2.14-.64-2.67-1.98l-.18.07c.1.65.13.96.13,1.33v3.76h-2.04V4.87ZM160.52,9.05c0-1.67-.92-2.68-2.18-2.68s-2.18,1.01-2.18,2.68.9,2.68,2.18,2.68,2.18-1.03,2.18-2.68Z"/><path class="cls-1" d="M85.85,22.91h5.38l6.66,23.48h1.44l6.62-23.48h5.1l-8.11,28.09h-8.99l-8.11-28.09Z"/><path class="cls-1" d="M111.25,45.54c0-4.21,3.01-5.58,6.58-6.42l6.18-1.44v-.44c0-2.13-1.4-3.45-3.57-3.45s-3.45,1.2-3.89,3.13l-4.41-.52c.68-3.81,3.89-6.26,8.51-6.26,5.06,0,8.35,3.17,8.35,7.83v8.39c0,.52.16.72.52.72h1.12v3.93h-3.01c-1.97,0-2.81-.6-2.81-2.25,0-.48.08-1.08.28-1.81l-.44-.12c-1.44,3.09-3.57,4.49-6.66,4.49-4.05,0-6.74-2.25-6.74-5.78ZM119.32,47.67c2.77,0,4.7-2.01,4.7-5.18v-1.56l-4.53,1.08c-2.25.52-3.21,1.28-3.21,3.05,0,1.61,1.2,2.61,3.05,2.61Z"/><path class="cls-1" d="M139.22,44.42l-.48.52c-.48.56-.72.96-.72,1.4,0,.72.56,1.08,1.93,1.08h5.58c4.49,0,7.14,1.97,7.14,5.58s-2.85,6.38-9.67,6.38h-1.93c-5.94,0-8.71-1.69-8.71-4.53,0-2.09,1.69-3.45,3.81-3.65v-.48c-1.81-.36-2.65-1.44-2.65-2.97,0-1.04.52-1.93,1.69-3.25l1.16-1.32c-1.85-1.24-2.89-3.17-2.89-5.46,0-4.21,3.61-7.14,8.83-7.14h10.35v3.81h-1.24c-1.2,0-2.05-.12-3.61-.56l-.2.48c2.09.84,3.13,2.37,3.13,4.37,0,3.61-3.33,6.1-8.43,6.1-1.12,0-2.17-.12-3.09-.36ZM143.24,55.78c3.41,0,4.61-.92,4.61-2.33s-1.04-2.05-3.53-2.05h-3.89c-2.53,0-3.85.72-3.85,2.09s1.24,2.29,4.66,2.29h2.01ZM146.25,37.8c0-2.13-1.57-3.61-3.93-3.61s-3.97,1.48-3.97,3.61,1.6,3.65,3.97,3.65,3.93-1.52,3.93-3.65Z"/><path class="cls-1" d="M155.64,30.57h4.66v.84c0,1.12-.04,2.01-.36,3.61l.48.12c.76-2.69,2.17-4.57,5.46-4.57h1.48v4.9h-2.05c-3.01,0-4.66,1.85-4.66,5.22v10.31h-5.02v-20.43Z"/><path class="cls-1" d="M168.32,45.54c0-4.21,3.01-5.58,6.58-6.42l6.18-1.44v-.44c0-2.13-1.4-3.45-3.57-3.45s-3.45,1.2-3.89,3.13l-4.41-.52c.68-3.81,3.89-6.26,8.51-6.26,5.06,0,8.35,3.17,8.35,7.83v8.39c0,.52.16.72.52.72h1.12v3.93h-3.01c-1.97,0-2.81-.6-2.81-2.25,0-.48.08-1.08.28-1.81l-.44-.12c-1.44,3.09-3.57,4.49-6.66,4.49-4.05,0-6.74-2.25-6.74-5.78ZM176.38,47.67c2.77,0,4.7-2.01,4.7-5.18v-1.56l-4.53,1.08c-2.25.52-3.21,1.28-3.21,3.05,0,1.61,1.2,2.61,3.05,2.61Z"/><path class="cls-1" d="M196.17,51h-5.02v-20.43h4.9v.84c0,1.08-.08,1.81-.36,3.29l.48.12c1.24-2.97,3.17-4.69,6.66-4.69,4.45,0,6.82,2.81,6.82,7.58v13.28h-5.02v-13.12c0-2.41-1.2-3.77-3.61-3.77-2.69,0-4.86,2.05-4.86,5.74v11.16Z"/><path class="cls-1" d="M216.11,45.86v-11.28h-3.65v-4.01h3.65v-5.18h5.02v5.18h5.06v4.01h-5.06v10.67c0,1.28.48,1.77,1.52,1.77h3.53v3.97h-4.45c-3.93,0-5.62-1.56-5.62-5.14Z"/><polygon class="cls-2" points="53.13 14.82 53.13 26.53 46.46 40.07 54.5 56.39 69.2 26.53 69.2 14.82 53.13 14.82"/><polygon class="cls-2" points="37.05 14.82 20.98 14.82 20.98 26.53 37.05 59.18 53.13 59.18 37.05 26.53 37.05 14.82"/></svg>