<?xml version="1.0" encoding="UTF-8"?><svg id="Layer_1" xmlns="http://www.w3.org/2000/svg" width="8192" height="864" viewBox="0 0 8192 864"><defs><style>.cls-1,.cls-2,.cls-3,.cls-4,.cls-5,.cls-6,.cls-7,.cls-8,.cls-9,.cls-10,.cls-11,.cls-12,.cls-13,.cls-14,.cls-15,.cls-16{stroke-width:0px;}.cls-1,.cls-3,.cls-6,.cls-7,.cls-8,.cls-11,.cls-13,.cls-16{fill-rule:evenodd;}.cls-1,.cls-10{fill:#06d092;}.cls-2,.cls-11{fill:#14c6cb;}.cls-3{fill:#7b42bc;}.cls-4,.cls-7{fill:#f24c53;}.cls-5,.cls-13{fill:#000;}.cls-6,.cls-9{fill:#ffcf25;}.cls-8,.cls-14{fill:#e03875;}.cls-12,.cls-16{fill:#02a8ef;}.cls-15{fill:#1868f2;}</style></defs><path class="cls-13" d="M617.37,105.51H94.98c-17.12,0-28.16.02-36.57.71-8.06.66-11.05,1.78-12.52,2.52-5.59,2.85-10.12,7.39-12.98,12.98-.74,1.47-1.86,4.45-2.52,12.52-.68,8.41-.71,19.46-.71,36.57v522.39c0,17.12.02,28.16.71,36.57.66,8.06,1.78,11.05,2.52,12.52,2.85,5.59,7.39,10.12,12.98,12.98,1.47.74,4.45,1.86,12.52,2.52,8.41.68,19.46.71,36.57.71h522.39c17.12,0,28.16-.02,36.57-.71,8.06-.66,11.05-1.78,12.52-2.52,5.59-2.85,10.12-7.39,12.98-12.98.74-1.47,1.86-4.45,2.52-12.52.68-8.41.71-19.46.71-36.57V170.81c0-17.12-.02-28.16-.71-36.57-.66-8.06-1.78-11.05-2.52-12.52-2.85-5.59-7.39-10.12-12.98-12.98-1.47-.74-4.45-1.86-12.52-2.52-8.41-.68-19.46-.71-36.57-.71ZM6.47,108.24C0,120.93,0,137.56,0,170.81v522.39c0,33.24,0,49.87,6.47,62.57,5.69,11.17,14.77,20.25,25.94,25.94,12.7,6.47,29.33,6.47,62.57,6.47h522.39c33.24,0,49.87,0,62.57-6.47,11.17-5.69,20.25-14.77,25.94-25.94,6.47-12.7,6.47-29.33,6.47-62.57V170.81c0-33.24,0-49.87-6.47-62.57-5.69-11.16-14.77-20.25-25.94-25.94-12.7-6.47-29.33-6.47-62.57-6.47H94.98c-33.24,0-49.87,0-62.57,6.47-11.16,5.69-20.25,14.77-25.94,25.94Z"/><path class="cls-5" d="M324.27,230.73l-159.79,91.4v219.6l60.02,34.36v-219.59l99.77-57.11v-68.66h0Z"/><path class="cls-5" d="M388.07,230.73v174.87h-63.79v-65.26l-60.06,34.37v224.04l60.06,34.45v-174.38h63.79v64.82l60.02-34.36v-224.19l-60.02-34.36Z"/><path class="cls-5" d="M547.86,541.87l-159.8,91.41v-68.67l99.74-57.11v-219.59l60.06,34.36v219.6Z"/><path class="cls-16" d="M1552.32,105.51h-522.39c-17.12,0-28.16.02-36.57.71-8.06.66-11.05,1.78-12.52,2.52-5.59,2.85-10.12,7.39-12.98,12.98-.74,1.47-1.86,4.45-2.52,12.52-.68,8.41-.71,19.46-.71,36.57v522.39c0,17.12.02,28.16.71,36.57.66,8.06,1.78,11.05,2.52,12.52,2.85,5.59,7.39,10.12,12.98,12.98,1.47.74,4.45,1.86,12.52,2.52,8.41.68,19.46.71,36.57.71h522.39c17.12,0,28.16-.02,36.57-.71,8.06-.66,11.05-1.78,12.52-2.52,5.59-2.85,10.12-7.39,12.98-12.98.74-1.47,1.86-4.45,2.52-12.52.68-8.41.71-19.46.71-36.57V170.81c0-17.12-.02-28.16-.71-36.57-.66-8.06-1.78-11.05-2.52-12.52-2.85-5.59-7.39-10.12-12.98-12.98-1.47-.74-4.45-1.86-12.52-2.52-8.41-.68-19.46-.71-36.57-.71ZM941.43,108.24c-6.47,12.7-6.47,29.33-6.47,62.57v522.39c0,33.24,0,49.87,6.47,62.57,5.69,11.17,14.77,20.25,25.94,25.94,12.7,6.47,29.33,6.47,62.57,6.47h522.39c33.24,0,49.87,0,62.57-6.47,11.17-5.69,20.25-14.77,25.94-25.94,6.47-12.7,6.47-29.33,6.47-62.57V170.81c0-33.24,0-49.87-6.47-62.57-5.69-11.16-14.77-20.25-25.94-25.94-12.7-6.47-29.33-6.47-62.57-6.47h-522.39c-33.24,0-49.87,0-62.57,6.47-11.16,5.69-20.25,14.77-25.94,25.94Z"/><path class="cls-16" d="M1161.28,270.81l137.65,79.92v294.59l-137.65-79.92v-294.6Z"/><path class="cls-12" d="M1367.1,305.26l-149.64-86.59v60.06l101.8,59.07v180.37l47.88,27.63c29.62,17.17,53.85,7.07,53.85-22.85v-132.35c-.03-29.76-24.34-68.13-53.89-85.33h0Z"/><path class="cls-3" d="M3422.24,105.51h-522.39c-17.12,0-28.16.02-36.57.71-8.06.66-11.05,1.78-12.52,2.52-5.59,2.85-10.12,7.39-12.98,12.98-.74,1.47-1.86,4.45-2.52,12.52-.68,8.41-.71,19.46-.71,36.57v522.39c0,17.12.02,28.16.71,36.57.66,8.06,1.78,11.05,2.52,12.52,2.85,5.59,7.39,10.12,12.98,12.98,1.47.74,4.45,1.86,12.52,2.52,8.41.68,19.46.71,36.57.71h522.39c17.12,0,28.16-.02,36.57-.71,8.06-.66,11.05-1.78,12.52-2.52,5.59-2.85,10.12-7.39,12.98-12.98.74-1.47,1.86-4.45,2.52-12.52.68-8.41.71-19.46.71-36.57V170.81c0-17.12-.02-28.16-.71-36.57-.66-8.06-1.78-11.05-2.52-12.52-2.85-5.59-7.39-10.12-12.98-12.98-1.47-.74-4.45-1.86-12.52-2.52-8.41-.68-19.46-.71-36.57-.71ZM2811.34,108.24c-6.47,12.7-6.47,29.33-6.47,62.57v522.39c0,33.24,0,49.87,6.47,62.57,5.69,11.17,14.77,20.25,25.94,25.94,12.7,6.47,29.33,6.47,62.57,6.47h522.39c33.24,0,49.87,0,62.57-6.47,11.17-5.69,20.25-14.77,25.94-25.94,6.47-12.7,6.47-29.33,6.47-62.57V170.81c0-33.24,0-49.87-6.47-62.57-5.69-11.16-14.77-20.25-25.94-25.94-12.7-6.47-29.33-6.47-62.57-6.47h-522.39c-33.24,0-49.87,0-62.57,6.47-11.16,5.69-20.25,14.77-25.94,25.94Z"/><path class="cls-3" d="M3103.4,302.47l115.28,66.74v133.55l-115.28-66.77v-133.52Z"/><path class="cls-3" d="M3231.31,369.21v133.55l115.25-66.77v-133.52l-115.25,66.74h0Z"/><path class="cls-3" d="M2975.54,227.94v133.52l115.25,66.77v-133.51l-115.25-66.77h0Z"/><path class="cls-3" d="M3103.4,584.12l115.25,66.77v-133.51l-115.25-66.77v133.51Z"/><path class="cls-8" d="M4357.19,105.51h-522.39c-17.12,0-28.16.02-36.57.71-8.06.66-11.05,1.78-12.52,2.52-5.59,2.85-10.12,7.39-12.98,12.98-.74,1.47-1.86,4.45-2.52,12.52-.68,8.41-.71,19.46-.71,36.57v522.39c0,17.12.02,28.16.71,36.57.66,8.06,1.78,11.05,2.52,12.52,2.85,5.59,7.39,10.12,12.98,12.98,1.47.74,4.45,1.86,12.52,2.52,8.41.68,19.46.71,36.57.71h522.39c17.12,0,28.16-.02,36.57-.71,8.06-.66,11.05-1.78,12.52-2.52,5.59-2.85,10.12-7.39,12.98-12.98.74-1.47,1.86-4.45,2.52-12.52.68-8.41.71-19.46.71-36.57V170.81c0-17.12-.02-28.16-.71-36.57-.66-8.06-1.78-11.05-2.52-12.52-2.85-5.59-7.39-10.12-12.98-12.98-1.47-.74-4.45-1.86-12.52-2.52-8.41-.68-19.46-.71-36.57-.71ZM3746.3,108.24c-6.47,12.7-6.47,29.33-6.47,62.57v522.39c0,33.24,0,49.87,6.47,62.57,5.69,11.17,14.77,20.25,25.94,25.94,12.7,6.47,29.33,6.47,62.57,6.47h522.39c33.24,0,49.87,0,62.57-6.47,11.17-5.69,20.25-14.77,25.94-25.94,6.47-12.7,6.47-29.33,6.47-62.57V170.81c0-33.24,0-49.87-6.47-62.57-5.69-11.16-14.77-20.25-25.94-25.94-12.7-6.47-29.33-6.47-62.57-6.47h-522.39c-33.24,0-49.87,0-62.57,6.47-11.16,5.69-20.25,14.77-25.94,25.94Z"/><path class="cls-14" d="M4099.88,643.17c-33.76.02-67.02-8.19-96.89-23.93s-55.45-38.54-74.51-66.4c-19.06-27.86-31.03-59.96-34.88-93.5-3.84-33.54.55-67.52,12.82-98.97,12.26-31.45,32.01-59.44,57.54-81.54,25.53-22.09,56.07-37.62,88.96-45.23,32.89-7.62,67.15-7.09,99.79,1.53,32.64,8.63,62.68,25.09,87.53,47.96h0l-49.24,51.51c-19.57-17.69-43.85-29.3-69.9-33.47-26.05-4.16-52.73-.67-76.84,10.04-24.1,10.71-44.58,28.18-58.96,50.29-14.37,22.12-22.02,47.93-22.02,74.3s7.65,52.18,22.02,74.3c14.38,22.11,34.86,39.58,58.96,50.29,24.11,10.71,50.8,14.2,76.84,10.03,26.05-4.16,50.33-15.77,69.9-33.46l49.24,51.51c-38.25,35.23-88.36,54.77-140.35,54.73h0Z"/><path class="cls-14" d="M4266.82,539.4c-3.36,0-6.65-1-9.45-2.87-2.8-1.87-4.97-4.53-6.26-7.63-1.29-3.1-1.62-6.52-.97-9.82.66-3.3,2.28-6.33,4.66-8.71,2.37-2.38,5.41-4,8.71-4.66,3.3-.65,6.72-.31,9.83.97,3.1,1.29,5.76,3.46,7.63,6.26,1.87,2.8,2.87,6.08,2.87,9.45,0,4.51-1.81,8.83-5,12.01-3.18,3.19-7.5,4.98-12.01,5h0Z"/><path class="cls-14" d="M4098.56,480.66c-8.9.04-17.61-2.56-25.03-7.49-7.42-4.91-13.21-11.92-16.64-20.14-3.43-8.21-4.35-17.26-2.63-25.99,1.71-8.74,5.99-16.76,12.27-23.07,6.28-6.3,14.3-10.6,23.02-12.34,8.73-1.75,17.78-.87,26,2.54,8.23,3.41,15.25,9.17,20.2,16.57,4.94,7.4,7.58,16.1,7.57,25.01-.02,11.88-4.73,23.27-13.13,31.68-8.38,8.41-19.75,13.17-31.64,13.22h0Z"/><path class="cls-14" d="M4286.32,481.46c-3.36,0-6.65-1-9.45-2.87-2.8-1.86-4.98-4.52-6.27-7.63s-1.62-6.53-.96-9.83c.65-3.3,2.28-6.32,4.65-8.71,2.38-2.37,5.41-4,8.71-4.65,3.3-.66,6.72-.32,9.83.96,3.11,1.29,5.76,3.46,7.63,6.27,1.86,2.79,2.86,6.08,2.86,9.44,0,4.51-1.81,8.83-4.99,12.01-3.19,3.19-7.51,4.99-12.01,5h0Z"/><path class="cls-14" d="M4235.76,479.34c-3.36,0-6.66-1.01-9.46-2.89-2.8-1.87-4.98-4.54-6.26-7.66s-1.61-6.55-.93-9.85c.67-3.3,2.31-6.33,4.7-8.7,2.4-2.37,5.45-3.97,8.76-4.61,3.31-.63,6.74-.27,9.84,1.04,3.1,1.32,5.75,3.53,7.59,6.35,1.84,2.82,2.8,6.13,2.77,9.5-.05,4.48-1.86,8.76-5.05,11.91-3.18,3.14-7.49,4.91-11.96,4.91h0Z"/><path class="cls-14" d="M4286.32,424.16c-3.36,0-6.65-1-9.45-2.86-2.8-1.87-4.98-4.53-6.27-7.63-1.29-3.11-1.62-6.53-.96-9.83.65-3.3,2.28-6.32,4.65-8.71,2.38-2.37,5.41-3.99,8.71-4.65,3.3-.66,6.72-.32,9.83.96,3.11,1.29,5.76,3.47,7.63,6.27,1.86,2.79,2.86,6.08,2.86,9.45,0,4.5-1.81,8.82-4.99,12.01-3.19,3.18-7.51,4.98-12.01,4.99h0Z"/><path class="cls-14" d="M4235.77,426.09c-3.36,0-6.65-1-9.45-2.86-2.8-1.87-4.98-4.53-6.27-7.63s-1.62-6.52-.96-9.82c.65-3.3,2.28-6.33,4.65-8.71,2.38-2.38,5.41-4,8.71-4.66,3.3-.65,6.72-.32,9.83.97,3.11,1.29,5.76,3.46,7.63,6.26,1.87,2.79,2.87,6.08,2.87,9.45,0,4.51-1.79,8.84-4.98,12.02-3.19,3.19-7.51,4.98-12.02,4.98h0Z"/><path class="cls-14" d="M4267.8,366.97c-3.36,0-6.65-.98-9.46-2.84-2.8-1.86-4.99-4.52-6.28-7.63-1.29-3.11-1.63-6.53-.98-9.83s2.27-6.33,4.64-8.71c2.38-2.38,5.41-4.01,8.71-4.67,3.3-.66,6.72-.32,9.83.96,3.12,1.29,5.77,3.46,7.64,6.26,1.87,2.8,2.87,6.09,2.87,9.46,0,4.5-1.79,8.82-4.97,12-3.18,3.19-7.49,4.99-12,5h0Z"/><path class="cls-7" d="M5292.15,105.51h-522.39c-17.12,0-28.16.02-36.57.71-8.06.66-11.05,1.78-12.52,2.52-5.59,2.85-10.12,7.39-12.98,12.98-.74,1.47-1.86,4.45-2.52,12.52-.68,8.41-.71,19.46-.71,36.57v522.39c0,17.12.02,28.16.71,36.57.66,8.06,1.78,11.05,2.52,12.52,2.85,5.59,7.39,10.12,12.98,12.98,1.47.74,4.45,1.86,12.52,2.52,8.41.68,19.46.71,36.57.71h522.39c17.12,0,28.16-.02,36.57-.71,8.06-.66,11.05-1.78,12.52-2.52,5.59-2.85,10.12-7.39,12.98-12.98.74-1.47,1.86-4.45,2.52-12.52.68-8.41.71-19.46.71-36.57V170.81c0-17.12-.02-28.16-.71-36.57-.66-8.06-1.78-11.05-2.52-12.52-2.85-5.59-7.39-10.12-12.98-12.98-1.47-.74-4.45-1.86-12.52-2.52-8.41-.68-19.46-.71-36.57-.71ZM4681.25,108.24c-6.47,12.7-6.47,29.33-6.47,62.57v522.39c0,33.24,0,49.87,6.47,62.57,5.69,11.17,14.77,20.25,25.94,25.94,12.7,6.47,29.33,6.47,62.57,6.47h522.39c33.24,0,49.87,0,62.57-6.47,11.17-5.69,20.25-14.77,25.94-25.94,6.47-12.7,6.47-29.33,6.47-62.57V170.81c0-33.24,0-49.87-6.47-62.57-5.69-11.16-14.77-20.25-25.94-25.94-12.7-6.47-29.33-6.47-62.57-6.47h-522.39c-33.24,0-49.87,0-62.57,6.47-11.16,5.69-20.25,14.77-25.94,25.94Z"/><path class="cls-4" d="M4937.95,617.51v-28.76h59.6v-17.78h-28.9v-28.94h136.45l-63.39-110.03,63.39-110.08h-139.85v152.64h-75.28v-228.07h259.05l43.22,75.05-63.58,110.46,64.87,112.68-41.94,72.83h-213.64Z"/><path class="cls-4" d="M4949.53,542.03h-28.86v28.94h28.86v-28.94Z"/><path class="cls-4" d="M4918.84,588.54h-28.86v28.94h28.86v-28.94Z"/><path class="cls-6" d="M6227.11,105.51h-522.39c-17.12,0-28.16.02-36.57.71-8.06.66-11.05,1.78-12.52,2.52-5.59,2.85-10.12,7.39-12.98,12.98-.74,1.47-1.86,4.45-2.52,12.52-.68,8.41-.71,19.46-.71,36.57v522.39c0,17.12.02,28.16.71,36.57.66,8.06,1.78,11.05,2.52,12.52,2.85,5.59,7.39,10.12,12.98,12.98,1.47.74,4.45,1.86,12.52,2.52,8.41.68,19.46.71,36.57.71h522.39c17.12,0,28.16-.02,36.57-.71,8.06-.66,11.05-1.78,12.52-2.52,5.59-2.85,10.12-7.39,12.98-12.98.74-1.47,1.86-4.45,2.52-12.52.68-8.41.71-19.46.71-36.57V170.81c0-17.12-.02-28.16-.71-36.57-.66-8.06-1.78-11.05-2.52-12.52-2.85-5.59-7.39-10.12-12.98-12.98-1.47-.74-4.45-1.86-12.52-2.52-8.41-.68-19.46-.71-36.57-.71ZM5616.21,108.24c-6.47,12.7-6.47,29.33-6.47,62.57v522.39c0,33.24,0,49.87,6.47,62.57,5.69,11.17,14.77,20.25,25.94,25.94,12.7,6.47,29.33,6.47,62.57,6.47h522.39c33.24,0,49.87,0,62.57-6.47,11.17-5.69,20.25-14.77,25.94-25.94,6.47-12.7,6.47-29.33,6.47-62.57V170.81c0-33.24,0-49.87-6.47-62.57-5.69-11.16-14.77-20.25-25.94-25.94-12.7-6.47-29.33-6.47-62.57-6.47h-522.39c-33.24,0-49.87,0-62.57,6.47-11.16,5.69-20.25,14.77-25.94,25.94Z"/><path class="cls-9" d="M5775.77,249.28l193.15,375.97,194.55-375.97h-387.7ZM5938.89,398.53h-30.77v-30.77h30.77v30.77ZM5938.89,352.35h-30.77v-30.74h30.77v30.74ZM5985.02,444.66h-30.77v-30.77h30.77v30.77ZM5985.02,398.53h-30.77v-30.77h30.77v30.77ZM5985.02,352.35h-30.77v-30.74h30.77v30.74ZM6030.92,398.53h-30.77v-30.77h30.77v30.77ZM6000.15,352.35v-30.74h30.77v30.74h-30.77Z"/><path class="cls-1" d="M7162.06,105.51h-522.39c-17.12,0-28.16.02-36.57.71-8.06.66-11.05,1.78-12.52,2.52-5.59,2.85-10.12,7.39-12.98,12.98-.74,1.47-1.86,4.45-2.52,12.52-.68,8.41-.71,19.46-.71,36.57v522.39c0,17.12.02,28.16.71,36.57.66,8.06,1.78,11.05,2.52,12.52,2.85,5.59,7.39,10.12,12.98,12.98,1.47.74,4.45,1.86,12.52,2.52,8.41.68,19.46.71,36.57.71h522.39c17.15,0,28.2-.02,36.61-.71,8-.66,11.05-1.78,12.45-2.52,5.61-2.85,10.14-7.39,13.03-12.98.74-1.47,1.81-4.45,2.47-12.52.74-8.41.74-19.46.74-36.57V170.81c0-17.12,0-28.16-.74-36.57-.66-8.06-1.73-11.05-2.47-12.52-2.89-5.59-7.42-10.12-13.03-12.98-1.4-.74-4.45-1.86-12.45-2.52-8.41-.68-19.46-.71-36.61-.71ZM6551.17,108.24c-6.47,12.7-6.47,29.33-6.47,62.57v522.39c0,33.24,0,49.87,6.47,62.57,5.69,11.17,14.77,20.25,25.94,25.94,12.7,6.47,29.33,6.47,62.57,6.47h522.39c33.23,0,49.88,0,62.58-6.47,11.13-5.69,20.2-14.77,25.97-25.94,6.43-12.7,6.43-29.33,6.43-62.57V170.81c0-33.24,0-49.87-6.43-62.57-5.77-11.16-14.84-20.25-25.97-25.94-12.7-6.47-29.35-6.47-62.58-6.47h-522.39c-33.24,0-49.87,0-62.57,6.47-11.16,5.69-20.25,14.77-25.94,25.94Z"/><path class="cls-10" d="M6900.87,211.25l-185.51,106.67v213.33l185.51,106.66,185.51-106.66v-213.33l-185.51-106.67ZM6983.52,445.84l-49.42,28.43-59.72-32.37v67.98l-56.13,35.45v-142.12l44.54-27.14,61.79,32.43v-69.4l59.09-35.27-.15,142.02h0Z"/><path class="cls-11" d="M8097.02,105.51h-522.39c-17.15,0-28.2.02-36.61.71-8,.66-11.05,1.78-12.45,2.52-5.61,2.85-10.14,7.39-13.03,12.98-.74,1.47-1.81,4.45-2.47,12.52-.74,8.41-.74,19.46-.74,36.57v522.39c0,17.12,0,28.16.74,36.57.66,8.06,1.73,11.05,2.47,12.52,2.89,5.59,7.42,10.12,13.03,12.98,1.4.74,4.45,1.86,12.45,2.52,8.41.68,19.46.71,36.61.71h522.39c17.15,0,28.2-.02,36.61-.71,8-.66,11.05-1.78,12.45-2.52,5.61-2.85,10.14-7.39,13.03-12.98.74-1.47,1.81-4.45,2.47-12.52.74-8.41.74-19.46.74-36.57V170.81c0-17.12,0-28.16-.74-36.57-.66-8.06-1.73-11.05-2.47-12.52-2.89-5.59-7.42-10.12-13.03-12.98-1.4-.74-4.45-1.86-12.45-2.52-8.41-.68-19.46-.71-36.61-.71ZM7486.08,108.24c-6.43,12.7-6.43,29.33-6.43,62.57v522.39c0,33.24,0,49.87,6.43,62.57,5.77,11.17,14.84,20.25,25.97,25.94,12.7,6.47,29.35,6.47,62.58,6.47h522.39c33.23,0,49.88,0,62.58-6.47,11.13-5.69,20.2-14.77,25.97-25.94,6.43-12.7,6.43-29.33,6.43-62.57V170.81c0-33.24,0-49.87-6.43-62.57-5.77-11.16-14.84-20.25-25.97-25.94-12.7-6.47-29.35-6.47-62.58-6.47h-522.39c-33.23,0-49.88,0-62.58,6.47-11.13,5.69-20.2,14.77-25.97,25.94Z"/><path class="cls-2" d="M8073.28,293.49l-59.28,102.78-59.36-102.78h118.64Z"/><path class="cls-2" d="M7756.68,362.11h-39.57l98.94,171.47-39.57,68.59-178.09-308.68h197.87l98.94,171.51,19.79-34.3-79.15-137.21h79.15l39.57,68.62,39.57,68.59-98.94,171.47-138.51-240.06Z"/><path class="cls-15" d="M2487.28,788.17h-522.39c-16.9,0-29.1,0-38.99-.81-10.41-.85-17.46-2.54-23.58-5.66-11.24-5.73-20.21-14.7-25.94-25.94-3.12-6.12-4.81-13.17-5.66-23.58-.81-9.91-.81-22.11-.81-38.99V170.81c0-16.88,0-29.08.81-38.99.85-10.41,2.54-17.46,5.66-23.58,5.73-11.25,14.7-20.22,25.94-25.95,6.12-3.12,13.17-4.81,23.58-5.66,9.91-.81,22.11-.81,38.99-.81h522.39c16.88,0,29.08,0,38.99.81,10.41.85,17.46,2.54,23.58,5.66,11.24,5.73,20.22,14.7,25.94,25.94,3.12,6.11,4.81,13.16,5.66,23.58.81,9.89.81,22.09.81,38.99v522.39c0,16.9,0,29.1-.81,38.99-.85,10.42-2.55,17.48-5.67,23.59-5.72,11.23-14.69,20.21-25.94,25.94-6.11,3.12-13.16,4.81-23.58,5.66-9.88.81-22.09.81-38.99.81ZM1964.89,105.51c-16.18,0-27.87,0-36.57.71-6.06.5-10.16,1.32-12.52,2.53-5.62,2.86-10.1,7.35-12.97,12.97-1.2,2.36-2.03,6.46-2.52,12.52-.71,8.7-.71,20.39-.71,36.57v522.39c0,15.57,0,27.87.71,36.57.5,6.06,1.32,10.16,2.52,12.52,2.86,5.62,7.35,10.1,12.97,12.97,2.36,1.21,6.46,2.03,12.52,2.53,8.68.71,20.38.71,36.57.71h522.39c16.19,0,27.89,0,36.57-.71,6.07-.5,10.16-1.32,12.52-2.52,5.62-2.87,10.11-7.35,12.97-12.97,1.21-2.36,2.03-6.46,2.53-12.53.71-8.68.71-20.38.71-36.57V170.81c0-16.19,0-27.89-.71-36.57-.5-6.06-1.32-10.16-2.52-12.51-2.87-5.63-7.35-10.11-12.97-12.98-2.36-1.2-6.46-2.03-12.52-2.52-8.7-.71-21-.71-36.57-.71h-522.39Z"/><polygon class="cls-15" points="2289.96 265.83 2289.96 357.41 2237.82 463.27 2300.66 590.9 2415.62 357.41 2415.62 265.83 2289.96 265.83"/><polygon class="cls-15" points="2164.26 265.83 2038.6 265.83 2038.6 357.41 2164.26 612.69 2289.96 612.69 2164.26 357.41 2164.26 265.83"/></svg>