<?xml version="1.0" encoding="UTF-8"?><svg id="Logos" xmlns="http://www.w3.org/2000/svg" width="264.65" height="72" viewBox="0 0 264.65 72"><defs><style>.cls-1{fill:#14c6cb;}.cls-1,.cls-2{stroke-width:0px;}.cls-2{fill:#000;}</style></defs><path class="cls-1" d="M70.77,16.31l-8,13.9-8-13.9h16Z"/><path class="cls-1" d="M28.07,25.51h-5.3l13.3,23.1-5.3,9.2L6.77,16.21h26.7l13.3,23.1,2.7-4.6-10.7-18.4h10.7l5.3,9.2,5.3,9.2-13.3,23.2L28.07,25.51Z"/><path class="cls-2" d="M86.98,22.94h5.53l2.97,18.33c.2,1.48.36,2.65.48,4.65l.64.04,3.37-23.02h8.46l3.41,23.02.6-.04c.08-2,.24-3.17.48-4.65l3.01-18.33h5.09l-4.89,28.07h-8.02l-3.57-23.74h-.72l-3.45,23.74h-8.54l-4.85-28.07Z"/><path class="cls-2" d="M122.19,45.55c0-4.21,2.97-5.61,6.58-6.46l6.1-1.4v-.48c0-2.04-1.32-3.33-3.45-3.33s-3.37,1.16-3.77,3.09l-4.57-.52c.68-3.85,3.93-6.34,8.54-6.34,5.09,0,8.42,3.21,8.42,7.9v8.22c0,.52.16.68.52.68h1.12v4.09h-3.13c-1.96,0-2.85-.64-2.85-2.25,0-.48.08-1.04.28-1.76l-.44-.16c-1.44,3.13-3.57,4.49-6.58,4.49-4.13,0-6.78-2.29-6.78-5.77ZM130.33,47.56c2.65,0,4.53-1.92,4.53-4.97v-1.6l-4.37,1.04c-2.21.52-3.13,1.28-3.13,2.97s1.16,2.57,2.97,2.57Z"/><path class="cls-2" d="M145.89,55.1h3.05c1.32,0,1.84-.4,2.21-1.56l.76-2.53h-3.81l-5.77-20.41h5.41l4.53,16.32h.68l4.45-16.32h5.13l-6.74,23.58c-1,3.53-2.45,5.05-6.46,5.05h-3.45v-4.13Z"/><path class="cls-2" d="M164.86,30.6h5.13v.92c0,.92-.08,1.64-.36,3.29l.48.12c1.24-3.25,3.57-4.81,6.58-4.81,4.97,0,8.9,4.09,8.9,10.67s-3.93,10.71-8.9,10.71c-3.01,0-5.21-1.56-6.5-4.85l-.44.16c.24,1.6.32,2.37.32,3.25v9.18h-5.21v-28.63ZM180.42,40.78c0-3.97-2.17-6.42-5.21-6.42s-5.21,2.45-5.21,6.42,2.17,6.46,5.21,6.46,5.21-2.45,5.21-6.46Z"/><path class="cls-2" d="M187.83,40.78c0-6.22,4.37-10.67,10.43-10.67s10.43,4.45,10.43,10.67-4.37,10.71-10.43,10.71-10.43-4.49-10.43-10.71ZM203.47,40.78c0-3.85-2.04-6.42-5.21-6.42s-5.21,2.57-5.21,6.42,2.09,6.46,5.21,6.46,5.21-2.57,5.21-6.46Z"/><path class="cls-2" d="M218.27,51.01h-5.21v-16.28h-2.89v-4.13h8.1v20.41ZM212.34,25.14c0-1.76,1.4-3.21,3.13-3.21s3.17,1.44,3.17,3.21-1.4,3.17-3.17,3.17-3.13-1.4-3.13-3.17Z"/><path class="cls-2" d="M228.26,51.01h-5.21v-20.41h5.09v.8c0,1.04-.08,1.76-.36,3.25l.48.16c1.24-2.97,3.13-4.69,6.62-4.69,4.45,0,6.82,2.81,6.82,7.58v13.31h-5.21v-13.15c0-2.33-1.16-3.61-3.49-3.61-2.65,0-4.73,2-4.73,5.53v11.23Z"/><path class="cls-2" d="M247.7,45.83v-11.11h-3.61v-4.13h3.61v-5.17h5.21v5.17h4.97v4.13h-4.97v10.47c0,1.24.44,1.68,1.44,1.68h3.53v4.13h-4.53c-3.97,0-5.65-1.6-5.65-5.17Z"/><rect class="cls-1" x="86.98" y="21.96" width="1.09" height="1.06"/></svg>