<?xml version="1.0" encoding="utf-8"?>
<!-- Generator: Adobe Illustrator 21.1.0, SVG Export Plug-In . SVG Version: 6.00 Build 0)  --><svg height="300" id="svg2" inkscape:version="0.47 r22583" sodipodi:docname="VMW_10Q1_LGO_GUIDE_USLET_EN_R1.pdf" style="enable-background:new 0 0 500 82;" version="1.1" viewBox="0 0 500 82" width="300" x="0px" xml:space="preserve" xmlns="http://www.w3.org/2000/svg" xmlns:cc="http://creativecommons.org/ns#" xmlns:dc="http://purl.org/dc/elements/1.1/" xmlns:inkscape="http://www.inkscape.org/namespaces/inkscape" xmlns:rdf="http://www.w3.org/1999/02/22-rdf-syntax-ns#" xmlns:sodipodi="http://sodipodi.sourceforge.net/DTD/sodipodi-0.dtd" xmlns:svg="http://www.w3.org/2000/svg" xmlns:xlink="http://www.w3.org/1999/xlink" y="0px">
<style type="text/css">
	.st0{fill:#696566;}
</style>
<defs>
<inkscape:perspective id="perspective10" inkscape:persp3d-origin="0.5 : 0.33333333 : 1" inkscape:vp_x="0 : 0.5 : 1" inkscape:vp_y="0 : 1000 : 0" inkscape:vp_z="1 : 0.5 : 1" sodipodi:type="inkscape:persp3d">
</inkscape:perspective>
</defs>
<sodipodi:namedview bordercolor="#666666" borderopacity="1" gridtolerance="10" guidetolerance="10" id="namedview4" inkscape:current-layer="g12" inkscape:cx="6.645" inkscape:cy="29.957033" inkscape:pageopacity="0" inkscape:pageshadow="2" inkscape:window-height="514" inkscape:window-maximized="1" inkscape:window-width="1024" inkscape:window-x="-8" inkscape:window-y="-8" inkscape:zoom="0.72880595" objecttolerance="10" pagecolor="#ffffff" showgrid="false">
</sodipodi:namedview>
<g id="g166">
<g id="g172" transform="translate(388.349, 250.856)">
<path class="st0" d="M-173.2-177.7l-21.7-60.4c-0.3-0.8-0.7-1.9-0.7-2.9c0-2.6,2.2-5.1,5.4-5.1    c2.8,0,4.6,1.8,5.4,4.4l18,52l18.1-52.2c0.8-2.5,2.5-4.3,5.2-4.3h0.6c2.9,0,4.7,1.8,5.5,4.3l17.9,52.2l18.2-52.3    c0.7-2.2,2.2-4.1,5.1-4.1c3,0,5.2,2.3,5.2,5c0,1-0.4,2.1-0.7,2.9l-21.8,60.5c-1.1,3.2-3.3,4.8-5.8,4.8h-0.4    c-2.8,0-4.8-1.7-5.8-4.8l-17.8-51.3l-18,51.3c-1,3.2-3,4.8-5.8,4.8h-0.3C-169.9-172.9-172.1-174.6-173.2-177.7" id="path174"/>
</g>
<g id="g176" transform="translate(436.249, 269.985)">
<path class="st0" d="M-63.1-260c0-2.9,2.3-5.4,5.2-5.4c3.1,0,5.4,2.4,5.4,5.4v12.2c5.3-11.9,16.9-17.5,24.6-17.5    c3.2,0,5.3,2.3,5.3,5.4c0,2.9-1.9,5-4.7,5.4c-13.8,1.7-25.2,12-25.2,32.7v24.3c0,2.9-2.2,5.4-5.3,5.4c-3,0-5.4-2.4-5.4-5.4    L-63.1-260L-63.1-260z" id="path178"/>
</g>
<g id="g180" transform="translate(458.898, 249.221)">
<path class="st0" d="M-11-170.7c-19.3,0-35-14.9-35-36.8v-0.3c0-20.4,14.2-36.8,33.6-36.8    c20.7,0,32.5,17.1,32.5,35.9c0,2.9-2.3,4.9-4.9,4.9h-50.7c1.5,15.3,12.2,23.9,24.7,23.9c8.7,0,15-3.4,20.2-8.2    c0.8-0.7,1.8-1.2,3-1.2c2.6,0,4.6,2.1,4.6,4.5c0,1.2-0.5,2.5-1.6,3.4C8.8-175,0.9-170.7-11-170.7 M9.7-211.7    c-1.1-12.9-8.4-24.1-22.4-24.1c-12.2,0-21.4,10.3-22.8,24.1H9.7z" id="path182"/>
</g>
<g id="g184" transform="translate(413.36, 255.941)">
<path class="st0" d="M-115.7-199.6v-0.3c0-15,12.4-23,30.5-23c9.1,0,15.6,1.2,21.9,3v-2.5c0-12.8-7.9-19.4-21.2-19.4    c-7.2,0-11.4,0.9-16.6,3.3c-0.7,0.3-1.4,0.4-1.9,0.4c-2.5,0-4.7-2.1-4.7-4.6c0-2.2,1-3.6,2.9-4.4c7-3,12.3-4.1,21.4-4.1    c10.1,0,17.8,2.6,23,7.9c4.8,4.8,7.3,11.7,7.3,20.8v39.3c0,3-2.2,5.2-5.1,5.2c-3,0-5.1-2.2-5.1-5v-6.8c-5,6.5-13.3,12.3-25.8,12.3    C-102.3-177.4-115.7-185-115.7-199.6 M-63.2-205.1v-6.9c-5.3-1.5-12.3-3-21-3c-13.4,0-20.8,5.8-20.8,14.8v0.3    c0,9,8.3,14.2,17.9,14.2C-73.9-185.8-63.2-193.8-63.2-205.1" id="path186"/>
</g>
<g id="g188" transform="translate(329.779, 270.223)">
<path class="st0" d="M-307.8-261c-2.3-5.1-8.1-7.4-13.5-5c-5.4,2.4-7.4,8.4-4.9,13.5l22.6,49.2    c3.6,7.7,7.3,11.8,14.3,11.8c7.5,0,10.8-4.4,14.4-11.8c0,0,19.7-43,19.9-43.4c0.2-0.5,0.8-1.8,2.8-1.8c1.7,0,3.1,1.4,3.1,3.2v42    c0,6.5,3.6,11.8,10.5,11.8c6.9,0,10.6-5.3,10.6-11.8v-34.4c0-6.6,4.8-10.9,11.2-10.9s10.8,4.5,10.8,10.9v34.4    c0,6.5,3.6,11.8,10.5,11.8c6.9,0,10.7-5.3,10.7-11.8v-34.4c0-6.6,4.7-10.9,11.2-10.9c6.5,0,10.8,4.5,10.8,10.9v34.4    c0,6.5,3.6,11.8,10.5,11.8c6.9,0,10.7-5.3,10.7-11.8v-39.1c0-14.4-11.6-24.5-25.5-24.5c-13.9,0-22.6,9.6-22.6,9.6    c-4.6-6-11-9.6-21.8-9.6c-11.4,0-21.4,9.6-21.4,9.6c-4.6-6-12.5-9.6-19-9.6c-10.1,0-18.1,4.4-23,15.6l-14.5,34.1L-307.8-261z" id="path190"/>
</g>
<g id="g192" transform="translate(468.609, 268.931)">
<path class="st0" d="M11.3-255.4L11.3-255.4c0-4.9,3.9-8.9,8.8-8.9c5,0,8.8,4,8.8,8.8v0c0,4.8-3.9,8.9-8.8,8.9    C15.1-246.6,11.3-250.6,11.3-255.4 M27.2-255.5L27.2-255.5c0-4-3.1-7.2-7.1-7.2c-4,0-7.1,3.3-7.1,7.2v0c0,3.9,3.1,7.2,7.1,7.2    C24.1-248.3,27.2-251.6,27.2-255.5" id="path194"/>
</g>
<g id="g196" transform="translate(470.257, 270.007)">
<path class="st0" d="M15.1-260.1c0-0.5,0.4-0.9,1-0.9H19c1.1,0,2,0.3,2.5,0.9c0.5,0.5,0.7,1.2,0.7,1.9v0    c0,1.3-0.7,2.2-1.7,2.6l1.3,1.6c0.2,0.2,0.3,0.4,0.3,0.7c0,0.5-0.4,0.9-0.9,0.9c-0.4,0-0.7-0.2-0.9-0.5l-1.8-2.3H17v1.9    c0,0.5-0.4,0.9-0.9,0.9c-0.5,0-1-0.4-1-0.9L15.1-260.1L15.1-260.1z M18.9-256.9c0.9,0,1.4-0.5,1.4-1.2v0c0-0.8-0.5-1.2-1.5-1.2H17    v2.5L18.9-256.9L18.9-256.9z" id="path198"/>
</g>
</g>
</svg>