<?xml version="1.0" encoding="utf-8"?>
<svg height="300" viewBox="0 0 300 300" width="300" xmlns="http://www.w3.org/2000/svg"><g fill="none"><path d="M193.541 5.828V3.85l-.853-.565H158.56l-.569.565v1.977l.569.564h14.504l.569.564V48.18l.568.564h2.56l.569-.564V7.239l.569-.565h14.789l.853-.846zm7.683 9.885c-9.1 0-14.514 6.488-14.514 15.805v1.421c0 9.036 4.553 16.933 15.076 16.933 9.101 0 12.515-5.928 13.084-9.88l-.562-.559h-2.568l-.562.558c-1.422 3.953-3.991 6.495-9.11 6.495-8.533 0-11.09-7.907-11.09-11.86l.575-.558h23.598l.575-.571v-1.979c0-9.317-5.116-15.804-14.501-15.804h-.001zm0 3.387c3.982 0 6.605 1.623 8.24 3.812 1.636 2.188 2.275 4.94 2.275 7.198l-.562.571H191.27l-.575-.57c0-2.26.639-5.01 2.274-7.2 1.635-2.187 4.273-3.81 8.254-3.81zm21.041 13.551c0-9.035 4.55-13.835 11.092-13.835 6.541 0 9.1 3.953 9.954 7.906l.569.564h2.844l.568-.564c-.568-6.494-5.972-11.012-13.935-11.012-8.532 0-15.073 5.365-15.073 16.941 0 11.86 6.54 16.942 15.073 16.942 7.963 0 13.082-4.518 13.935-11.012l-.568-.565h-2.56l-.569.565c-.568 3.953-3.412 7.905-9.954 7.905-6.541 0-11.376-4.517-11.376-13.835zm56.88 15.812V28.698c0-8.47-4.55-12.988-11.944-12.988-4.55 0-8.533 1.976-10.523 5.365h-.569V4.133l-.853-.846h-2.56l-.568.564v44.612l.569.565h2.56l.568-.565V30.675c0-7.341 3.413-11.86 10.522-11.86 5.404 0 8.533 3.39 8.533 9.883v19.765l.568.565h2.56l1.138-.565zm33.56 0V28.698c0-8.47-4.55-12.988-11.945-12.988-4.55 0-8.532 1.976-10.522 5.365h-.57l-.568-3.953-.569-.564h-1.99l-.57.564v31.341l.57.565h2.56l.568-.565V30.675c0-7.341 3.413-11.86 10.523-11.86 5.403 0 8.532 3.39 8.532 9.883v19.765l.568.565h2.844l.57-.565h-.001zm19.057-32.47c-8.532 0-15.076 5.935-15.076 16.946 0 11.012 6.544 16.934 15.076 16.934 8.533 0 15.077-5.922 15.077-16.934 0-11.01-6.544-16.946-15.077-16.946zm0 3.107c3.27 0 6.045 1.346 8 3.746 1.956 2.4 3.09 5.858 3.09 10.094 0 4.235-1.134 7.693-3.09 10.093-1.955 2.4-4.729 3.733-8 3.733-3.27 0-6.044-1.333-8-3.733-1.955-2.4-3.09-5.858-3.09-10.093 0-4.377 1.135-7.835 3.09-10.2 1.956-2.365 4.73-3.64 8-3.64zm23.887 29.363V3.851l-.853-.564h-2.56l-.568.564v44.612l.569.565h2.56l.852-.565zm19.63-32.47c-8.532 0-15.076 5.935-15.076 16.947s6.544 16.933 15.076 16.933c8.533 0 15.063-5.922 15.063-16.933 0-11.012-6.53-16.947-15.063-16.947zm0 3.108c3.271 0 6.032 1.345 7.987 3.745 1.955 2.4 3.103 5.859 3.103 10.094 0 4.235-1.148 7.693-3.103 10.094-1.956 2.4-4.716 3.732-7.987 3.732-3.27 0-6.044-1.332-8-3.732-1.965-2.4-3.116-5.86-3.116-10.095 0-4.376 1.148-7.835 3.104-10.2 1.955-2.365 4.729-3.639 8-3.639h.012zm32.414-3.387c-9.1 0-13.94 7.334-13.94 16.933 0 9.883 4.555 16.947 13.94 16.947 5.973 0 9.106-2.541 10.528-5.366v.28c0 8.47-1.99 14.968-9.953 14.968-5.972 0-7.965-2.535-8.534-5.924l-.576-.57h-2.555l-.575.57c.569 5.365 4.558 9.031 12.521 9.031 8.532 0 13.94-5.366 13.94-18.354V17.122l-.575-.558h-1.994l-.561.558-.576 3.958h-.561c-1.422-2.542-4.556-5.366-10.529-5.366zm0 3.108c3.27 0 5.906 1.119 7.72 3.413 1.812 2.294 2.809 5.754 2.809 10.412 0 4.659-.997 8.119-2.81 10.412-1.813 2.294-4.448 3.427-7.719 3.427-3.27 0-5.906-1.133-7.719-3.427-1.813-2.294-2.796-5.753-2.796-10.412 0-4.518.983-7.977 2.796-10.306 1.813-2.33 4.448-3.52 7.72-3.52zm25.029-8.194V6.675l-.569-.565h-2.56l-.852.565v3.953l.568.565h2.56l.853-.565zm0 37.835v-31.34l-.569-.565h-2.56l-.852.564v31.341l.568.565h2.56l.853-.565zm19.05-32.749c-9.1 0-14.5 6.487-14.5 15.805v1.42c0 9.036 4.553 16.934 15.076 16.934 9.1 0 12.514-5.928 13.084-9.881l-.576-.558h-2.555l-.575.558c-1.422 3.953-3.978 6.494-9.097 6.494-8.532 0-11.09-7.907-11.09-11.86l.576-.557h23.598l.575-.571v-1.98c0-9.034-5.414-15.804-14.514-15.804h-.001zm0 3.387c3.982 0 6.62 1.623 8.255 3.811 1.635 2.189 2.274 4.94 2.274 7.199l-.575.571H441.82l-.562-.571c0-2.259.64-5.01 2.275-7.199 1.635-2.188 4.259-3.811 8.24-3.811zm42.38 21.456c0-5.928-3.412-8.47-9.953-9.881-6.542-1.413-10.523-1.977-10.523-6.495 0-3.388 2.56-5.365 7.395-5.365 5.972 0 7.963 2.542 7.963 5.93l.568.564h2.56l.569-.564c0-6.494-5.404-9.035-11.945-9.035-7.395 0-11.092 3.953-11.092 8.47 0 5.365 3.981 7.906 10.522 9.036 6.542 1.412 9.955 1.976 9.955 7.34 0 3.389-1.991 5.93-8.533 5.93-5.972 0-8.532-3.388-8.532-7.341l-.569-.565h-2.56l-.569.565c0 5.93 4.55 10.447 12.514 10.447 8.248.286 12.23-3.67 12.23-9.036z" fill="gray"/><path d="M157.705 39.396v9.348h-29.592V2.671h10.761v36.723h18.831v.002zM68.247 0L42.026 20.042C39.336 10.025 30.594 2.67 19.833 2.67H.997v46.072h18.836c10.76 0 20.175-7.342 22.193-17.358l26.22 20.028 26.233-20.028v17.358h29.592v-9.35h-19.492V2.67H93.81v17.358L68.928 40.07l-5.378-4.675 12.107-9.35 12.78-10.015-7.396-6.003-24.886 19.351-5.377-4.675 24.88-18.7L68.261 0h-.015zM11.084 12.02h8.067c1.681 0 3.33.374 4.842 1.062a13.044 13.044 0 0 1 4.08 2.949 14.032 14.032 0 0 1 2.81 4.436 15.063 15.063 0 0 1 1.043 5.578c0 1.836-.33 3.627-.95 5.286a14.494 14.494 0 0 1-2.662 4.475 12.687 12.687 0 0 1-4.04 3.095 11.792 11.792 0 0 1-5.123 1.155h-8.067V12.02z" fill="#007DB8"/></g></svg>