<?xml version="1.0" encoding="UTF-8"?><svg id="Logos" xmlns="http://www.w3.org/2000/svg" width="245.81" height="72" viewBox="0 0 245.81 72"><defs><style>.cls-1{fill:#000;}.cls-1,.cls-2{stroke-width:0px;}.cls-2{fill:#1868f2;}</style></defs><path class="cls-1" d="M86.12,22.93h5.57l6.5,23.26h1.48l6.46-23.26h5.29l-7.98,28.07h-9.34l-7.98-28.07Z"/><path class="cls-1" d="M111.26,45.55c0-4.21,2.97-5.61,6.58-6.46l6.1-1.4v-.48c0-2.04-1.32-3.33-3.45-3.33s-3.37,1.16-3.77,3.09l-4.57-.52c.68-3.85,3.93-6.34,8.54-6.34,5.09,0,8.42,3.21,8.42,7.9v8.22c0,.52.16.68.52.68h1.12v4.09h-3.13c-1.96,0-2.85-.64-2.85-2.25,0-.48.08-1.04.28-1.76l-.44-.16c-1.44,3.13-3.57,4.49-6.58,4.49-4.13,0-6.78-2.29-6.78-5.77ZM119.4,47.55c2.65,0,4.53-1.92,4.53-4.97v-1.6l-4.37,1.04c-2.21.52-3.13,1.28-3.13,2.97s1.16,2.57,2.97,2.57Z"/><path class="cls-1" d="M138.93,44.38l-.4.48c-.48.56-.68.96-.68,1.4,0,.68.52,1.04,1.88,1.04h5.53c4.49,0,7.18,2,7.18,5.61,0,3.81-2.85,6.42-9.78,6.42h-1.88c-5.98,0-8.74-1.64-8.74-4.49,0-2.13,1.8-3.49,3.89-3.61v-.52c-1.84-.32-2.77-1.4-2.77-2.97,0-1,.52-1.92,1.68-3.25l1.16-1.36c-1.8-1.28-2.89-3.17-2.89-5.45,0-4.21,3.65-7.1,8.9-7.1h10.43v3.89h-1.28c-1.16,0-2-.12-3.53-.56l-.2.52c2.04.8,3.09,2.29,3.09,4.29,0,3.61-3.37,6.02-8.5,6.02-1.12,0-2.13-.12-3.09-.36ZM142.94,55.65c3.33,0,4.49-.92,4.49-2.25s-1-1.96-3.45-1.96h-3.81c-2.49,0-3.77.68-3.77,1.96,0,1.36,1.16,2.25,4.57,2.25h1.96ZM145.86,37.81c0-2.09-1.52-3.53-3.85-3.53s-3.85,1.4-3.85,3.53,1.56,3.53,3.85,3.53,3.85-1.48,3.85-3.53Z"/><path class="cls-1" d="M154.97,30.59h4.81v.8c0,1.08-.04,1.96-.36,3.61l.48.12c.76-2.69,2.17-4.53,5.45-4.53h1.48v5.05h-2.12c-2.93,0-4.53,1.76-4.53,5.01v10.35h-5.21v-20.41Z"/><path class="cls-1" d="M167.44,45.55c0-4.21,2.97-5.61,6.58-6.46l6.1-1.4v-.48c0-2.04-1.32-3.33-3.45-3.33s-3.37,1.16-3.77,3.09l-4.57-.52c.68-3.85,3.93-6.34,8.54-6.34,5.09,0,8.42,3.21,8.42,7.9v8.22c0,.52.16.68.52.68h1.12v4.09h-3.13c-1.97,0-2.85-.64-2.85-2.25,0-.48.08-1.04.28-1.76l-.44-.16c-1.44,3.13-3.57,4.49-6.58,4.49-4.13,0-6.78-2.29-6.78-5.77ZM175.58,47.55c2.65,0,4.53-1.92,4.53-4.97v-1.6l-4.37,1.04c-2.21.52-3.13,1.28-3.13,2.97s1.16,2.57,2.97,2.57Z"/><path class="cls-1" d="M195.15,51h-5.21v-20.41h5.09v.8c0,1.04-.08,1.76-.36,3.25l.48.16c1.24-2.97,3.13-4.69,6.62-4.69,4.45,0,6.82,2.81,6.82,7.58v13.31h-5.21v-13.15c0-2.33-1.16-3.61-3.49-3.61-2.65,0-4.73,2-4.73,5.53v11.23Z"/><path class="cls-1" d="M214.59,45.83v-11.11h-3.61v-4.13h3.61v-5.17h5.21v5.17h4.97v4.13h-4.97v10.47c0,1.24.44,1.68,1.44,1.68h3.53v4.13h-4.53c-3.97,0-5.65-1.6-5.65-5.17Z"/><polygon class="cls-2" points="53.18 14.82 53.18 26.53 46.51 40.07 54.55 56.39 69.25 26.53 69.25 14.82 53.18 14.82"/><polygon class="cls-2" points="37.1 14.82 21.03 14.82 21.03 26.53 37.1 59.18 53.18 59.18 37.1 26.53 37.1 14.82"/></svg>