<?xml version="1.0" encoding="UTF-8"?><svg id="Logos" xmlns="http://www.w3.org/2000/svg" width="247.48" height="72" viewBox="0 0 247.48 72"><defs><style>.cls-1{fill:#fff;}.cls-1,.cls-2{stroke-width:0px;}.cls-2{fill:#1868f2;}</style></defs><polygon class="cls-2" points="53.18 14.82 53.18 26.53 46.51 40.07 54.55 56.39 69.25 26.53 69.25 14.82 53.18 14.82"/><polygon class="cls-2" points="37.1 14.82 21.03 14.82 21.03 26.53 37.1 59.18 53.18 59.18 37.1 26.53 37.1 14.82"/><path class="cls-1" d="M86.12,22.91h5.38l6.66,23.48h1.44l6.62-23.48h5.1l-8.11,28.09h-8.99l-8.11-28.09Z"/><path class="cls-1" d="M111.52,45.54c0-4.21,3.01-5.58,6.58-6.42l6.18-1.44v-.44c0-2.13-1.4-3.45-3.57-3.45s-3.45,1.2-3.89,3.13l-4.41-.52c.68-3.81,3.89-6.26,8.51-6.26,5.06,0,8.35,3.17,8.35,7.83v8.39c0,.52.16.72.52.72h1.12v3.93h-3.01c-1.97,0-2.81-.6-2.81-2.25,0-.48.08-1.08.28-1.81l-.44-.12c-1.44,3.09-3.57,4.49-6.66,4.49-4.05,0-6.74-2.25-6.74-5.78ZM119.58,47.67c2.77,0,4.7-2.01,4.7-5.18v-1.56l-4.53,1.08c-2.25.52-3.21,1.28-3.21,3.05,0,1.61,1.2,2.61,3.05,2.61Z"/><path class="cls-1" d="M139.49,44.42l-.48.52c-.48.56-.72.96-.72,1.4,0,.72.56,1.08,1.93,1.08h5.58c4.49,0,7.14,1.97,7.14,5.58s-2.85,6.38-9.67,6.38h-1.93c-5.94,0-8.71-1.69-8.71-4.53,0-2.09,1.69-3.45,3.81-3.65v-.48c-1.81-.36-2.65-1.44-2.65-2.97,0-1.04.52-1.93,1.69-3.25l1.16-1.32c-1.85-1.24-2.89-3.17-2.89-5.46,0-4.21,3.61-7.14,8.83-7.14h10.35v3.81h-1.24c-1.2,0-2.05-.12-3.61-.56l-.2.48c2.09.84,3.13,2.37,3.13,4.37,0,3.61-3.33,6.1-8.43,6.1-1.12,0-2.17-.12-3.09-.36ZM143.5,55.77c3.41,0,4.61-.92,4.61-2.33s-1.04-2.05-3.53-2.05h-3.89c-2.53,0-3.85.72-3.85,2.09s1.24,2.29,4.66,2.29h2.01ZM146.51,37.8c0-2.13-1.57-3.61-3.93-3.61s-3.97,1.48-3.97,3.61,1.6,3.65,3.97,3.65,3.93-1.52,3.93-3.65Z"/><path class="cls-1" d="M155.9,30.57h4.66v.84c0,1.12-.04,2.01-.36,3.61l.48.12c.76-2.69,2.17-4.57,5.46-4.57h1.48v4.9h-2.05c-3.01,0-4.66,1.85-4.66,5.22v10.31h-5.02v-20.43Z"/><path class="cls-1" d="M168.58,45.54c0-4.21,3.01-5.58,6.58-6.42l6.18-1.44v-.44c0-2.13-1.4-3.45-3.57-3.45s-3.45,1.2-3.89,3.13l-4.41-.52c.68-3.81,3.89-6.26,8.51-6.26,5.06,0,8.35,3.17,8.35,7.83v8.39c0,.52.16.72.52.72h1.12v3.93h-3.01c-1.97,0-2.81-.6-2.81-2.25,0-.48.08-1.08.28-1.81l-.44-.12c-1.44,3.09-3.57,4.49-6.66,4.49-4.05,0-6.74-2.25-6.74-5.78ZM176.65,47.67c2.77,0,4.7-2.01,4.7-5.18v-1.56l-4.53,1.08c-2.25.52-3.21,1.28-3.21,3.05,0,1.61,1.2,2.61,3.05,2.61Z"/><path class="cls-1" d="M196.43,51h-5.02v-20.43h4.9v.84c0,1.08-.08,1.81-.36,3.29l.48.12c1.24-2.97,3.17-4.69,6.66-4.69,4.45,0,6.82,2.81,6.82,7.58v13.28h-5.02v-13.12c0-2.41-1.2-3.77-3.61-3.77-2.69,0-4.86,2.05-4.86,5.74v11.16Z"/><path class="cls-1" d="M216.37,45.86v-11.28h-3.65v-4.01h3.65v-5.18h5.02v5.18h5.06v4.01h-5.06v10.67c0,1.28.48,1.77,1.52,1.77h3.53v3.97h-4.45c-3.93,0-5.62-1.56-5.62-5.14Z"/></svg>