<?xml version="1.0" encoding="UTF-8"?><svg id="Logos" xmlns="http://www.w3.org/2000/svg" width="418.24" height="72" viewBox="0 0 418.24 72"><defs><style>.cls-1{fill:#e03875;fill-rule:evenodd;}.cls-1,.cls-2{stroke-width:0px;}.cls-2{fill:#fff;}</style></defs><path class="cls-1" d="M66.09,7.35c-.07-.85-.2-1.38-.41-1.8-.43-.84-1.11-1.52-1.95-1.95-.42-.21-.95-.34-1.8-.41-.87-.07-1.97-.07-3.53-.07H10.04c-1.56,0-2.66,0-3.53.07-.85.07-1.38.2-1.8.41-.84.43-1.52,1.11-1.95,1.95-.21.42-.34.95-.41,1.8-.07.87-.07,1.97-.07,3.53v48.36c0,1.56,0,2.66.07,3.53.07.85.2,1.38.41,1.8.43.84,1.11,1.52,1.95,1.95.42.21.95.34,1.8.41.87.07,1.97.08,3.53.08h48.36c1.56,0,2.66-.01,3.53-.08.85-.07,1.38-.2,1.8-.41.84-.43,1.52-1.11,1.95-1.95.21-.42.34-.95.41-1.8.07-.87.08-1.97.08-3.53V10.88c0-1.56-.01-2.66-.08-3.53ZM48.99,27.53c.06-.31.21-.59.43-.81.22-.22.5-.37.81-.43.31-.06.62-.03.91.09.29.12.53.32.71.58.17.26.27.56.27.88,0,.42-.17.82-.46,1.11-.29.3-.69.46-1.11.46-.31,0-.62-.09-.88-.26-.26-.17-.46-.42-.58-.71-.12-.29-.15-.6-.09-.91ZM48.88,32.43c.17.26.27.56.27.88,0,.42-.17.82-.46,1.11-.3.3-.7.46-1.11.46-.31,0-.62-.09-.87-.27-.26-.17-.46-.42-.58-.71s-.15-.6-.09-.91c.06-.31.21-.59.43-.81.22-.22.5-.37.81-.43.31-.06.62-.03.91.09.29.12.53.32.71.58ZM34.98,54.99c-3.13,0-6.21-.76-8.98-2.21-2.76-1.46-5.13-3.57-6.9-6.16-1.77-2.58-2.87-5.55-3.23-8.66-.36-3.11.05-6.25,1.19-9.17,1.13-2.91,2.96-5.5,5.33-7.55,2.36-2.05,5.19-3.49,8.24-4.19,3.05-.71,6.22-.66,9.24.14,3.03.8,5.81,2.33,8.11,4.44l-4.56,4.78c-1.81-1.64-4.06-2.72-6.48-3.1-2.41-.39-4.88-.07-7.11.93-2.24.99-4.13,2.61-5.47,4.66-1.33,2.04-2.04,4.43-2.04,6.88s.71,4.83,2.04,6.88c1.34,2.05,3.23,3.67,5.47,4.66,2.23.99,4.7,1.32,7.11.93,2.42-.38,4.67-1.46,6.48-3.1l4.56,4.77c-3.54,3.27-8.18,5.08-13,5.07ZM39,35.78c0,1.1-.44,2.15-1.21,2.93-.78.78-1.83,1.22-2.93,1.23-.83,0-1.64-.24-2.32-.7-.69-.45-1.23-1.1-1.54-1.86-.32-.76-.41-1.6-.25-2.41.16-.81.56-1.55,1.14-2.14.58-.58,1.32-.98,2.13-1.14.81-.16,1.65-.08,2.41.23.76.32,1.41.85,1.87,1.54.46.69.7,1.49.7,2.32ZM47.57,39.82c-.31,0-.62-.09-.88-.27-.26-.17-.46-.42-.58-.71-.12-.29-.15-.61-.09-.91.06-.31.21-.59.44-.81.22-.22.5-.37.81-.43.31-.06.62-.03.91.1.29.12.53.33.7.59s.26.57.26.88c0,.41-.17.81-.47,1.1-.29.29-.69.46-1.11.46ZM51.56,44.92c-.3.3-.7.46-1.11.46-.31,0-.62-.09-.88-.27-.26-.17-.46-.42-.58-.71-.12-.29-.15-.6-.09-.91.06-.31.21-.59.43-.81.22-.22.5-.37.81-.43.31-.06.62-.03.91.09.29.12.53.32.71.58.17.26.27.56.27.87,0,.42-.17.82-.46,1.11ZM53.36,39.55c-.3.3-.7.46-1.11.46-.31,0-.62-.09-.88-.27-.26-.17-.46-.42-.58-.71-.12-.29-.15-.6-.09-.91.06-.31.21-.59.43-.81.22-.22.5-.37.81-.43.31-.06.62-.03.91.09.29.12.53.32.71.58.17.26.27.56.27.88,0,.42-.17.82-.46,1.11ZM53.36,34.24c-.3.3-.7.46-1.11.46-.31,0-.62-.09-.88-.27-.26-.17-.46-.42-.58-.71-.12-.29-.15-.6-.09-.91.06-.31.21-.59.43-.81.22-.22.5-.37.81-.43.31-.06.62-.03.91.09.29.12.53.32.71.58s.27.56.27.88c0,.42-.17.82-.46,1.11Z"/><path class="cls-2" d="M86.87,36.96c0-8.43,5.5-14.53,13.52-14.53,6.66,0,11.28,3.89,12.56,9.23l-5.1,1.2c-1.04-3.77-3.53-5.94-7.46-5.94-5.02,0-8.19,4.17-8.19,10.03s3.29,10.03,8.35,10.03c4.01,0,6.46-2.21,7.5-6.22l4.86.56c-1.24,6.26-5.9,10.15-12.44,10.15-8.03,0-13.6-6.1-13.6-14.53Z"/><path class="cls-2" d="M115.48,40.81c0-6.22,4.29-10.67,10.35-10.67s10.39,4.46,10.39,10.67-4.37,10.63-10.39,10.63-10.35-4.41-10.35-10.63ZM131.21,40.81c0-3.93-2.13-6.58-5.38-6.58s-5.38,2.65-5.38,6.58,2.17,6.58,5.38,6.58,5.38-2.65,5.38-6.58Z"/><path class="cls-2" d="M144.94,51.01h-5.02v-20.43h4.9v.84c0,1.08-.08,1.81-.36,3.29l.48.12c1.24-2.97,3.17-4.7,6.66-4.7,4.45,0,6.82,2.81,6.82,7.58v13.28h-5.02v-13.12c0-2.41-1.2-3.77-3.61-3.77-2.69,0-4.86,2.05-4.86,5.74v11.16Z"/><path class="cls-2" d="M161.87,45.47l4.7-.96c.52,2.25,2.33,3.37,4.65,3.37s3.69-1,3.69-2.57c0-1.65-1.57-1.97-4.53-2.53-3.57-.56-8.31-1.2-8.31-6.22,0-3.81,3.25-6.42,8.47-6.42,4.66,0,8.27,1.97,9.11,5.9l-4.74.76c-.48-2.01-2.17-3.09-4.37-3.09-2.41,0-3.61,1.04-3.61,2.41,0,1.65,1.61,2.01,4.54,2.53,3.61.56,8.31,1.24,8.31,6.26,0,3.93-3.21,6.54-8.55,6.54-4.9,0-8.47-1.97-9.35-5.98Z"/><path class="cls-2" d="M196.71,30.58h5.02v20.43h-4.9v-.84c0-1.04.08-1.81.32-3.25l-.44-.16c-1.24,3.01-3.17,4.7-6.66,4.7-4.45,0-6.82-2.77-6.82-7.54v-13.32h5.02v12.88c0,2.69,1.16,4.05,3.73,4.05,2.73,0,4.74-2.09,4.74-5.7v-11.24Z"/><path class="cls-2" d="M212.64,46.07c0,.76.28,1,.84,1h2.45v3.93h-4.7c-2.37,0-3.61-1.28-3.61-3.69v-21.23h-2.97v-3.97h7.99v23.96Z"/><path class="cls-2" d="M227.36,22.92h19.42v4.37h-14.29v7.3h11.24v4.37h-11.24v7.67h14.29v4.37h-19.42v-28.09Z"/><path class="cls-2" d="M255.77,51.01h-5.02v-20.43h4.9v.84c0,1.08-.08,1.81-.36,3.29l.48.12c1.24-2.97,3.17-4.7,6.66-4.7,4.45,0,6.82,2.81,6.82,7.58v13.28h-5.02v-13.12c0-2.41-1.2-3.77-3.61-3.77-2.69,0-4.86,2.05-4.86,5.74v11.16Z"/><path class="cls-2" d="M275.72,45.87v-11.28h-3.65v-4.01h3.65v-5.18h5.02v5.18h5.06v4.01h-5.06v10.67c0,1.28.48,1.77,1.53,1.77h3.53v3.97h-4.45c-3.93,0-5.62-1.56-5.62-5.14Z"/><path class="cls-2" d="M287.75,40.81c0-6.38,4.25-10.67,9.95-10.67s9.95,4.05,9.95,10.23v1.85h-14.97c.28,3.17,2.13,5.38,5.22,5.38,2.37,0,3.69-1.08,4.49-3.05l4.62.72c-1.12,3.77-4.01,6.18-9.11,6.18-5.94,0-10.15-4.41-10.15-10.63ZM292.77,38.77h9.87c-.36-3.01-2.17-4.78-4.94-4.78-2.61,0-4.49,1.85-4.94,4.78Z"/><path class="cls-2" d="M311.47,30.58h4.66v.84c0,1.12-.04,2.01-.36,3.61l.48.12c.76-2.69,2.17-4.57,5.46-4.57h1.48v4.9h-2.05c-3.01,0-4.66,1.85-4.66,5.22v10.31h-5.02v-20.43Z"/><path class="cls-2" d="M326.04,30.58h4.94v1c0,.92-.08,1.65-.36,3.29l.48.12c1.24-3.29,3.61-4.86,6.62-4.86,5.02,0,8.95,4.09,8.95,10.63s-3.93,10.67-8.95,10.67c-3.01,0-5.26-1.56-6.54-4.86l-.44.16c.24,1.61.32,2.37.32,3.25v9.23h-5.02v-28.65ZM341.69,40.81c0-4.09-2.25-6.58-5.34-6.58s-5.34,2.49-5.34,6.58,2.21,6.58,5.34,6.58,5.34-2.53,5.34-6.58Z"/><path class="cls-2" d="M350.43,30.58h4.66v.84c0,1.12-.04,2.01-.36,3.61l.48.12c.76-2.69,2.17-4.57,5.46-4.57h1.48v4.9h-2.05c-3.01,0-4.66,1.85-4.66,5.22v10.31h-5.02v-20.43Z"/><path class="cls-2" d="M371.42,51.01h-5.02v-16.41h-2.93v-4.01h7.95v20.43ZM365.68,25.08c0-1.69,1.41-3.09,3.05-3.09,1.73,0,3.09,1.41,3.09,3.09s-1.36,3.13-3.09,3.13-3.05-1.36-3.05-3.13Z"/><path class="cls-2" d="M375.55,45.47l4.7-.96c.52,2.25,2.33,3.37,4.66,3.37s3.69-1,3.69-2.57c0-1.65-1.57-1.97-4.54-2.53-3.57-.56-8.31-1.2-8.31-6.22,0-3.81,3.25-6.42,8.47-6.42,4.66,0,8.27,1.97,9.11,5.9l-4.74.76c-.48-2.01-2.17-3.09-4.38-3.09-2.41,0-3.61,1.04-3.61,2.41,0,1.65,1.61,2.01,4.54,2.53,3.61.56,8.31,1.24,8.31,6.26,0,3.93-3.21,6.54-8.55,6.54-4.9,0-8.47-1.97-9.35-5.98Z"/><path class="cls-2" d="M396.06,40.81c0-6.38,4.25-10.67,9.95-10.67s9.95,4.05,9.95,10.23v1.85h-14.97c.28,3.17,2.13,5.38,5.22,5.38,2.37,0,3.69-1.08,4.49-3.05l4.62.72c-1.12,3.77-4.01,6.18-9.11,6.18-5.94,0-10.15-4.41-10.15-10.63ZM401.08,38.77h9.87c-.36-3.01-2.17-4.78-4.94-4.78-2.61,0-4.49,1.85-4.94,4.78Z"/></svg>