<?xml version="1.0" encoding="UTF-8"?><svg id="Logos" xmlns="http://www.w3.org/2000/svg" width="314.87" height="72" viewBox="0 0 314.87 72"><defs><style>.cls-1{fill:#000;}.cls-1,.cls-2{stroke-width:0px;}.cls-2{fill:#1868f2;}</style></defs><path class="cls-1" d="M88.09,23.03h5.12v11.52h12.48v-11.52h5.12v28h-5.12v-11.84h-12.48v11.84h-5.12v-28Z"/><path class="cls-1" d="M114.85,37.03c0-8.4,5.48-14.48,13.48-14.48,6.64,0,11.24,3.88,12.52,9.2l-5.08,1.2c-1.04-3.76-3.52-5.92-7.44-5.92-5,0-8.16,4.16-8.16,10s3.28,10,8.32,10c4,0,6.44-2.2,7.48-6.2l4.84.56c-1.24,6.24-5.88,10.12-12.4,10.12-8,0-13.56-6.08-13.56-14.48Z"/><path class="cls-1" d="M144.57,23.03h9.88c6.8,0,11.04,3.28,11.04,9.2s-4.24,9.24-11.04,9.24h-4.76v9.56h-5.12v-28ZM154.45,37.19c3.84,0,5.84-1.64,5.84-4.96s-2-4.88-5.84-4.88h-4.76v9.84h4.76Z"/><path class="cls-1" d="M174.25,23.03h5.36l6.64,23.4h1.44l6.6-23.4h5.08l-8.08,28h-8.96l-8.08-28Z"/><path class="cls-1" d="M199.29,45.59c0-4.2,3-5.56,6.56-6.4l6.16-1.44v-.44c0-2.12-1.4-3.44-3.56-3.44s-3.44,1.2-3.88,3.12l-4.4-.52c.68-3.8,3.88-6.24,8.48-6.24,5.04,0,8.32,3.16,8.32,7.8v8.36c0,.52.16.72.52.72h1.12v3.92h-3c-1.96,0-2.8-.6-2.8-2.24,0-.48.08-1.08.28-1.8l-.44-.12c-1.44,3.08-3.56,4.48-6.64,4.48-4.04,0-6.72-2.24-6.72-5.76ZM207.33,47.71c2.76,0,4.68-2,4.68-5.16v-1.56l-4.52,1.08c-2.24.52-3.2,1.28-3.2,3.04,0,1.6,1.2,2.6,3.04,2.6Z"/><path class="cls-1" d="M226.89,44.47l-.48.52c-.48.56-.72.96-.72,1.4,0,.72.56,1.08,1.92,1.08h5.56c4.48,0,7.12,1.96,7.12,5.56s-2.84,6.36-9.64,6.36h-1.92c-5.92,0-8.68-1.68-8.68-4.52,0-2.08,1.68-3.44,3.8-3.64v-.48c-1.8-.36-2.64-1.44-2.64-2.96,0-1.04.52-1.92,1.68-3.24l1.16-1.32c-1.84-1.24-2.88-3.16-2.88-5.44,0-4.2,3.6-7.12,8.8-7.12h10.32v3.8h-1.24c-1.2,0-2.04-.12-3.6-.56l-.2.48c2.08.84,3.12,2.36,3.12,4.36,0,3.6-3.32,6.08-8.4,6.08-1.12,0-2.16-.12-3.08-.36ZM230.89,55.79c3.4,0,4.6-.92,4.6-2.32s-1.04-2.04-3.52-2.04h-3.88c-2.52,0-3.84.72-3.84,2.08s1.24,2.28,4.64,2.28h2ZM233.89,37.87c0-2.12-1.56-3.6-3.92-3.6s-3.96,1.48-3.96,3.6,1.6,3.64,3.96,3.64,3.92-1.52,3.92-3.64Z"/><path class="cls-1" d="M242.97,30.67h4.64v.84c0,1.12-.04,2-.36,3.6l.48.12c.76-2.68,2.16-4.56,5.44-4.56h1.48v4.88h-2.04c-3,0-4.64,1.84-4.64,5.2v10.28h-5v-20.36Z"/><path class="cls-1" d="M255.33,45.59c0-4.2,3-5.56,6.56-6.4l6.16-1.44v-.44c0-2.12-1.4-3.44-3.56-3.44s-3.44,1.2-3.88,3.12l-4.4-.52c.68-3.8,3.88-6.24,8.48-6.24,5.04,0,8.32,3.16,8.32,7.8v8.36c0,.52.16.72.52.72h1.12v3.92h-3c-1.96,0-2.8-.6-2.8-2.24,0-.48.08-1.08.28-1.8l-.44-.12c-1.44,3.08-3.56,4.48-6.64,4.48-4.04,0-6.72-2.24-6.72-5.76ZM263.37,47.71c2.76,0,4.68-2,4.68-5.16v-1.56l-4.52,1.08c-2.24.52-3.2,1.28-3.2,3.04,0,1.6,1.2,2.6,3.04,2.6Z"/><path class="cls-1" d="M282.81,51.03h-5v-20.36h4.88v.84c0,1.08-.08,1.8-.36,3.28l.48.12c1.24-2.96,3.16-4.68,6.64-4.68,4.44,0,6.8,2.8,6.8,7.56v13.24h-5v-13.08c0-2.4-1.2-3.76-3.6-3.76-2.68,0-4.84,2.04-4.84,5.72v11.12Z"/><path class="cls-1" d="M302.41,45.91v-11.24h-3.64v-4h3.64v-5.16h5v5.16h5.04v4h-5.04v10.64c0,1.28.48,1.76,1.52,1.76h3.52v3.96h-4.44c-3.92,0-5.6-1.56-5.6-5.12Z"/><path class="cls-2" d="M59.46,68.98H11.09c-1.56,0-2.7,0-3.61-.07-.96-.08-1.62-.24-2.18-.52-1.04-.53-1.87-1.36-2.4-2.4-.29-.57-.45-1.22-.52-2.18-.07-.92-.07-2.05-.07-3.61V11.81c0-1.56,0-2.69.07-3.61.08-.96.24-1.62.52-2.18.53-1.04,1.36-1.87,2.4-2.4.57-.29,1.22-.45,2.18-.52.92-.07,2.05-.07,3.61-.07h48.38c1.56,0,2.69,0,3.61.07.96.08,1.62.24,2.18.52,1.04.53,1.87,1.36,2.4,2.4.29.57.45,1.22.52,2.18.07.92.07,2.05.07,3.61v48.38c0,1.56,0,2.7-.07,3.61-.08.97-.24,1.62-.52,2.18-.53,1.04-1.36,1.87-2.4,2.4-.57.29-1.22.45-2.18.52-.92.07-2.05.07-3.61.07ZM11.09,5.76c-1.5,0-2.58,0-3.39.07-.56.05-.94.12-1.16.23-.52.27-.94.68-1.2,1.2-.11.22-.19.6-.23,1.16-.07.81-.07,1.89-.07,3.39v48.38c0,1.44,0,2.58.07,3.39.05.56.12.94.23,1.16.27.52.68.94,1.2,1.2.22.11.6.19,1.16.23.8.07,1.89.07,3.39.07h48.38c1.5,0,2.58,0,3.39-.07.56-.05.94-.12,1.16-.23.52-.27.94-.68,1.2-1.2.11-.22.19-.6.23-1.16.07-.8.07-1.89.07-3.39V11.81c0-1.5,0-2.58-.07-3.39-.05-.56-.12-.94-.23-1.16-.27-.52-.68-.94-1.2-1.2-.22-.11-.6-.19-1.16-.23-.81-.07-1.94-.07-3.39-.07H11.09Z"/><polygon class="cls-2" points="41.19 20.61 41.19 29.09 36.36 38.9 42.18 50.72 52.83 29.09 52.83 20.61 41.19 20.61"/><polygon class="cls-2" points="29.55 20.61 17.91 20.61 17.91 29.09 29.55 52.73 41.19 52.73 29.55 29.09 29.55 20.61"/></svg>