<?xml version="1.0" encoding="UTF-8"?><svg id="Logos" xmlns="http://www.w3.org/2000/svg" width="466.07" height="72" viewBox="0 0 466.07 72"><defs><style>.cls-1,.cls-2,.cls-3{stroke-width:0px;}.cls-1,.cls-3{fill:#02a8ef;}.cls-2{fill:#fff;}.cls-3{fill-rule:evenodd;}</style></defs><path class="cls-3" d="M31.88,14.27l18.6,10.8v39.7l-18.6-10.8V14.27Z"/><path class="cls-1" d="M59.68,18.87l-20.2-11.6v8.1l13.7,8v24.3l6.5,3.7c4,2.3,7.3,1,7.3-3.1v-17.9c-.1-4-3.4-9.2-7.3-11.5Z"/><path class="cls-2" d="M88.08,22.92h9.91c6.82,0,11.08,3.29,11.08,9.23s-4.25,9.27-11.08,9.27h-4.78v9.59h-5.14v-28.09ZM97.99,37.12c3.85,0,5.86-1.65,5.86-4.98s-2.01-4.9-5.86-4.9h-4.78v9.87h4.78Z"/><path class="cls-2" d="M110.67,45.55c0-4.21,3.01-5.58,6.58-6.42l6.18-1.44v-.44c0-2.13-1.4-3.45-3.57-3.45s-3.45,1.2-3.89,3.13l-4.41-.52c.68-3.81,3.89-6.26,8.51-6.26,5.06,0,8.35,3.17,8.35,7.83v8.39c0,.52.16.72.52.72h1.12v3.93h-3.01c-1.97,0-2.81-.6-2.81-2.25,0-.48.08-1.08.28-1.81l-.44-.12c-1.44,3.09-3.57,4.5-6.66,4.5-4.05,0-6.74-2.25-6.74-5.78ZM118.73,47.68c2.77,0,4.7-2.01,4.7-5.18v-1.56l-4.53,1.08c-2.25.52-3.21,1.28-3.21,3.05,0,1.61,1.2,2.61,3.05,2.61Z"/><path class="cls-2" d="M132.5,40.81c0-6.14,4.29-10.67,10.19-10.67,4.98,0,8.23,2.77,9.35,6.5l-4.74,1.28c-.72-2.45-2.33-3.69-4.66-3.69-3.09,0-5.18,2.65-5.18,6.58s2.09,6.58,5.3,6.58c2.57,0,4.21-1.4,4.9-3.93l4.41.48c-1.2,4.7-4.33,7.5-9.43,7.5-5.82,0-10.15-4.53-10.15-10.63Z"/><path class="cls-2" d="M155.53,22.11h5.02v16.49h2.09l5.86-8.03h5.18l-7.14,9.67,8.19,10.75h-5.7l-6.34-8.43h-2.13v8.43h-5.02v-28.89Z"/><path class="cls-2" d="M174.67,40.81c0-6.38,4.25-10.67,9.95-10.67s9.95,4.05,9.95,10.23v1.85h-14.97c.28,3.17,2.13,5.38,5.22,5.38,2.37,0,3.69-1.08,4.49-3.05l4.61.72c-1.12,3.77-4.01,6.18-9.11,6.18-5.94,0-10.15-4.41-10.15-10.63ZM179.69,38.77h9.87c-.36-3.01-2.17-4.78-4.94-4.78-2.61,0-4.49,1.85-4.94,4.78Z"/><path class="cls-2" d="M198.39,30.58h4.66v.84c0,1.12-.04,2.01-.36,3.61l.48.12c.76-2.69,2.17-4.57,5.46-4.57h1.48v4.9h-2.05c-3.01,0-4.65,1.85-4.65,5.22v10.31h-5.02v-20.43Z"/><path class="cls-2" d="M219.66,36.96c0-8.43,5.5-14.53,13.52-14.53,6.66,0,11.28,3.89,12.56,9.23l-5.1,1.2c-1.04-3.77-3.53-5.94-7.46-5.94-5.02,0-8.19,4.17-8.19,10.03s3.29,10.03,8.35,10.03c4.01,0,6.46-2.21,7.5-6.22l4.86.56c-1.24,6.26-5.9,10.15-12.44,10.15-8.03,0-13.6-6.1-13.6-14.53Z"/><path class="cls-2" d="M248.27,40.81c0-6.22,4.29-10.67,10.35-10.67s10.39,4.45,10.39,10.67-4.37,10.63-10.39,10.63-10.35-4.41-10.35-10.63ZM264,40.81c0-3.93-2.13-6.58-5.38-6.58s-5.38,2.65-5.38,6.58,2.17,6.58,5.38,6.58,5.38-2.65,5.38-6.58Z"/><path class="cls-2" d="M272.71,30.58h4.9v.88c0,1.08-.08,1.81-.36,3.25l.48.12c1.04-3.17,3.09-4.7,6.3-4.7s5.38,1.48,6.14,4.62h.44c1.08-3.09,3.13-4.62,6.18-4.62,4.21,0,6.46,2.73,6.46,7.42v13.44h-4.74v-13.28c0-2.33-1.16-3.61-3.25-3.61-2.73,0-4.66,2.29-4.66,5.66v11.24h-5.02v-13.28c0-2.33-1.12-3.61-3.21-3.61-2.69,0-4.65,2.29-4.65,5.66v11.24h-5.02v-20.43Z"/><path class="cls-2" d="M307.78,30.58h4.9v.88c0,1.08-.08,1.81-.36,3.25l.48.12c1.04-3.17,3.09-4.7,6.3-4.7s5.38,1.48,6.14,4.62h.44c1.08-3.09,3.13-4.62,6.18-4.62,4.21,0,6.46,2.73,6.46,7.42v13.44h-4.74v-13.28c0-2.33-1.16-3.61-3.25-3.61-2.73,0-4.66,2.29-4.66,5.66v11.24h-5.02v-13.28c0-2.33-1.12-3.61-3.21-3.61-2.69,0-4.65,2.29-4.65,5.66v11.24h-5.02v-20.43Z"/><path class="cls-2" d="M356.17,30.58h5.02v20.43h-4.9v-.84c0-1.04.08-1.81.32-3.25l-.44-.16c-1.24,3.01-3.17,4.7-6.66,4.7-4.45,0-6.82-2.77-6.82-7.54v-13.32h5.02v12.88c0,2.69,1.16,4.05,3.73,4.05,2.73,0,4.74-2.09,4.74-5.7v-11.24Z"/><path class="cls-2" d="M370.94,51.01h-5.02v-20.43h4.9v.84c0,1.08-.08,1.81-.36,3.29l.48.12c1.24-2.97,3.17-4.7,6.66-4.7,4.45,0,6.82,2.81,6.82,7.58v13.28h-5.02v-13.12c0-2.41-1.2-3.77-3.61-3.77-2.69,0-4.86,2.05-4.86,5.74v11.16Z"/><path class="cls-2" d="M395.22,51.01h-5.02v-16.41h-2.93v-4.01h7.95v20.43ZM389.48,25.08c0-1.69,1.4-3.09,3.05-3.09,1.73,0,3.09,1.4,3.09,3.09s-1.36,3.13-3.09,3.13-3.05-1.36-3.05-3.13Z"/><path class="cls-2" d="M402.32,45.87v-11.28h-3.65v-4.01h3.65v-5.18h5.02v5.18h5.06v4.01h-5.06v10.67c0,1.28.48,1.77,1.52,1.77h3.53v3.97h-4.46c-3.93,0-5.62-1.56-5.62-5.14Z"/><path class="cls-2" d="M417.65,55.26h2.97c1.32,0,1.85-.4,2.25-1.61l.8-2.65h-3.69l-5.86-20.43h5.22l4.66,16.45h.68l4.58-16.45h4.94l-6.86,23.64c-1,3.49-2.37,5.02-6.34,5.02h-3.33v-3.97Z"/></svg>