<?xml version="1.0" encoding="UTF-8"?><svg id="Logos" xmlns="http://www.w3.org/2000/svg" width="241.99" height="72" viewBox="0 0 241.99 72"><defs><style>.cls-1,.cls-2,.cls-3{stroke-width:0px;}.cls-1,.cls-3{fill:#02a8ef;}.cls-2{fill:#fff;}.cls-3{fill-rule:evenodd;}</style></defs><path class="cls-2" d="M88.08,22.92h9.91c6.82,0,11.08,3.29,11.08,9.23s-4.25,9.27-11.08,9.27h-4.78v9.59h-5.14v-28.09ZM97.99,37.12c3.85,0,5.86-1.65,5.86-4.98s-2.01-4.9-5.86-4.9h-4.78v9.87h4.78Z"/><path class="cls-2" d="M110.67,45.55c0-4.21,3.01-5.58,6.58-6.42l6.18-1.44v-.44c0-2.13-1.4-3.45-3.57-3.45s-3.45,1.2-3.89,3.13l-4.41-.52c.68-3.81,3.89-6.26,8.51-6.26,5.06,0,8.35,3.17,8.35,7.83v8.39c0,.52.16.72.52.72h1.12v3.93h-3.01c-1.97,0-2.81-.6-2.81-2.25,0-.48.08-1.08.28-1.81l-.44-.12c-1.44,3.09-3.57,4.5-6.66,4.5-4.05,0-6.74-2.25-6.74-5.78ZM118.73,47.68c2.77,0,4.7-2.01,4.7-5.18v-1.56l-4.53,1.08c-2.25.52-3.21,1.28-3.21,3.05,0,1.61,1.2,2.61,3.05,2.61Z"/><path class="cls-2" d="M132.5,40.81c0-6.14,4.29-10.67,10.19-10.67,4.98,0,8.23,2.77,9.35,6.5l-4.74,1.28c-.72-2.45-2.33-3.69-4.66-3.69-3.09,0-5.18,2.65-5.18,6.58s2.09,6.58,5.3,6.58c2.57,0,4.21-1.4,4.9-3.93l4.41.48c-1.2,4.7-4.33,7.5-9.43,7.5-5.82,0-10.15-4.53-10.15-10.63Z"/><path class="cls-2" d="M155.53,22.11h5.02v16.49h2.09l5.86-8.03h5.18l-7.14,9.67,8.19,10.75h-5.7l-6.34-8.43h-2.13v8.43h-5.02v-28.89Z"/><path class="cls-2" d="M174.67,40.81c0-6.38,4.25-10.67,9.95-10.67s9.95,4.05,9.95,10.23v1.85h-14.97c.28,3.17,2.13,5.38,5.22,5.38,2.37,0,3.69-1.08,4.49-3.05l4.61.72c-1.12,3.77-4.01,6.18-9.11,6.18-5.94,0-10.15-4.41-10.15-10.63ZM179.69,38.77h9.87c-.36-3.01-2.17-4.78-4.94-4.78-2.61,0-4.49,1.85-4.94,4.78Z"/><path class="cls-2" d="M198.39,30.58h4.66v.84c0,1.12-.04,2.01-.36,3.61l.48.12c.76-2.69,2.17-4.57,5.46-4.57h1.48v4.9h-2.05c-3.01,0-4.65,1.85-4.65,5.22v10.31h-5.02v-20.43Z"/><path class="cls-3" d="M31.88,14.27l18.6,10.8v39.7l-18.6-10.8V14.27Z"/><path class="cls-1" d="M59.68,18.87l-20.2-11.6v8.1l13.7,8v24.3l6.5,3.7c4,2.3,7.3,1,7.3-3.1v-17.9c-.1-4-3.4-9.2-7.3-11.5Z"/></svg>