<?xml version="1.0" encoding="UTF-8"?><svg id="Logos" xmlns="http://www.w3.org/2000/svg" width="278.18" height="72" viewBox="0 0 278.18 72"><defs><style>.cls-1{fill:#a067da;fill-rule:evenodd;}.cls-1,.cls-2{stroke-width:0px;}.cls-2{fill:#fff;}</style></defs><path class="cls-1" d="M33.19,17.6l15.5,9v18l-15.5-9v-18Z"/><path class="cls-1" d="M50.49,26.6v18l15.5-9v-18l-15.5,9Z"/><path class="cls-1" d="M15.99,7.5v18l15.5,9v-18L15.99,7.5Z"/><path class="cls-1" d="M33.19,55.5l15.5,9v-17.9l-15.5-9v17.9Z"/><path class="cls-2" d="M84.39,1.86h2.09v4.71h5.1V1.86h2.09v11.45h-2.09v-4.84h-5.1v4.84h-2.09V1.86Z"/><path class="cls-2" d="M94.89,11.09c0-1.72,1.23-2.27,2.68-2.62l2.52-.59v-.18c0-.87-.57-1.41-1.46-1.41s-1.41.49-1.59,1.28l-1.8-.21c.28-1.55,1.59-2.55,3.47-2.55,2.06,0,3.4,1.29,3.4,3.19v3.42c0,.21.07.29.21.29h.46v1.6h-1.23c-.8,0-1.15-.25-1.15-.92,0-.2.03-.44.11-.74l-.18-.05c-.59,1.26-1.46,1.83-2.72,1.83-1.65,0-2.75-.92-2.75-2.36ZM98.18,11.95c1.13,0,1.91-.82,1.91-2.11v-.64l-1.85.44c-.92.21-1.31.52-1.31,1.24,0,.65.49,1.06,1.24,1.06Z"/><path class="cls-2" d="M103.4,11.05l1.91-.39c.21.92.95,1.37,1.9,1.37s1.5-.41,1.5-1.05c0-.67-.64-.8-1.85-1.03-1.46-.23-3.39-.49-3.39-2.54,0-1.55,1.32-2.62,3.45-2.62,1.9,0,3.37.8,3.71,2.4l-1.93.31c-.2-.82-.88-1.26-1.78-1.26-.98,0-1.47.43-1.47.98,0,.67.65.82,1.85,1.03,1.47.23,3.39.51,3.39,2.55,0,1.6-1.31,2.67-3.48,2.67-2,0-3.45-.8-3.81-2.44Z"/><path class="cls-2" d="M113.87,13.31h-2.04V1.53h2.04v3.7c0,.43-.08.83-.2,1.44l.2.05c.51-1.21,1.29-1.91,2.72-1.91,1.82,0,2.78,1.15,2.78,3.09v5.41h-2.04v-5.35c0-.98-.49-1.54-1.47-1.54-1.1,0-1.98.83-1.98,2.34v4.55Z"/><path class="cls-2" d="M123.51,11.27c0,.33.11.41.36.41h.95v1.64h-1.88c-.97,0-1.47-.52-1.47-1.5v-5.19h-1.19v-1.64h3.24v6.28ZM121.17,2.74c0-.69.57-1.26,1.24-1.26.7,0,1.26.57,1.26,1.26s-.56,1.28-1.26,1.28-1.24-.56-1.24-1.28Z"/><path class="cls-2" d="M125.36,7.59c0-3.44,2.24-5.92,5.51-5.92,2.72,0,4.6,1.59,5.12,3.76l-2.08.49c-.43-1.54-1.44-2.42-3.04-2.42-2.04,0-3.34,1.7-3.34,4.09s1.34,4.09,3.4,4.09c1.64,0,2.63-.9,3.06-2.54l1.98.23c-.51,2.55-2.4,4.14-5.07,4.14-3.27,0-5.55-2.49-5.55-5.92Z"/><path class="cls-2" d="M136.68,9.16c0-2.54,1.75-4.35,4.22-4.35s4.24,1.82,4.24,4.35-1.78,4.33-4.24,4.33-4.22-1.8-4.22-4.33ZM143.09,9.16c0-1.6-.87-2.68-2.19-2.68s-2.19,1.08-2.19,2.68.88,2.68,2.19,2.68,2.19-1.08,2.19-2.68Z"/><path class="cls-2" d="M146.3,4.99h1.9v.34c0,.46-.02.82-.15,1.47l.2.05c.31-1.1.88-1.86,2.22-1.86h.61v2h-.83c-1.23,0-1.9.75-1.9,2.13v4.2h-2.04V4.99Z"/><path class="cls-2" d="M151.89,4.99h2.01v.41c0,.38-.03.67-.15,1.34l.2.05c.51-1.34,1.47-1.98,2.7-1.98,2.04,0,3.65,1.67,3.65,4.33s-1.6,4.35-3.65,4.35c-1.23,0-2.14-.64-2.67-1.98l-.18.07c.1.65.13.96.13,1.33v3.76h-2.04V4.99ZM158.27,9.16c0-1.67-.92-2.68-2.18-2.68s-2.18,1.01-2.18,2.68.9,2.68,2.18,2.68,2.18-1.03,2.18-2.68Z"/><path class="cls-2" d="M92.86,27.28h-8.99v-4.37h23.16v4.37h-8.95v23.72h-5.22v-23.72Z"/><path class="cls-2" d="M105.7,40.81c0-6.38,4.25-10.67,9.95-10.67s9.95,4.05,9.95,10.23v1.85h-14.97c.28,3.17,2.13,5.38,5.22,5.38,2.37,0,3.69-1.08,4.49-3.05l4.61.72c-1.12,3.77-4.01,6.18-9.11,6.18-5.94,0-10.15-4.41-10.15-10.63ZM110.72,38.76h9.87c-.36-3.01-2.17-4.78-4.94-4.78-2.61,0-4.49,1.85-4.94,4.78Z"/><path class="cls-2" d="M129.42,30.57h4.66v.84c0,1.12-.04,2.01-.36,3.61l.48.12c.76-2.69,2.17-4.57,5.46-4.57h1.48v4.9h-2.05c-3.01,0-4.66,1.85-4.66,5.22v10.31h-5.02v-20.43Z"/><path class="cls-2" d="M143.98,30.57h4.66v.84c0,1.12-.04,2.01-.36,3.61l.48.12c.76-2.69,2.17-4.57,5.46-4.57h1.48v4.9h-2.05c-3.01,0-4.66,1.85-4.66,5.22v10.31h-5.02v-20.43Z"/><path class="cls-2" d="M156.66,45.54c0-4.21,3.01-5.58,6.58-6.42l6.18-1.44v-.44c0-2.13-1.4-3.45-3.57-3.45s-3.45,1.2-3.89,3.13l-4.41-.52c.68-3.81,3.89-6.26,8.51-6.26,5.06,0,8.35,3.17,8.35,7.83v8.39c0,.52.16.72.52.72h1.12v3.93h-3.01c-1.97,0-2.81-.6-2.81-2.25,0-.48.08-1.08.28-1.81l-.44-.12c-1.44,3.09-3.57,4.49-6.66,4.49-4.05,0-6.74-2.25-6.74-5.78ZM164.73,47.67c2.77,0,4.7-2.01,4.7-5.18v-1.56l-4.53,1.08c-2.25.52-3.21,1.28-3.21,3.05,0,1.61,1.2,2.61,3.05,2.61Z"/><path class="cls-2" d="M181.38,34.59h-3.69v-4.01h3.69v-3.17c0-3.69,1.73-5.3,5.74-5.3h4.53v3.97h-3.65c-1.2,0-1.69.56-1.69,1.89v2.61h4.78v4.01h-4.7v16.41h-5.02v-16.41Z"/><path class="cls-2" d="M192.66,40.81c0-6.22,4.29-10.67,10.35-10.67s10.39,4.45,10.39,10.67-4.37,10.63-10.39,10.63-10.35-4.41-10.35-10.63ZM208.39,40.81c0-3.93-2.13-6.58-5.38-6.58s-5.38,2.65-5.38,6.58,2.17,6.58,5.38,6.58,5.38-2.65,5.38-6.58Z"/><path class="cls-2" d="M217.1,30.57h4.66v.84c0,1.12-.04,2.01-.36,3.61l.48.12c.76-2.69,2.17-4.57,5.46-4.57h1.48v4.9h-2.05c-3.01,0-4.65,1.85-4.65,5.22v10.31h-5.02v-20.43Z"/><path class="cls-2" d="M231.66,30.57h4.9v.88c0,1.08-.08,1.81-.36,3.25l.48.12c1.04-3.17,3.09-4.69,6.3-4.69s5.38,1.48,6.14,4.61h.44c1.08-3.09,3.13-4.61,6.18-4.61,4.21,0,6.46,2.73,6.46,7.42v13.44h-4.74v-13.28c0-2.33-1.16-3.61-3.25-3.61-2.73,0-4.65,2.29-4.65,5.66v11.24h-5.02v-13.28c0-2.33-1.12-3.61-3.21-3.61-2.69,0-4.65,2.29-4.65,5.66v11.24h-5.02v-20.43Z"/></svg>