<?xml version="1.0" encoding="UTF-8"?><svg id="Logos" xmlns="http://www.w3.org/2000/svg" width="418.55" height="72" viewBox="0 0 418.55 72"><defs><style>.cls-1{fill:#000;}.cls-1,.cls-2{stroke-width:0px;}.cls-2{fill:#ffcf25;}</style></defs><path class="cls-1" d="M86.14,22.93h5.57l6.5,23.26h1.48l6.46-23.26h5.29l-7.98,28.07h-9.34l-7.98-28.07Z"/><path class="cls-1" d="M111.28,45.55c0-4.21,2.97-5.61,6.58-6.46l6.1-1.4v-.48c0-2.04-1.32-3.33-3.45-3.33s-3.37,1.16-3.77,3.09l-4.57-.52c.68-3.85,3.93-6.34,8.54-6.34,5.09,0,8.42,3.21,8.42,7.9v8.22c0,.52.16.68.52.68h1.12v4.09h-3.13c-1.96,0-2.85-.64-2.85-2.25,0-.48.08-1.04.28-1.76l-.44-.16c-1.44,3.13-3.57,4.49-6.58,4.49-4.13,0-6.78-2.29-6.78-5.77ZM119.42,47.55c2.65,0,4.53-1.92,4.53-4.97v-1.6l-4.37,1.04c-2.21.52-3.13,1.28-3.13,2.97s1.16,2.57,2.97,2.57Z"/><path class="cls-1" d="M147.05,30.59h5.21v20.41h-5.09v-.8c0-1.04.08-1.8.32-3.29l-.44-.12c-1.24,2.97-3.17,4.69-6.66,4.69-4.45,0-6.78-2.81-6.78-7.58v-13.31h5.21v12.87c0,2.61,1.12,3.89,3.61,3.89,2.65,0,4.61-2.01,4.61-5.57v-11.19Z"/><path class="cls-1" d="M162.93,45.91c0,.76.28,1,.84,1h2.37v4.09h-4.81c-2.37,0-3.61-1.32-3.61-3.77v-20.97h-2.89v-4.13h8.1v23.78Z"/><path class="cls-1" d="M169.99,45.83v-11.11h-3.61v-4.13h3.61v-5.17h5.21v5.17h4.97v4.13h-4.97v10.47c0,1.24.44,1.68,1.44,1.68h3.53v4.13h-4.53c-3.97,0-5.65-1.6-5.65-5.17Z"/><path class="cls-1" d="M189.67,36.96c0-8.42,5.53-14.52,13.55-14.52,6.74,0,11.35,3.89,12.59,9.18l-5.29,1.28c-1-3.69-3.45-5.77-7.3-5.77-4.89,0-7.98,4.05-7.98,9.82s3.21,9.82,8.18,9.82c3.93,0,6.34-2.13,7.34-6.06l5.01.56c-1.2,6.3-5.85,10.19-12.43,10.19-8.1,0-13.67-6.1-13.67-14.52Z"/><path class="cls-1" d="M217.95,40.77c0-6.22,4.37-10.67,10.43-10.67s10.43,4.45,10.43,10.67-4.37,10.71-10.43,10.71-10.43-4.49-10.43-10.71ZM233.58,40.77c0-3.85-2.04-6.42-5.21-6.42s-5.21,2.57-5.21,6.42,2.09,6.46,5.21,6.46,5.21-2.57,5.21-6.46Z"/><path class="cls-1" d="M242.09,30.59h5.09v.8c0,1.08-.08,1.8-.36,3.25l.48.16c1.04-3.17,3.05-4.69,6.26-4.69s5.37,1.48,6.14,4.61h.48c1.04-3.09,3.09-4.61,6.1-4.61,4.25,0,6.46,2.73,6.46,7.42v13.47h-4.89v-13.27c0-2.25-1.12-3.49-3.17-3.49-2.65,0-4.49,2.21-4.49,5.45v11.31h-5.21v-13.27c0-2.25-1.12-3.49-3.13-3.49-2.65,0-4.53,2.21-4.53,5.45v11.31h-5.21v-20.41Z"/><path class="cls-1" d="M276.85,30.59h5.09v.8c0,1.08-.08,1.8-.36,3.25l.48.16c1.04-3.17,3.05-4.69,6.26-4.69s5.37,1.48,6.14,4.61h.48c1.04-3.09,3.09-4.61,6.1-4.61,4.25,0,6.46,2.73,6.46,7.42v13.47h-4.89v-13.27c0-2.25-1.12-3.49-3.17-3.49-2.65,0-4.49,2.21-4.49,5.45v11.31h-5.21v-13.27c0-2.25-1.12-3.49-3.13-3.49-2.65,0-4.53,2.21-4.53,5.45v11.31h-5.21v-20.41Z"/><path class="cls-1" d="M324.89,30.59h5.21v20.41h-5.09v-.8c0-1.04.08-1.8.32-3.29l-.44-.12c-1.24,2.97-3.17,4.69-6.66,4.69-4.45,0-6.78-2.81-6.78-7.58v-13.31h5.21v12.87c0,2.61,1.12,3.89,3.61,3.89,2.65,0,4.61-2.01,4.61-5.57v-11.19Z"/><path class="cls-1" d="M339.61,51h-5.21v-20.41h5.09v.8c0,1.04-.08,1.76-.36,3.25l.48.16c1.24-2.97,3.13-4.69,6.62-4.69,4.45,0,6.82,2.81,6.82,7.58v13.31h-5.21v-13.15c0-2.33-1.16-3.61-3.49-3.61-2.65,0-4.73,2-4.73,5.53v11.23Z"/><path class="cls-1" d="M363.59,51h-5.21v-16.28h-2.89v-4.13h8.1v20.41ZM357.65,25.13c0-1.76,1.4-3.21,3.13-3.21s3.17,1.44,3.17,3.21-1.4,3.17-3.17,3.17-3.13-1.4-3.13-3.17Z"/><path class="cls-1" d="M370.21,45.83v-11.11h-3.61v-4.13h3.61v-5.17h5.21v5.17h4.97v4.13h-4.97v10.47c0,1.24.44,1.68,1.44,1.68h3.53v4.13h-4.53c-3.97,0-5.65-1.6-5.65-5.17Z"/><path class="cls-1" d="M385.36,55.09h3.05c1.32,0,1.84-.4,2.21-1.56l.76-2.53h-3.81l-5.77-20.41h5.41l4.53,16.32h.68l4.45-16.32h5.13l-6.74,23.58c-1,3.53-2.45,5.05-6.46,5.05h-3.45v-4.13Z"/><path class="cls-2" d="M16.55,10.33l26.46,51.5,26.65-51.5H16.55ZM38.89,30.78h-4.22v-4.21h4.22v4.21ZM38.89,24.46h-4.22v-4.22h4.22v4.22ZM45.22,37.1h-4.22v-4.22h4.22v4.22ZM45.22,30.78h-4.22v-4.21h4.22v4.21ZM45.22,24.46h-4.22v-4.22h4.22v4.22ZM51.5,30.78h-4.22v-4.21h4.22v4.21ZM47.29,24.46v-4.22h4.22v4.22h-4.22Z"/></svg>