<?xml version="1.0" encoding="UTF-8"?><svg id="Logos" xmlns="http://www.w3.org/2000/svg" width="492.81" height="72" viewBox="0 0 492.81 72"><defs><style>.cls-1{fill:#000;}.cls-1,.cls-2{stroke-width:0px;}.cls-2{fill:#e03875;fill-rule:evenodd;}</style></defs><path class="cls-1" d="M88.13,22.86h5.33v11.47h12.23v-11.47h5.37v28.07h-5.37v-11.79h-12.23v11.79h-5.33v-28.07Z"/><path class="cls-1" d="M114.96,36.89c0-8.42,5.53-14.52,13.55-14.52,6.74,0,11.35,3.89,12.59,9.18l-5.29,1.28c-1-3.69-3.45-5.77-7.3-5.77-4.89,0-7.98,4.05-7.98,9.82s3.21,9.83,8.18,9.83c3.93,0,6.34-2.13,7.34-6.06l5.01.56c-1.2,6.3-5.85,10.19-12.43,10.19-8.1,0-13.67-6.09-13.67-14.52Z"/><path class="cls-1" d="M144.71,22.86h10.03c6.86,0,11.15,3.29,11.15,9.3s-4.29,9.3-11.15,9.3h-4.69v9.46h-5.33v-28.07ZM154.73,37.01c3.73,0,5.73-1.6,5.73-4.85s-2.01-4.81-5.73-4.81h-4.69v9.66h4.69Z"/><path class="cls-1" d="M175.63,36.89c0-8.42,5.53-14.52,13.55-14.52,6.74,0,11.35,3.89,12.59,9.18l-5.29,1.28c-1-3.69-3.45-5.77-7.3-5.77-4.89,0-7.98,4.05-7.98,9.82s3.21,9.83,8.18,9.83c3.93,0,6.34-2.13,7.34-6.06l5.01.56c-1.2,6.3-5.85,10.19-12.43,10.19-8.1,0-13.67-6.09-13.67-14.52Z"/><path class="cls-1" d="M203.9,40.7c0-6.21,4.37-10.67,10.43-10.67s10.43,4.45,10.43,10.67-4.37,10.71-10.43,10.71-10.43-4.49-10.43-10.71ZM219.54,40.7c0-3.85-2.04-6.42-5.21-6.42s-5.21,2.57-5.21,6.42,2.09,6.46,5.21,6.46,5.21-2.57,5.21-6.46Z"/><path class="cls-1" d="M233.25,50.93h-5.21v-20.41h5.09v.8c0,1.04-.08,1.76-.36,3.25l.48.16c1.24-2.97,3.13-4.69,6.62-4.69,4.45,0,6.82,2.81,6.82,7.58v13.31h-5.21v-13.15c0-2.33-1.16-3.61-3.49-3.61-2.65,0-4.73,2-4.73,5.53v11.23Z"/><path class="cls-1" d="M249.69,45.4l4.89-.96c.52,2.17,2.25,3.25,4.53,3.25s3.57-.92,3.57-2.49-1.52-1.88-4.41-2.41c-3.65-.56-8.38-1.24-8.38-6.3,0-3.81,3.25-6.46,8.54-6.46,4.69,0,8.34,1.96,9.18,5.93l-4.93.8c-.44-2-2.08-3.05-4.25-3.05-2.37,0-3.49,1-3.49,2.37,0,1.56,1.56,1.88,4.45,2.41,3.61.56,8.34,1.24,8.34,6.3,0,3.97-3.21,6.62-8.62,6.62-4.89,0-8.54-2-9.42-6.01Z"/><path class="cls-1" d="M284.18,30.52h5.21v20.41h-5.09v-.8c0-1.04.08-1.8.32-3.29l-.44-.12c-1.24,2.97-3.17,4.69-6.66,4.69-4.45,0-6.78-2.81-6.78-7.58v-13.31h5.21v12.87c0,2.61,1.12,3.89,3.61,3.89,2.65,0,4.61-2.01,4.61-5.57v-11.19Z"/><path class="cls-1" d="M300.06,45.84c0,.76.28,1,.84,1h2.37v4.09h-4.81c-2.37,0-3.61-1.32-3.61-3.77v-20.97h-2.89v-4.13h8.1v23.78Z"/><path class="cls-1" d="M314.37,22.86h8.78c9.22,0,14.24,6.05,14.24,14.03s-5.01,14.04-14.24,14.04h-8.78v-28.07ZM323.15,48.56c7.82,0,11.51-5.25,11.51-11.67s-3.69-11.67-11.51-11.67h-6.1v23.34h6.1Z"/><path class="cls-1" d="M340.56,40.86c0-6.42,4.17-10.47,9.38-10.47s9.3,3.81,9.3,9.99v1.04h-16.08c.2,4.53,3.01,7.66,6.98,7.66,3.21,0,5.17-1.56,6.18-4.49l2.33.52c-1.24,3.97-4.09,6.22-8.5,6.22-5.57,0-9.58-4.37-9.58-10.47ZM343.24,39.26h13.39c-.4-3.97-3.09-6.62-6.7-6.62s-6.18,2.69-6.7,6.62Z"/><path class="cls-1" d="M362.01,40.86c0-6.1,3.89-10.47,9.22-10.47,3.53,0,5.81,1.88,7.22,5.37l.36-.12c-.24-1.64-.32-2.29-.32-3.29v-10.31h2.61v28.87h-2.61v-1.52c0-1,.08-1.68.32-3.33l-.32-.08c-1.44,3.49-3.73,5.33-7.26,5.33-5.33,0-9.22-4.29-9.22-10.47ZM378.45,40.86c0-4.81-2.85-8.18-6.9-8.18s-6.94,3.37-6.94,8.18,2.89,8.22,6.94,8.22,6.9-3.37,6.9-8.22Z"/><path class="cls-1" d="M390.64,50.93h-2.61v-17.88h-3.49v-2.21h6.1v20.09ZM387.27,24.9c0-1.08.88-1.92,1.92-1.92s1.96.84,1.96,1.92-.92,1.96-1.96,1.96-1.92-.84-1.92-1.96Z"/><path class="cls-1" d="M395.33,40.86c0-6.06,3.97-10.47,9.54-10.47,4.17,0,7.38,2.37,8.66,6.1l-2.45.8c-.96-2.93-3.25-4.61-6.22-4.61-4.05,0-6.94,3.41-6.94,8.18s2.89,8.22,6.94,8.22c3.37,0,5.37-1.72,6.3-4.85l2.37.36c-1.2,4.29-4.17,6.74-8.66,6.74-5.53,0-9.54-4.37-9.54-10.47Z"/><path class="cls-1" d="M416.3,45.68c0-4.13,3.21-5.37,6.3-6.13l7.06-1.68v-.56c0-2.73-1.88-4.65-4.93-4.65-2.85,0-4.57,1.56-5.05,4.09l-2.53-.44c.64-3.49,3.45-5.89,7.7-5.89,4.53,0,7.42,2.97,7.42,7.02v10.47c0,.6.16.84.6.84h1.16v2.21h-1.76c-1.64,0-2.49-.56-2.49-2.12,0-.72.12-1.52.32-2.49l-.32-.08c-1.24,3.33-3.41,5.09-7.1,5.09-3.93,0-6.38-2.21-6.38-5.65ZM423.08,49.12c3.81,0,6.58-3.01,6.58-7.74v-1.36l-6.38,1.52c-2.97.72-4.21,1.84-4.21,4.05s1.56,3.53,4.01,3.53Z"/><path class="cls-1" d="M439.68,46.32v-13.27h-4.41v-2.21h4.41v-5.37h2.61v5.37h5.53v2.21h-5.53v13.19c0,1.72.68,2.49,2.12,2.49h3.41v2.21h-3.53c-3.13,0-4.61-1.48-4.61-4.61Z"/><path class="cls-1" d="M449.99,40.86c0-6.42,4.17-10.47,9.38-10.47s9.3,3.81,9.3,9.99v1.04h-16.08c.2,4.53,3.01,7.66,6.98,7.66,3.21,0,5.17-1.56,6.18-4.49l2.33.52c-1.24,3.97-4.09,6.22-8.5,6.22-5.57,0-9.58-4.37-9.58-10.47ZM452.67,39.26h13.39c-.4-3.97-3.09-6.62-6.7-6.62s-6.18,2.69-6.7,6.62Z"/><path class="cls-1" d="M471.44,40.86c0-6.1,3.89-10.47,9.22-10.47,3.53,0,5.81,1.88,7.22,5.37l.36-.12c-.24-1.64-.32-2.29-.32-3.29v-10.31h2.61v28.87h-2.61v-1.52c0-1,.08-1.68.32-3.33l-.32-.08c-1.44,3.49-3.73,5.33-7.26,5.33-5.33,0-9.22-4.29-9.22-10.47ZM487.88,40.86c0-4.81-2.85-8.18-6.9-8.18s-6.94,3.37-6.94,8.18,2.89,8.22,6.94,8.22,6.9-3.37,6.9-8.22Z"/><path class="cls-2" d="M66.09,7.35c-.07-.85-.2-1.38-.41-1.8-.43-.84-1.11-1.52-1.95-1.95-.42-.21-.95-.34-1.8-.41-.87-.07-1.97-.07-3.53-.07H10.04c-1.56,0-2.66,0-3.53.07-.85.07-1.38.2-1.8.41-.84.43-1.52,1.11-1.95,1.95-.21.42-.34.95-.41,1.8-.07.87-.07,1.97-.07,3.53v48.36c0,1.56,0,2.66.07,3.53.07.85.2,1.38.41,1.8.43.84,1.11,1.52,1.95,1.95.42.21.95.34,1.8.41.87.07,1.97.08,3.53.08h48.36c1.56,0,2.66-.01,3.53-.08.85-.07,1.38-.2,1.8-.41.84-.43,1.52-1.11,1.95-1.95.21-.42.34-.95.41-1.8.07-.87.08-1.97.08-3.53V10.88c0-1.56-.01-2.66-.08-3.53ZM48.99,27.53c.06-.31.21-.59.43-.81.22-.22.5-.37.81-.43.31-.06.62-.03.91.09.29.12.53.32.71.58.17.26.27.56.27.88,0,.42-.17.82-.46,1.11-.29.3-.69.46-1.11.46-.31,0-.62-.09-.88-.26-.26-.17-.46-.42-.58-.71-.12-.29-.15-.6-.09-.91ZM48.88,32.43c.17.26.27.56.27.88,0,.42-.17.82-.46,1.11-.3.3-.7.46-1.11.46-.31,0-.62-.09-.87-.27-.26-.17-.46-.42-.58-.71s-.15-.6-.09-.91c.06-.31.21-.59.43-.81.22-.22.5-.37.81-.43.31-.06.62-.03.91.09.29.12.53.32.71.58ZM34.98,54.99c-3.13,0-6.21-.76-8.98-2.21-2.76-1.46-5.13-3.57-6.9-6.16-1.77-2.58-2.87-5.55-3.23-8.66-.36-3.11.05-6.25,1.19-9.17,1.13-2.91,2.96-5.5,5.33-7.55,2.36-2.05,5.19-3.49,8.24-4.19,3.05-.71,6.22-.66,9.24.14,3.03.8,5.81,2.33,8.11,4.44l-4.56,4.78c-1.81-1.64-4.06-2.72-6.48-3.1-2.41-.39-4.88-.07-7.11.93-2.24.99-4.13,2.61-5.47,4.66-1.33,2.04-2.04,4.43-2.04,6.88s.71,4.83,2.04,6.88c1.34,2.05,3.23,3.67,5.47,4.66,2.23.99,4.7,1.32,7.11.93,2.42-.38,4.67-1.46,6.48-3.1l4.56,4.77c-3.54,3.27-8.18,5.08-13,5.07ZM39,35.78c0,1.1-.44,2.15-1.21,2.93-.78.78-1.83,1.22-2.93,1.23-.83,0-1.64-.24-2.32-.7-.69-.45-1.23-1.1-1.54-1.86-.32-.76-.41-1.6-.25-2.41.16-.81.56-1.55,1.14-2.14.58-.58,1.32-.98,2.13-1.14.81-.16,1.65-.08,2.41.23.76.32,1.41.85,1.87,1.54.46.69.7,1.49.7,2.32ZM47.57,39.82c-.31,0-.62-.09-.88-.27-.26-.17-.46-.42-.58-.71-.12-.29-.15-.61-.09-.91.06-.31.21-.59.44-.81.22-.22.5-.37.81-.43.31-.06.62-.03.91.1.29.12.53.33.7.59s.26.57.26.88c0,.41-.17.81-.47,1.1-.29.29-.69.46-1.11.46ZM51.56,44.92c-.3.3-.7.46-1.11.46-.31,0-.62-.09-.88-.27-.26-.17-.46-.42-.58-.71-.12-.29-.15-.6-.09-.91.06-.31.21-.59.43-.81.22-.22.5-.37.81-.43.31-.06.62-.03.91.09.29.12.53.32.71.58.17.26.27.56.27.87,0,.42-.17.82-.46,1.11ZM53.36,39.55c-.3.3-.7.46-1.11.46-.31,0-.62-.09-.88-.27-.26-.17-.46-.42-.58-.71-.12-.29-.15-.6-.09-.91.06-.31.21-.59.43-.81.22-.22.5-.37.81-.43.31-.06.62-.03.91.09.29.12.53.32.71.58.17.26.27.56.27.88,0,.42-.17.82-.46,1.11ZM53.36,34.24c-.3.3-.7.46-1.11.46-.31,0-.62-.09-.88-.27-.26-.17-.46-.42-.58-.71-.12-.29-.15-.6-.09-.91.06-.31.21-.59.43-.81.22-.22.5-.37.81-.43.31-.06.62-.03.91.09.29.12.53.32.71.58s.27.56.27.88c0,.42-.17.82-.46,1.11Z"/></svg>