<?xml version="1.0" encoding="UTF-8"?><svg id="Logos" xmlns="http://www.w3.org/2000/svg" width="307.72" height="72" viewBox="0 0 307.72 72"><defs><style>.cls-1{fill:#fff;}.cls-1,.cls-2{stroke-width:0px;}.cls-2{fill:#e03875;}</style></defs><path class="cls-2" d="M35.73,54.99c-3.13,0-6.21-.76-8.98-2.22-2.77-1.46-5.14-3.57-6.9-6.15-1.77-2.58-2.88-5.56-3.23-8.66-.36-3.11.05-6.25,1.19-9.17,1.14-2.91,2.97-5.51,5.33-7.55,2.37-2.05,5.19-3.49,8.24-4.19,3.05-.71,6.22-.66,9.24.14,3.02.8,5.81,2.32,8.11,4.44h0l-4.56,4.77c-1.81-1.64-4.06-2.71-6.48-3.1-2.41-.39-4.89-.06-7.12.93-2.23.99-4.13,2.61-5.46,4.66-1.33,2.05-2.04,4.44-2.04,6.88s.71,4.83,2.04,6.88c1.33,2.05,3.23,3.67,5.46,4.66,2.23.99,4.71,1.31,7.12.93,2.41-.39,4.66-1.46,6.48-3.1l4.56,4.77c-3.54,3.26-8.19,5.07-13,5.07h0Z"/><path class="cls-2" d="M51.19,45.38c-.31,0-.62-.09-.88-.27-.26-.17-.46-.42-.58-.71-.12-.29-.15-.6-.09-.91.06-.31.21-.59.43-.81.22-.22.5-.37.81-.43.31-.06.62-.03.91.09.29.12.53.32.71.58.17.26.27.56.27.87,0,.42-.17.82-.46,1.11-.3.3-.7.46-1.11.46h0Z"/><path class="cls-2" d="M35.61,39.94c-.82,0-1.63-.24-2.32-.69-.69-.46-1.22-1.1-1.54-1.87s-.4-1.6-.24-2.41c.16-.81.55-1.55,1.14-2.14.58-.58,1.32-.98,2.13-1.14.81-.16,1.65-.08,2.41.24.76.32,1.41.85,1.87,1.54.46.69.7,1.49.7,2.32,0,1.1-.44,2.16-1.22,2.94-.78.78-1.83,1.22-2.93,1.23h0Z"/><path class="cls-2" d="M53,40.01c-.31,0-.62-.09-.88-.27-.26-.17-.46-.42-.58-.71-.12-.29-.15-.6-.09-.91.06-.31.21-.59.43-.81.22-.22.5-.37.81-.43.31-.06.62-.03.91.09.29.12.53.32.71.58.17.26.27.56.27.88,0,.42-.17.82-.46,1.11s-.7.46-1.11.46Z"/><path class="cls-2" d="M48.32,39.82c-.31,0-.62-.09-.88-.27-.26-.17-.46-.42-.58-.71-.12-.29-.15-.61-.09-.91.06-.31.21-.59.44-.81.22-.22.5-.37.81-.43.31-.06.62-.03.91.1.29.12.53.33.7.59.17.26.26.57.26.88,0,.41-.17.81-.47,1.1-.29.29-.69.46-1.11.46h0Z"/><path class="cls-2" d="M53,34.7c-.31,0-.62-.09-.88-.27-.26-.17-.46-.42-.58-.71-.12-.29-.15-.6-.09-.91.06-.31.21-.59.43-.81.22-.22.5-.37.81-.43.31-.06.62-.03.91.09.29.12.53.32.71.58.17.26.27.56.27.88,0,.42-.17.82-.46,1.11-.3.3-.7.46-1.11.46Z"/><path class="cls-2" d="M48.32,34.88c-.31,0-.62-.09-.87-.27-.26-.17-.46-.42-.58-.71-.12-.29-.15-.6-.09-.91.06-.31.21-.59.43-.81.22-.22.5-.37.81-.43.31-.06.62-.03.91.09.29.12.53.32.71.58.17.26.27.56.27.88,0,.42-.17.82-.46,1.11-.3.3-.7.46-1.11.46h0Z"/><path class="cls-2" d="M51.29,29.41c-.31,0-.62-.09-.88-.26-.26-.17-.46-.42-.58-.71-.12-.29-.15-.6-.09-.91.06-.31.21-.59.43-.81.22-.22.5-.37.81-.43.31-.06.62-.03.91.09.29.12.53.32.71.58.17.26.27.56.27.88,0,.42-.17.82-.46,1.11-.29.3-.69.46-1.11.46Z"/><path class="cls-2" d="M59.46,68.98H11.09c-1.56,0-2.7,0-3.61-.07-.96-.08-1.62-.24-2.18-.52-1.04-.53-1.87-1.36-2.4-2.4-.29-.57-.45-1.22-.52-2.18-.07-.92-.07-2.05-.07-3.61V11.81c0-1.56,0-2.69.07-3.61.08-.96.24-1.62.52-2.18.53-1.04,1.36-1.87,2.4-2.4.57-.29,1.22-.45,2.18-.52.92-.07,2.05-.07,3.61-.07h48.38c1.56,0,2.69,0,3.61.07.96.08,1.62.24,2.18.52,1.04.53,1.87,1.36,2.4,2.4.29.57.45,1.22.52,2.18.07.92.07,2.05.07,3.61v48.38c0,1.56,0,2.7-.07,3.61-.08.97-.24,1.62-.52,2.18-.53,1.04-1.36,1.87-2.4,2.4-.57.29-1.22.45-2.18.52-.92.07-2.05.07-3.61.07ZM11.09,5.76c-1.5,0-2.58,0-3.39.07-.56.05-.94.12-1.16.23-.52.27-.94.68-1.2,1.2-.11.22-.19.6-.23,1.16-.07.81-.07,1.89-.07,3.39v48.38c0,1.44,0,2.58.07,3.39.05.56.12.94.23,1.16.27.52.68.94,1.2,1.2.22.11.6.19,1.16.23.8.07,1.89.07,3.39.07h48.38c1.5,0,2.58,0,3.39-.07.56-.05.94-.12,1.16-.23.52-.27.94-.68,1.2-1.2.11-.22.19-.6.23-1.16.07-.8.07-1.89.07-3.39V11.81c0-1.5,0-2.58-.07-3.39-.05-.56-.12-.94-.23-1.16-.27-.52-.68-.94-1.2-1.2-.22-.11-.6-.19-1.16-.23-.81-.07-1.94-.07-3.39-.07H11.09Z"/><path class="cls-1" d="M88.12,22.99h5.12v11.52h12.48v-11.52h5.12v28h-5.12v-11.84h-12.48v11.84h-5.12v-28Z"/><path class="cls-1" d="M115.16,36.99c0-8.4,5.48-14.48,13.48-14.48,6.64,0,11.24,3.88,12.52,9.2l-5.08,1.2c-1.04-3.76-3.52-5.92-7.44-5.92-5,0-8.16,4.16-8.16,10s3.28,10,8.32,10c4,0,6.44-2.2,7.48-6.2l4.84.56c-1.24,6.24-5.88,10.12-12.4,10.12-8,0-13.56-6.08-13.56-14.48Z"/><path class="cls-1" d="M145.16,22.99h9.88c6.8,0,11.04,3.28,11.04,9.2s-4.24,9.24-11.04,9.24h-4.76v9.56h-5.12v-28ZM155.04,37.15c3.84,0,5.84-1.64,5.84-4.96s-2-4.88-5.84-4.88h-4.76v9.84h4.76Z"/><path class="cls-1" d="M176.64,36.99c0-8.4,5.48-14.48,13.48-14.48,6.64,0,11.24,3.88,12.52,9.2l-5.08,1.2c-1.04-3.76-3.52-5.92-7.44-5.92-5,0-8.16,4.16-8.16,10s3.28,10,8.32,10c4,0,6.44-2.2,7.48-6.2l4.84.56c-1.24,6.24-5.88,10.12-12.4,10.12-8,0-13.56-6.08-13.56-14.48Z"/><path class="cls-1" d="M205.16,40.83c0-6.2,4.28-10.64,10.32-10.64s10.36,4.44,10.36,10.64-4.36,10.6-10.36,10.6-10.32-4.4-10.32-10.6ZM220.84,40.83c0-3.92-2.12-6.56-5.36-6.56s-5.36,2.64-5.36,6.56,2.16,6.56,5.36,6.56,5.36-2.64,5.36-6.56Z"/><path class="cls-1" d="M234.52,50.98h-5v-20.36h4.88v.84c0,1.08-.08,1.8-.36,3.28l.48.12c1.24-2.96,3.16-4.68,6.64-4.68,4.44,0,6.8,2.8,6.8,7.56v13.24h-5v-13.08c0-2.4-1.2-3.76-3.6-3.76-2.68,0-4.84,2.04-4.84,5.72v11.12Z"/><path class="cls-1" d="M251.4,45.47l4.68-.96c.52,2.24,2.32,3.36,4.64,3.36s3.68-1,3.68-2.56c0-1.64-1.56-1.96-4.52-2.52-3.56-.56-8.28-1.2-8.28-6.2,0-3.8,3.24-6.4,8.44-6.4,4.64,0,8.24,1.96,9.08,5.88l-4.72.76c-.48-2-2.16-3.08-4.36-3.08-2.4,0-3.6,1.04-3.6,2.4,0,1.64,1.6,2,4.52,2.52,3.6.56,8.28,1.24,8.28,6.24,0,3.92-3.2,6.52-8.52,6.52-4.88,0-8.44-1.96-9.32-5.96Z"/><path class="cls-1" d="M286.12,30.63h5v20.36h-4.88v-.84c0-1.04.08-1.8.32-3.24l-.44-.16c-1.24,3-3.16,4.68-6.64,4.68-4.44,0-6.8-2.76-6.8-7.52v-13.28h5v12.84c0,2.68,1.16,4.04,3.72,4.04,2.72,0,4.72-2.08,4.72-5.68v-11.2Z"/><path class="cls-1" d="M302,46.07c0,.76.28,1,.84,1h2.44v3.92h-4.68c-2.36,0-3.6-1.28-3.6-3.68v-21.16h-2.96v-3.96h7.96v23.88Z"/></svg>