<?xml version="1.0" encoding="UTF-8"?><svg id="Logos" xmlns="http://www.w3.org/2000/svg" width="289.26" height="72" viewBox="0 0 289.26 72"><defs><style>.cls-1{fill:#f24c53;}.cls-1,.cls-2{stroke-width:0px;}.cls-2{fill:#fff;}</style></defs><path class="cls-1" d="M33.51,61v-3.8h7.9v-2.4h-3.8v-3.8h18.1l-8.4-14.6,8.4-14.6h-18.5v20.2h-10V11.9h34.3l5.7,9.9-8.4,14.6,8.6,14.9-5.6,9.7h-28.3Z"/><path class="cls-1" d="M35.11,51h-3.8v3.8h3.8v-3.8Z"/><path class="cls-1" d="M31.01,57.2h-3.8v3.8h3.8v-3.8Z"/><path class="cls-2" d="M88.07,22.91h10.59c6.62,0,10.15,2.37,10.15,6.86,0,2.93-1.77,5.06-5.02,5.62v.56c3.73.6,6.06,3.05,6.06,6.78,0,5.66-3.57,8.27-10.19,8.27h-11.6v-28.09ZM98.54,34.79c3.25,0,5.06-.96,5.06-3.77s-1.81-3.81-5.06-3.81h-5.34v7.58h5.34ZM99.31,46.71c3.41,0,5.34-1.04,5.34-3.97s-1.93-4.01-5.34-4.01h-6.1v7.99h6.1Z"/><path class="cls-2" d="M112.63,40.81c0-6.22,4.29-10.67,10.35-10.67s10.39,4.45,10.39,10.67-4.37,10.63-10.39,10.63-10.35-4.41-10.35-10.63ZM128.36,40.81c0-3.93-2.13-6.58-5.38-6.58s-5.38,2.65-5.38,6.58,2.17,6.58,5.38,6.58,5.38-2.65,5.38-6.58Z"/><path class="cls-2" d="M150.39,30.57h5.02v20.43h-4.9v-.84c0-1.04.08-1.81.32-3.25l-.44-.16c-1.24,3.01-3.17,4.7-6.66,4.7-4.45,0-6.82-2.77-6.82-7.54v-13.32h5.02v12.88c0,2.69,1.16,4.05,3.73,4.05,2.73,0,4.74-2.09,4.74-5.7v-11.24Z"/><path class="cls-2" d="M165.16,51h-5.02v-20.43h4.9v.84c0,1.08-.08,1.81-.36,3.29l.48.12c1.24-2.97,3.17-4.69,6.66-4.69,4.45,0,6.82,2.81,6.82,7.58v13.28h-5.02v-13.12c0-2.41-1.2-3.77-3.61-3.77-2.69,0-4.86,2.05-4.86,5.74v11.16Z"/><path class="cls-2" d="M182.25,40.81c0-6.54,3.93-10.67,8.95-10.67,3.05,0,5.3,1.56,6.54,4.86l.48-.12c-.28-1.65-.36-2.37-.36-3.29v-9.47h5.02v28.89h-4.9v-1c0-.88.04-1.65.32-3.25l-.44-.16c-1.28,3.29-3.61,4.86-6.66,4.86-5.02,0-8.95-4.05-8.95-10.63ZM197.94,40.81c0-4.09-2.25-6.58-5.34-6.58s-5.38,2.49-5.38,6.58,2.25,6.58,5.38,6.58,5.34-2.53,5.34-6.58Z"/><path class="cls-2" d="M206.37,45.54c0-4.21,3.01-5.58,6.58-6.42l6.18-1.44v-.44c0-2.13-1.4-3.45-3.57-3.45s-3.45,1.2-3.89,3.13l-4.41-.52c.68-3.81,3.89-6.26,8.51-6.26,5.06,0,8.35,3.17,8.35,7.83v8.39c0,.52.16.72.52.72h1.12v3.93h-3.01c-1.97,0-2.81-.6-2.81-2.25,0-.48.08-1.08.28-1.81l-.44-.12c-1.44,3.09-3.57,4.49-6.66,4.49-4.05,0-6.74-2.25-6.74-5.78ZM214.43,47.67c2.77,0,4.7-2.01,4.7-5.18v-1.56l-4.53,1.08c-2.25.52-3.21,1.28-3.21,3.05,0,1.61,1.2,2.61,3.05,2.61Z"/><path class="cls-2" d="M229.2,30.57h4.66v.84c0,1.12-.04,2.01-.36,3.61l.48.12c.76-2.69,2.17-4.57,5.46-4.57h1.48v4.9h-2.05c-3.01,0-4.66,1.85-4.66,5.22v10.31h-5.02v-20.43Z"/><path class="cls-2" d="M245.49,55.25h2.97c1.32,0,1.85-.4,2.25-1.61l.8-2.65h-3.69l-5.86-20.43h5.22l4.66,16.45h.68l4.58-16.45h4.94l-6.86,23.64c-1,3.49-2.37,5.02-6.34,5.02h-3.33v-3.97Z"/></svg>